<mxfile host="app.diagrams.net" modified="2023-04-21T15:01:00.388Z" agent="Mozilla/5.0 (Macintosh; Intel Mac OS X 10_15_7) AppleWebKit/537.36 (KHTML, like Gecko) Chrome/110.0.0.0 Safari/537.36" etag="3-_g-cnLz09zw7_qz2JC" version="21.2.1" type="github">
  <diagram id="hfPlTDnIuTbNZOgR_KA0" name="第 1 页">
    <mxGraphModel dx="1194" dy="766" grid="1" gridSize="10" guides="1" tooltips="1" connect="1" arrows="1" fold="1" page="1" pageScale="1" pageWidth="827" pageHeight="1169" math="0" shadow="0">
      <root>
        <mxCell id="0" />
        <mxCell id="1" parent="0" />
        <mxCell id="5s3269w3blTbIOFKcLB0-6" value="" style="shape=image;verticalLabelPosition=bottom;labelBackgroundColor=default;verticalAlign=top;aspect=fixed;imageAspect=0;image=data:image/png,iVBORw0KGgoAAAANSUhEUgAAARwAAAEcCAYAAAAV9AvgAAAACXBIWXMAAAsTAAALEwEAmpwYAAAgAElEQVR4Xu2dC3RcVbnH93dm8iIV+uIh5dFkEuiF8vDiUqTgvRVFi/e2QtJJWxAvWsDHJU1CAVlcDJGFF0ubpK0gCEKvaGmmARQUAYUulccVAWltuaV5kgKiBiiU0jaZOft+e5qkecwk58ycM+f1P2vNmpkze3/7+3775J+999lnbxI4AkUgFpOhnYmOoymszSSZOJKIpkkpph94l9NJiGlSyOlS0CT+nM9wCgZeg5/Vu8avPn7tH3zn9H2a0Pk77dWFeIfz9pKkt3XSe7XkO/UK/qxTuEfTw6/VRY/dGyjwCDZJgK8LHH4jcOedL+TtmXbYCULSKSRFhMWgRAg5kyt7Jsd6HL/ynI6ZfXmLfegWUnSzf10kZBdpYhvtl1urLy5/32n/UL49BCA49nDNmdWV61+droXCpxPpp7LAnCaITmVxOYkdUC0RTx4DArSF/x1uEVJu0TRtc3VFaTu3wqQnA4LTQwQgOB66GKSUtOqB7hPDenwOtwzmSKI57P4JHgohC1flO6w2z3Jv7hlNJp7VqehP6JZlgdOhrBAch8AbKXZQYEJS/wL/p5/Lec7i13QjeQOQJs4tuZd4nOgPgrTHtUmJ31efX67GlHC4mAAEx2WVc1ts66T9smAukZjHQ2z8So674JiYwIc82P0Ud8N+nScTv74yOqtr4ixIkWsCEJxcE09RXvP6ziNlWF7I/7H5JT7NL8+Ov6QIz6lTO1h8HuZuZ0ttRemLGP9xqhpGlgvBcagekoO94ZASmChXguouqVvNOOwh0Ml3wWLcAmqpWVi+GeJjD2QjViE4RihZlObWn2wuDhUUV/IFv4RbM+ey2ZBFpmHGOAHV8mmRlFhXV3lip/FsSGkFAQiOFRQnsLGqte1jmi4u4zGZizjpoRMkx885IsB3vZ7kZuVd2iT5cww45wY6BMcmzmt+2naoXkCLdSkuY8hn2FQMzFpDoJf/GfwkoWl3La8s2W6NSVhJRQCCk4pKFufWxraX9FO4hm/Xfo27TcVZmEJWZwioO10rayojj2Gsx/oKgOBYxLQx1vkJIfXlfDu7gk1iANgirg6a2cZ3uFaFi/X16G5ZVwsQnCxY1tdLbcrJ7f/GU/GXs5lzsjCFrC4lwH8gb+lSrhVUeAfPbH7HpW56xi0ITgZVpWYAN8c6FnDT+7uc/ZQMTCCL9wjs5tvqTZQXbqq9oGSX99x3h8cQHBP1oISGu07z+BnC72Ig2AQ4fyVVYrOyryC+5toFs3b7KzT7o4HgGGCshGZNa+dnuGl9Eyf/lIEsSOJ/Am/zH8/3+/ftuf3qS07b4/9wrYkQgjMBx8bWtpNJF0182/RzEyTFz8Ek8FdewOy6916J3NfQwFcKjnEJQHDS4GmM7ZzKC9o1MKBvcBLMCE7DCaeHCPyJp0Esq42WPwcm6QlAcEaxqd+0KTz578dccWBAmFh0cICAcQL8zNZ6LSSura4of914ruCkhOAMq+vGjZ3nkNR/yKdODs4lgEhtIKDWa755l9h3a0N0tlr7GccAAQgOg7gl1nFYIclbuC/+dVwZIGAhgb9IoS2ti5Y+b6FNT5sKvOA0x9rm88S927kWZ3i6JuG8WwnwhhW0un/vBzfgblaAd21ILnqVp6/htYGjbr1S4ZevCHSTlF+vqSp/3FdRmQwmkC2c5paOCkn6j1hvMShs8oJB8iwJSHF3Pu2r/VZ09gdZWvJk9kAJjlovuI8KVvN2Kl/1ZG3Bab8QaCOdLqpZFOFb6cE6AiM46mluEvrPuHrLglXFiNalBOKC5HdmyLIV0SglXOqj5W75XnDU1ravy/ZreeCugemFLScIgyCQFQH6fSJElyyvKH0tKzMeyexrwVkTazuc/43cz0Gq9YNxgIBbCezSJV10VVXkUbc6aJVfvhWc1bH2M/jBlgcZlNpLGwcIuJ0Az86ghl1bS2/y8zNZvhScplj7f/DVdQe/Ctx+lcE/EBhOgNfc+SWvufNlv6654yvBqY9tzZ8ii5okyW/iMgYBDxPoIE27sKaydIuHY0jpum8ER20sFwqHHuIoz04ZKU6CgLcI7OVtbC6qi5apa9o3hy8W+17d2lHOYqOWBYDY+ObSDHwgRdwaeKCxpa1WLQDnFxqeD2T1xvazeO+nh7lCpvmlUhAHCAwnwC2dHxwjIjV+mK/jacFp3ti2kMX/Pq4cDA7jb9TXBNRgcoHYv9jrj0R4VnCaWtqX8yJZt/r6KkNwIDCSwEv9IvTFa6Ilb3kVjOcE58AWLZ0387Tw67wKHX6DQBYE2kjQZ2uikZ4sbDiW1VOCo8SmqbWjmaSodowYCgYB5wn08LjOuXwHq915V8x54BnBUc9EvSE77uBu1FJzISI1CPiSwF9DQn62Olr+ipei84Tg3HnnC3l7pxy2jud+L/ESXPgKAjYTeFvo8rzaReUv2VyOZeZdLzhKbD6cMnkDR3yhZVHDEAj4h8D7vLbOZ72yto6rJ/6pbpRq2UBs/PPXgUgsJ3Co1PTHGmMdntjj3rWCowaIX6eOH6IbZfkFCoO+I0BTeT+s36za0HGC20NzpeAkb31v7FzJd6MucztA+AcCLiFwpKbJJ5vu75rpEn9SuuFKwWmOtdfztql1KT3GSRAAgXQEjhGhxG/X3r/96HQJnD7vukFj7osu4+Zhs9NgUD4IeJjANpEXOtuNa+q4SnAaY+0XsEMPcEW7yi8PX3hwPaAEeGLgk++Jfee7bath13SpDuyqINSuChCbgP6RIGzrCPAf0blTZMEdblvawhWCowa6eAuXRxh3kXXIYQkEgk1AEl3Ka0Vd7yYKjrcmmh7qmiz6E88ylH9yExj4AgK+IUB0ce3CiOo9OH442sKp37QpLPsTrUwBYuP4pQAHfEtAynt4OZc5bojPUcGZ/Pdjb1Z9TTeAgA8g4GMC+TwyunFFrOsop2N0THCaWzoqGMI1TgNA+SAQEAIfzROJjerZRCfjdURwVrZ2zeKtXO51MnCUDQIBJHD2nqmTVzoZd84HjW+LbZ3UJwqf56AxbuNkzaPswBLg5xN5+5nIeicA5LSFo+YE9FHhjyE2TlQ1ygSBAwR4Jv/dTj1dnlPBadrYcZmQIoqKBwEQcJQAz3eTGxpjO3M+7y1ngtMc6zyR+29NjmJG4SAAAkkC/Ld4khD7V+QaR07GcNSe34eJwme5sDNyHSDKAwEQSE9Al/TFq6oij6ZPYe0vOWnhTJZFN0JsrK04WAMBKwhofLe4eX3nkVbYMmLDdsFpbtnxad5D6ttGnEEaEACBnBM4Qob1e3P1kKetgvP9X2z/iCRNbcWbk65bzqsKBYKAPwjM44c8L89FKLYKTv6+8M0cxHG5CARlgAAIZE5ASrGiMfbqjMwtGMtpm+Cs2tB2Jrdr/tOYG0gFAiDgMIFDSYRus7trZYvgqLtSmkZ3MUB0pRy+ilA8CJggsGB1rNPW/d9sEZzJovBqDnK2iUCRFARAwA0ESP7g9p+9NsUuVywXnIG9cW6wy2HYBQEQsI8Ar4V81L68+K12lWCp4Kj+H2nydna2wC6HYRcEQMBeAvys1deSY7A2HJYKTlNr+3wetMGCWjZUFEyCQC4JaJrWXF8vLdUH5b9lBtc82lZAklblEgrKAgEQsIuA/OSUk9qXWG3dMsFJ7KYr2bmI1Q7CHgiAgDMEeIDkllt/srnYytItEZxbH2w/gm+AY6DYypqBLRBwnsCMcFHxtVa6YYnghOPiJnbqUCsdgy0QAAHnCZAUV698oPN4qzzJWnCaNuxQS4Uutcoh2AEBEHAPAb5NXhiOJ+qt8ihrweH74N9hZ7K2Y1VAsAMCIGAtAR7LuYQf7iy3wmpWQrF6Q/tsSaLKCkdgAwRAwLUEQnpCt6SVk5Xg6BopJ/C8lGuvEzgGAhYRIFrS2Np2crbWMhacVRs6T+OFmCuzdQD5QQAEPEGASNduzNbTjAVH0/SsC8/WeeQHARDIJQFZ2RTbcXo2JWYkOM2tnadyoV/KpmDkBQEQ8CAB0q7LxuuMBEcm9KuyKRR5QQAEPEpAisq1se0lmXpvWnDW3r/9aB4mXpxpgcgHAiDgaQJaP4VrMo3AtOAkQiH1zFRepgUiHwiAgLcJ8EPaX8t0kS5TgnNbbOsk3gj9697GBe9BAASyIyCLeZGuKzKxYUpw+qjwUi5kciYFIQ8IgIB/CPAiXdVqSRqzERkWnORiPFJk3Hcz6xjSgwAIuJrARxMfiKhZDw0LzpSTu9RKfqVmC0B6EAABvxKgy8xGZlhwdKmbNm7WGaQHARDwFIFzVrZ2zTLjsSHBWRNrO5wIE/3MgEVaEAgCgXAiYWppGkOCE+fH0xkeboUH4QpCjCBgggCvFvEVM4PHEwqO2vpFk9KUipnwF0lBAAS8TWB6fLdYYDSECQWnOdZxFs+9MdVPM1o40oEACHifAA+3GG6QTCg4/BiD6k7hAAEQAIE0BOjc5vWdR6b5ccTpcQWnftOmMKeuMGIIaUAABAJLQNPzEoZ0YlzBmfKP4+cywmmBxYjAQQAEDBEgqRlaanhcwZFSNz2T0JB3SAQCIOAzAvKc5EoSExxpBefOO1/IEyQvnCA/fgYBEAABRYASWnjCJYfTCs7eyYd9hm1MBUsQAAEQMEKA5+RM2CNKKzg6aQuNFII0IAACIDBAYM6KWNdR49FIKThqsh8/fn7+eBnxGwiAAAiMJpBPifNGnxv+PaXgNLZ0qUXSPzpeRvwGAiAAAmMI6GLemHPDTqQUnBDJL4yXCb+BAAiAQCoCkuR5sZgMpfpNnUspOJxpXJVKZwznQQAEgk6Apr6ptX08HYUxgrPmp22HcuI56TLgPAiAAAiMR0DKUNoe0hjBSeQR3w4X6pEGHCAAAiBgnoBMP44zRnB4st+4o8zmS0cOEACBYBGQH1c7vKSKeazgCEJ3KhUpnAMBEDBKIBSnok+mSjxCcAbGb05JlRDnQAAEQMAoASlTjwOPEBw9P6RUiYwaRToQAAEQSEVAprnxNEJw+Hb4Waky4xwIgAAImCMgP5VqPs7IMRwpIDjmqCI1CIBAagIfeUO0jRmeGRKcA2okz0ydF2dBAARAwCQBOfYG1JDgvCXaT2RzatIfDhAAARCwgACdPtrIkODw3lPqgU0cIAACIGANAZJjNGVIcEiH4FhDGVZAAAQOEKBTRg8cHxw0TqFGwAYCIAACWRAo2ql3RobnH36XasyIchYFISsIgAAICE3TR3SrkoLT9FDXZH47DnxAAARAwFICo8aGk4Ij4xKtG0spwxgIgECSgBRjWzia0E8CHhAAARCwgUDpcJsHxnCknGlDQTAJAiAAAiVqU4ZBDAOCQxAcXBggAAJ2EJh020Pbh/a3OyA4JCA4dqCGTRAAAZGI5w3py+BtcQgOLgwQAAFbCOhClgwa1hpjO4t47Ypxd8uzxQsYBQEQCAYBSTOHBEcT/Zh/E4xqR5Qg4AwBbZjgsAcQHGeqAaWCQDAISHHkYKAa968OD0bUiBIEQMAJAiTktCHBITr4xQlnUCYIgIC/CfAY8fQhwRE6BMff1Y3oQMBxAgdbOPw455D6OO4WHAABEPAjgemDs401QgvHjxWMmEDATQTyb9+4rVg5pPHWMEPNHTd5CF9AAAT8Q6AvUZzsSfFMY4Lg+KdeEQkIuJKARonkXuPq0YYiV3oIp0AABHxDgKff5A8KToFvokIgIAAC7iSgiaTOqBZOUnlwgAAIgIBtBOig4KCFYxtlGAYBEFAEePLfUJcKLRxcEyAAAvYS0AdaOLz2H1o49qKGdRAIPAFNaAdaOINNncATAQAQAAHbCOhCDynjgyv+2VYQDIMACIAAK83+pOBwl6oPOEAABEDAVgKSDggOd6mSH3CAAAiAgF0EBhs2qksFwbGLMuyCAAgcICAHulT8DV0qXBQgAAK2EiBJSZ1BC8dWzDAOAiCQJBDGGA6uBBAAgRwRSMTlPlWUuku1J0dlohgQAIGAEijI73t7UHCSH3CAAAiAgE0E9CPis3Yp25pO1GtTITALAiAAAorAu9EoJdQHXtNYh+DgogABELCTwJDGaKQRulR2ooZtEAg4AZ5cPKQxmq6jSxXw6wHhg4CtBPjG1LAWDqFLZSttGAeBoBMgeVBwJIX+FnQeiB8EQMBOAlrPoHVNxvVuO4uCbRAAgWATkLoc0hjt2FDkTcbRH2wkiB4EQMAuAprQuwZtawP3x4eaPHYVCrsgAAIBJUCh7iHBGfgwpEABRYKwQQAE7CEQP1qUvjFScKTotqcsWAUBEAg4gZ7BWcaKQ3JNYykkWjgBvyoQPgjYRKB7uN3BRdTbbSoMZkEABAJMQJLYOkZw9FB4S4CZIHQQAAGbCGhSjtCWZAtn97Tudp5+nFwgBwcIgAAIWEZA18YKTsPcuXF+wGpE08eyAmEIBEAgqARk0SGF24YHf3AjPBrZ9AkqIcQNAiBgGYG2K+bP+DCl4JBOmy0rBoZAAARAQNCYseGhFo7U0MLBFQICIGAhgVEDxsrykODsl9qf+TsP5eAAARAAgewJSEHPjbYyJDjfjkbe4x9HDPCMTozvIAACIGCQgN5f2P/H0WkPDhqrX6R4ZnQCfAcBEAABswR4ms3maxfM2j0630jBIQnBGU0I30EABEwT0EXqxssIwZGaDsExjRYZQAAERhNgYXl69Dn1fYTg1Fac0MVNobdSJcQ5EAABEDBKQAul7i2NEBwikrpIndBoQUgHAiAQeALd1RXlr6eiMHIMh1OQ0J5MlRDnQAAEQMAQASkeT5dujOCIhPbrdIlxHgRAAAQMEHgsXZoxglO7uKSbE/9fugw4DwIgAALjEIiH+uVT6X4fIzgqIUnxaLoMOA8CIAAC4xB4uvri8vfT/Z5acDRCtyodMZwHARBIS4Akpe1OqUypBadYV/fQP0hrFT+AAAiAQAoCiUwEp/r88v08H+c3KezhFAiAAAikI9BTV1UyZkmK4YlTtnBUAl1QazqrOA8CIAACYwiQiKm5fGPODzuRVnD6C/ofwTrH46HDbyAAAsMJUIJiExFJKzjqSU+edfyriQzgdxAAARBgAp3LqkpfmIhEWsFRGbmFs2EiA/gdBEAABEjICbtTitK4gnNI4SE8H4f2ACcIgAAIjEeAd+9tGe/3wd/GFZzkiuskHzZiCGlAAAQCS2BHzcJyQ5swjCs4A/juCyxGBA4CIDAhAV67+N6J7k4NGplQcGbIyBOcuGfCUpEABEAgiATicaGtMxr4hIITjVKC1zq+26hBpAMBEAgOAb6x9Mg10RLDi/ZNKDgKnaTEPfzGy5TiAAEQAIGDBCSJu8zwMCQ4ddET32CjvzRjGGlBAAR8T6BnYMjFcKCGBOeANfqRYatICAIg4H8CRPckh1xMHIYFZ4YoVY+dY/DYBFwkBQEfE+iXMm56bNew4Cglk1I2+xggQgMBEDBKgMT6gaEWozmS6QwLjkrcX5hQiqa2BMYBAiAQYAJS0qpMwjclOOqBTknyjkwKQh4QAAG/EKAn6qKRv2QSjSnBUQXkxRNr+K0/k8KQBwRAwPsESNDKTKMwLThXLp71Jhf2s0wLRD4QAAFPE9iybGHJbzONwLTgqII0XWTUf8vUSeQDARBwCQGiFUafm0rlcUaCs2xR2VYpxcZUBnEOBEDAnwR47dBXZsjSrNbIykhwFE7ehbye3/C4gz+vLUQFAmMI8CJb9WYn+o02krHg1C46Qe3OibGc0UTxHQR8SYBe3rWt7MFsQ8tYcFTB3MT6Lr+ZmtqcrcPIDwIgkHsCUurfaWigrHs0WQlOXbSsnVXn3tyHjxJBAARyR0A+Xxsts+Th7awERwXMI9Y38Vtf7oJHSSAAArkkIKV2fTZ3pob7mrXg1EQjPTyY1JhLACgLBEAgVwTokbqqSMbzbkZ7mbXgKIP7CxLf47e/jjaO7yAAAp4m0K/rYrmVEVgiOOoZKyLxbSsdgy0QAAGnCdDaqxZFdljphSWCoxx6d2vkp3zf6nkrnYMtEAABxwj0ijxNjc9aelgmOOqWGWmy2lLvYAwEQMARArz8xA21F5TssrpwywRHOVZTecIfeX/g/7HaSdgDARDIJQF6+b0jekyv5mfEQ0sFRxWY6E+oQaZeI4UjDQiAgOsI6JqQSxvmzo3b4ZnlgrN8yYm9vHXElXY4C5sgAAL2EuCnB1Yti5a9aFcplguOcrS2MtLCm5tbMjPRrsBhFwRAYAyBzuLCohvHnLXwhC2Co2YlhkPiG+znbgt9hSkQAAEbCWhEl18xf8aHNhZhbhF1M45UV5S/zg8+XGsmD9KCAAg4RIDkPcsWRp60u3RbWjiDTu/aVnonf37K7iBgHwRAICsCOwv68i2dUZzOG96L3N5jzQNtx8QTtIULmmJvSbAOAiCQAQFevFPOrYuW/y6DvKaz2NrCUd6orhWP6Sw17RkygAAI2E9A0i25EhsVjO2CowqpXRh5kNfNsWUikf01ghJAwJ8E+Bb4i7to7425jC4ngqMCyqd9tfzWlsvgUBYIgEBaAh9qQruoITo7p2tZ5UxwvhWd/YHUaAmHj0300l4D+AEEckOApKipiZa+mpvSDpaSM8FRRdZVRl7grYJrch0kygMBEBhBYN2yaMSRIY6cCo4Kubay7If8tg4XAAiAgCMEXpKi4JtWLRlqNoKcC44KVAXMjr5k1lmkBwEQyIaAfEckQhV10WP3ZmMlm7w5FxzlrAo4EdIu5I9vZ+M88oIACBgmwEvciMW1i0u6DeewIaEjgqPiWF5R+hoTWMQfs97rxgYuMAkCviIgpfyvuoXlTzgdlGOCowJPrgZPAoPITl8FKN/XBHhXlfW8r9R/uyFIRwVHAahdWLZWSNnsBhjwAQR8SOAP2iTxVacGiUfzdFxwlEMzqEw9OPbz0c7hOwiAQFYEdvANmi9Vn1++PysrFmZ2heBEo5Q4pLDoIuz6YGHNwlTQCfSGdHk+36B5x00gXCE4Coha+IfioflSUJebAMEXEPAaAV6ZYR//855fvai8w22+u0ZwFJiaJaV/0wTN449/dxso+AMCHiGQYLGpqo2WP+dGf10lOEnR4ec7SNM+x9Bc1RR0Y+XBJxAYRUDNtbm4Jlr+sFvJuE5wkqJTWbpFatrn+eP7bgUHv0DAdQQkLa1bWLbBdX4Nc8iVgqP8Uw968ho65/NHWxd1dnPlwDcQMEqAn/5eVlsVucdoeqfSuVZwFJDaqrJneCX5+fzRNbf1nKoolAsC6QjwLOLra6rK1qT73U3nXS04CpRaSZ6E9u/80bEHztxUYfAFBIYTUGJTV1X+Pa9QsX0RdatANMc6zubFnn/F9g61yibsgICXCahulFdaNoOcPSM4yuHVsfYzdCH5ATSa6uULBb6DQJYE+H8vLfXCmM3oOD0lOEnR2dA+W2riN7wA9FGjg8F3EAgAgTjf+v6y2+9GpasHzwmOCqQx1l7Gjv+WPx6fLjCcBwG/ERiYQVzl5nk2EzF3/aBxqgDqomXt/SJ0Jv/2QqrfcQ4EfEigN6HLuV4WG1UnnhQc5fg10ZK34vv2/Ct//IUPLy6EBALDCezgBzHPvGpR+f96HYsnu1TDocdiMvQmdd7KtwfVvlc4QMBvBP6glphw21PfmUL2vOAMBt7U0vYtQaQmP3m21ZZpJSKfPwmolfrU4lluWs8mW9K+ERwForml7fM60f0c1JRswSA/CDhIgBvs8r/UsqBuWanPKha+EhwFZW1se0lChB/g2+YfswoS7IBA7gjId9TuCm5Y8NyOmH3X/bgyOqtLFwVzGNY6O4DBJgjYRYD/+/9ZJMJn+FVsFDfftXAGLwZuktLq1o7Lede9tXwuz66LBHZBwCIC69QGkU5uUmdRHOOa8a3gDEbdGOv8BAn9fv5eOi4J/AgCzhD4kJ+JqlF7ffttvCYVTt8Ljgr6+7/Y/pH8vjBvRyO+kgoCzoGAEwR4nPFFqdOSqxZFdjhRvhNlBkJwBsE2x9qruJLv4O+TnYCNMkFggIB6+PKWXbT3xobo7L4gUQmU4KiK5WUujmPRuY/XTP50kCoasbqGwE5Wmy/XRct/5xqPcuhI4ARHsVWzk1+njhruO9/EX4tyyBtFBZkAyXsK+vKXf/Oi498NKoZACs5gZTe2vlpKusZdLOJdInCAgG0EOnmp3MvV6pW2leARw4EWHFVH6vZ588b2i1l0mvjrNI/UG9z0BgGdu++riguLblQbPXrDZXu9DLzgDOJdE2s7PCFFEz+PxVsO4wCBbAnQy5qQS5dFy17M1pKf8kNwRtVmY6ztXxjKam7xnOanikYsOSPQy43mG947oufuhrlz4zkr1SMFQXBSVJQaVH6D2i/lW5c3889HpEiCUyAwmgCLC69WkKfdVHtBya7RP+L7AQIQnHGuhFtiHYflC3k9Q6rhZHg8YhxWwf6JHtF1sTxIE/gyrW8IjgFyag1l7o83SEGLOTmYGWAWjCTyeSk13hcqotbXxmGAAP54DEAaTNLY2nYy30a/ke9tVZrIhqS+I0AvE4kbllWW/ioIzz9ZWX0QnAxoNsV2nM4LC7LwiAUZZEcWjxLgW9yv8Cp89bu2lT3Y0EC6R8Nw1G0IThb4G1s7Pk66vI5NXMAvsMyCpcuzbuHpEitmyNIN0SglXO6rq93DH4kF1ZMc45FUK0leyubwqIQFTF1i4nG+xb2yNlr6JLpO1tQIBMcajkkrK9e/Oj0UCn2D2zpX8tfDLTQNU7kj0M/1t55Ia6ypLN2Su2KDURIEx4Z6rr+3q3BycWIR9/kvY8Bn2VAETFpPYCd3m34sZfzuuuiJb1hvHhYVAQiOzdcBPzJxkk7aUn5m6xIuCs9q2czbpPk4/wE8wouW3zVDRp7A+IxJehkkh+BkAC2TLGsebSvQP6AvcatnKef/DL98t4B9JlwcyrOD51TdGxfaOrWDq0M+BLJYCI4D1b4i1nVUmOIXktSqeE7POewC6sHmemCB6dKE3sKLX4Pa6zwAAAIFSURBVLXULCzfjEFgm4GnMY8LPQ2YXJ1ee//2oxNauJKb9VEuU21vg8M6Aj0s5TFJ1FJbUfoiRMY6sJlaguBkSs6GfMmWj0x8nmexzuOu13lcOdhB1Bxn9XT20yTpsQS/6qpKtkBkzAG0OzUEx27CGdqv37QpPLX32E8kdDGP/0vP44r6ZzaF+hrLs5t343icTz8W6pdPVV9c/v7YJDjjFgK4gN1SExP4kXxynfRP8h/XHBKkbrWfya9JE2Tz2886X7Cb+ZmCZ3jE/WktJJ+prih/3W9B+jkeCI5Ha1e1gCb/Y8ZsXrNnjiTtY/yMz6kcymx++WWmM/cqRRs36rbwOrBbeND3uf7C/j9eu2DWbo9WGdxmAhAcH10GauGwnXpnRNP0U3kS26ncGlIipHYcLeGXW1tDatylh1/dPHC+VWNxEbq2pb/vg1euvuS0PT6qHoTCBCA4AbgM1ELxtz20fWoinjdTF7KEW0UzhcYvKY7kltE0bkpMZwxqUqJ6z7cIiWqhvMOvXv7wNl9ovYJkL08/6pG67OZb1F2CQt3vHt7zJpbitIi4B8xAcDxQSblyUQnT7Ru3FfcliqdrlJjE4pTP0xML+N9SAYtGvtBFgSa0fF3oIT6/n4VrP19AfSxc+/nOUJ8I0/5EXO4ryO97+4j4rF2YuZurmkM5IAACIAACYwj8PymP2oWbmqpKAAAAAElFTkSuQmCC;" vertex="1" parent="1">
          <mxGeometry x="250" y="360" width="284" height="284" as="geometry" />
        </mxCell>
        <mxCell id="5s3269w3blTbIOFKcLB0-7" value="" style="shape=image;verticalLabelPosition=bottom;labelBackgroundColor=default;verticalAlign=top;aspect=fixed;imageAspect=0;image=data:image/png,iVBORw0KGgoAAAANSUhEUgAAARwAAAEcCAYAAAAV9AvgAAAACXBIWXMAAAsTAAALEwEAmpwYAAAgAElEQVR4Xu2de5BU1Z3Hzzm3exiGh4AyQ8+gjogPwGCUVIyvRE2MiRtNRGxhxhkcjWETd00qZbZ2E7MsMfGPrG5q12yqiKUTZhggjYBoKpYaQ1A3mzU+EksRFWXUeYNghtdMd99z9nd6YBh6+nG7+97u2/d+u0qh7z3nd36/z7395bwPZ/j4i8DKlSJ0zqIZKnqwRgSMaUrxKYKpqUrSf0xM5UJNUYxPZUpOZIwHOFNB+h7k9HfFWJBzFiBgnP6LM6ZiTPG44irG9Z/0nW5EKf0ByjfIOT8gmRyke4OS8UGhxCA3+J6TKsyBHeFw1F/gEa0moF8cfLxGYOXKQGjOglqmVL0w2Cyl6D/Gq0k0qhlXM5lKiEZJPyRe+0mwBkiU+kmM+rmS/fT9A3ak6v3eFdcfLqlzKNwxAhAcx9AWx/CMtWunToxVzJEBVU9CcgYXop5JeZqunRTHA0dK6afaUifjYjfnstMw5O4Ply3rpZJIp/ApZwIQnPJ6erxu7aY6pcx59MubT7+/edRcqSuvEPL0lppnVGPbKQXboaTceXKleBvNsjxZljAbBKeE8C0UPSIwZmyR4sYnqF9kHuWZaiGfH5KYirN3OVdvULPsle6D+99gK1bE/BB4OccIwXHZ06tv3VY5JPYsNARbpJT6FDWNql3moivdoY7rYartvSaZekkGzJcHGhqoTwgftxGA4LjgidS3bpk2ZEQv4YJdzCU7r8z7X1xAlBqbXHUTyxeFjD/f1dK4i5xC/48LngwEp0QPQXf2TlAVl9DP4DJqKi0kkcGzcOpZcNVH4vNCLB5/fuD2xt0QH6dAZ7eLlzw7I9tS1Le2VsZ45aXSEJ+jIerzSWyEbcZhyBIBXfNhTDwfj6tn97SE+yxlQiLbCEBwbEOZ3lB1x6NzglJeQ0O9V1Bdvyp9StwpJgFqY/2VKpZP9R7e9yd0OBeHPATHIc6h1Y9Xsaqhz9JQ7jVUm5nrUDEwaw+BQTLzey6Mp7pvubHLHpOwkooABCcVlQKuVa9bV2PEA1+lOdxXc8UqCzCFrCUgQCODr7EA39zbGH6FikdHs83PAIJjE9C6NRvOVoLfQK/opegAtglqKc1wWmYh2ZaeoY+3o7ll34OA4BTCklY+zm7f8GnJAyQ0akEhppDXnQT0mi/B1W+Gowef3Hv77Qfc6WX5eAXBye9Z0QzgDRcpJRqpRlOfnwnkKicC1OF/hBa+bpUq+lh/c/OhcvLdTb5CcHJ7GjzU9ugixsxGdATnBs5DqQ/RcorNfAJ/oiscPuKhuIoSCgTHGmZe175hIW3xcAsNa59rLQtSeZoAVweohvvoBPPgbztbWoY8HauNwUFwssAMrYmcRlXpO6hG88ksSXHbhwRoIuE+Ycq27uVLf09zejCqleUdgOCkAXTKww9PCVZMbaBlB9diRnAaSLg8SoD6eN5hpvHL3pYlO4ElPQEITjKbSMSoG2ZfouYTdQirKcm38R0EMhLgarsyzF/1NjTszZjOpzchOGMe/KxfrVsgDONb1E9DO+bhAwL5EaB2VZSG0n/dPbt6M7vyStr7GZ9jBCA4RKKmrW2SISqWMym+jFcDBGwjwFknl/JB6t952zabZW7I94Izu239RSYX36TNm04u82cJ911JgLawV+rxCnlkLUazfHxqg970KhqIrqDm02WufE/hlMcIqAEa7fzvnqaleo2Wbz++rOHUtm+8hJ74P6BT2LfvfekCV/LpClnzUGfLlb6cu+MrwdH7BUeNgW9Qxe7q0r1xKNnvBKhTuccwxP1djUve8RsL3wiOXs0tOb+bJvCF/PaQEa8rCZicyY7ud9/cxFatkq700AGnvC84dLRt3dz5S2hhdwPxMxxgCJMgUAiB10029DNaEDpQiJFyyetpwZm+OnJS5UT2PQry/HJ5IPDTlwQO0fbW9/c2L3nJ69F7VnBmt0fm0hlF36dRqJlef4iIzwMEaA0NbTC4vueW8AYvr8nypODUrd34edoq8k56hEEPvIoIwV8E/kxNrAe8uueOtwRn27ZAXdeeO2iq1bX+ekcRrbcI8F4ZjN/Xt2xZp7fi8tDEP32wXKUM/oBCmu+1h4R4/EcgsR5Lsfu7l4f/10vRe6KGc+r69bXxmPg3DHl76dVELHTyB/Ul84d7Gm96nGh4Yq+dsh8mDrVtmEc7r/2ExAZrofAb9RoBLTkXTl4cnnJw4fxX2fbtZS86ZV3Dod34LuOCfRedw177nSGeFAT+XGHO/Gm5L4koW8EJrY3cQAfU35biweASCHiSgOLs3aCIrfqgsXF/uQZYjoLDZ7VvbBJK3VSu0OE3CORLQK/DUnF2T99t4T352ihlvnITHDqmJUIbmrPrSgkNZYNASQlwtSfIAj94v+nG3pL6kUfh5SM4tCaqds68OxkXX8wjTmQBAU8R0KdF8MCEe3qWfe3DcgqsPARn5cpA7dz536FlCp8rJ7jwFQQcJUBnYxmm+uGHty5919FybDTufsEhsQmdeR4twFR60yx8QAAExhLg6rAQxj3lsreOcPXT080oqtlAbFz9lOBcKQkoXiWlWjWrdX19Kd2wWrabBYfXzl2gj2xBM8rq00Q6fxKg89N4QNw7e02kzu0A3Co4vLYtchtN6LvG7QDhHwi4gQCdOjJNcvbjmrbN1W7wJ50PrhQcEptl5PDX0jmN6yAAAikJnGIw88ezI5EZKe+64KLrBKe2PXI9cdGCgw8IgEDOBFRIDqt79eGOOWctQgZXCU7dmsjFFPPXixA3igAB7xKgo6oFq/wXRvtDuS1I1wjOyKkK7G7qt3H/UL3bniL8AYEkAvQjOj/UtedOuuyq35MrBEd3dNERLv9KZCrw5oAACNhDgCv2hdo1kbA91uyxUnLB0W1NweN686yT7AkJVkAABEYJcHbLrPb1V7iFSGkFJxIxdFuTlPhUtwCBHyDgNQJCiW+H2jbPc0NcJRWcuiHWpNuabgABH0DAuwR4gPHYP5/W0TG91DGWbIvR2vaNem0UnfONDwiAgNMEqMtiolTinAMLF/yBtiot2dHCJanh1K3dNFsp+R2nIcM+CIDAWAJ8fujMBbeVkknRBae+dVulVOb3teKWMnCUDQJ+JEBdGNfNaouUbH1isQWHRwMD30YnsR9fdcTsFgIkOneVanV5UQUn1B65hlZ/X+YW8PADBPxIQM934wb/p/mRSNHnvRVNcEaWzissW/DjG46YXUeAM3Hq/mHeUmzHiiM4tKbD5OpuWkI/odgBojwQAIHUBLhSXwm1Pfqp1HeduVoUwZnVtbeBOonnOhMCrIIACORPwPxOfeuWafnnzy2n44JT07bhPMHUktzcQmoQAIFiENBLiqIiqqeoFGWRp6OCQxsBTTQ410fxFiWYYjwglAECniPA+aLEgE4RPo4KjklLF2hUamYR4kARIAACBRCggwpa6tZsPrkAE5ayOiY4tHPfOZyzr1jyAolAAARKS0Cf/sBj3yQnHG2NOCM4eqcxpf4RTanSvkMoHQRyIUD9ORfRGke966ZjH0cEp65rYDEJ5emOeQ3DIAACjhBQSv39zEhksiPGyajtgqMn+FEf8VKnHIZdEAAB5whQe2p6cEjd5lQJdgsONzn7JjWlgk45DLsgAAJOE+BX6z5YJ0qxVXBmtz36aVJIbKjlxJOCTRAoIgFqWt1B/bC2dyDbJzirVwclU7cXkQmKAgEQcIgAdSCfQ9tYXGG3edsEJzRpOg2Bq5DdDsIeCIBAaQhwwZbXt7ZW2lm6LYIzJxI5iRaCoaPYzicDWyBQYgK02Prk4cDkG+10wxbBGRpSt9CM4io7HYMtEAABFxBQajEd5VRtlycFC07tI+v1ES9FWYdhV9CwAwIgYI2A3qxL8Mpl1lJnT1Ww4LCgQU0pWsSADwiAgCcJ0I/7qlPXr6+1I7iCBCfUsUnPJr7cDkdgAwRAwKUEFBMyFrClllOQ4LC4uQzrpVz6ksAtELCRgOLqc6E1kdMKNZm34NS0Rc6ghtSlhTqA/CAAAmVAYGRPq4ZCPc1bcChjwYUX6jzygwAIFI+ArmBUP9wxp5AS8xKcWevX11NH0mcKKRh5QQAEyo9AoCJwUyFe5yU4PCZuKKRQ5AUBEChTAopqOevW1eTrfc6CQ/sUz+CcfzbfApEPBECgnAlwbsQDX803gpwFRx1R19HIVCDfApEPBECgzAlwdnW+m3TlJDj1rdsqFedfLnNccB8EQKAAAlyxSiPKvpSPiZwEJ2oMXE2FTMqnIOQBARDwDgFarH0doy1pco3IuuDozXg4uz7XApAeBEDAewRoJfmMusnTLss1MsuCU7du4/m0InxWrgUgPQiAgDcJKClyXrRtWXCUVDkb9yZmRAUCIJAgoNSCurWbZudCw5LgTF8dOYlWhGOiXy5kkRYEfEBAsfgXcwnTkuBUVrKrMBSeC1akBQGfEJD887l0HlsRHOosVjmpmE9QI0wQAAHGpoYqp19kFURWwQm1bT6XFCendprVwpEOBEDAAwS49f7drILDWewqDyBBCCAAAg4R0GfR1bdumWbFfGbBiUQMmnuDPW+skEQaEPAtAc6HjOglVsLPKDh1MfYJmnszxYohpAEBEPAvAcG4pa2GMwqOiktLRvyLGZGDAAgkCHC2QO8kkY1GesFZuTLAhHFxNgO4DwIgAAJ6b3M5pLJ2v6QVnNq58xbSTEI0p/AugQAIWCPAVdYWUVrBob6bnBdmWfMKqUAABDxJQIl5p3V0TM8UWzrBocWgbFGmjLgHAiAAAskETDN4QfK1sd9TCg4dAVOvl59nyoh7IAACIJBMIFtFJaXg0I5eqN0kk8R3EAABCwT4BWzlypS6ojOnvCHQnLIAFklAAATGEaCBptq5C84ad/3ohXGCE1r9eBXdm5cuA66DAAiAQGYC6sJ098cJjph0eCElNtJlwHUQAAEQyERAZeiSGSc4TImMvcyZCsI9EAABEKBz687SJ7ykIjFOcJRk81MlxDUQAAEQsERAMREL9J+TKu0JgpPovxHs9FQJcQ0EQAAErBJQykjZD3yC4IjJQ2frNRFWjSIdCIAACKQioLhM2VI6QXDoZIaUqpTKIK6BAAiAQFoCip2baj7OiYKD4fC0/HADBEDAOgHalnhi9Wln1yfnOC44NDuQ2lIpO3qSM+E7CIAACGQjEKwIjmsxjQpO7bkX1NEKcT3pDx8QAAEQKJiAknJOspFRwVHDw2ck38R3EAABEMiXgBKiPjnvccExxt9MTozvIAACIGCZgGL1yR3Ho4IjlBqnRpYNIyEIgAAIJBGgPuGK2XMWhMZePt5pzCE4eGNAAATsJSCNE3UlITg1bW2TqMN4pr1FwRoIgIDfCSh1YldNQnC4DNT7HQziBwEQcICAkicMRo0IjhE41YGiYBIEQMDnBGjleM1YBAnBEVKdcNHnjBA+CICATQQUU7PI1Oj6zITgKMGrbbIPMyAAAiAwSoAOY6g85eGtk49dGBEchRoO3hEQAAFnCFRWDI+2oI4Oi6OG4wxqWAUBEJD8eIVGzI9EKqiBlfG0PCADARAAgXwJ0BZbo102YvAIw/ybfEkiHwiAQHYCYwalhApAcLITQwoQAIG8CSg+7VheYZrspLwNISMIgAAIZCMg+JRRwRFMTc2WHvdBAARAIF8CfIzG0CjVcfXJ1yDygQAIgEA6Akodr9QImgmIGk46UrgOAiBQMAEaBdcak5htLGitw2j7qmDLMAACIAAC4wjwAJ3EOSEhOGOrO+PS4QIIgAAI2EDgiLE/0ZISDDUcG3DCBAiAQCYCwlATRwSHtgHMlBD3QAAEQKBQAoFYLJAQHBqyChZqDPlBAARAIBOBuAokdIam4fCE8uADAiAAAk4RMILyqOBw1HCcggy7IAACIwSkKUaaVKjh4JUAARBwmoBkR2s4ijH04ThNG/ZBwOcEhBjpukGnsc9fBIQPAsUgoKQa2T+9GIWhDBAAAX8TMLiIaQK0loon/oIPCIAACDhFwJQyrm1Tk4pBcJyiDLsgAAIJAkbFaA1HJZQHHxAAARBwioAZPyo4HE0qpxjDLgiAwFEChnG0SUXbVKBJhdcCBEDAUQJUwTnWaWyiSeUoahgHARAIRI0RwaEazhBwgAAIgICTBIbiEwa1fdrxjyX+gg8IgAAIOENAqb0fvHJI26ZhcQ7BcYYyrIIACGgCnB1kq1bJhODQxD8IDl4LEAABxwjQes1RjRFMqgOOlQTDIAACvicwthUlJGo4vn8hAAAEnCSg1PFWlBCGRJPKSdqwDQI+J8DZcY0RMm5+7HMeCB8EQMBJApztOWZe8IrJ/U6WBdsgAAL+JsBNOTAqOL1vvbyPhq0w29jf7wSiBwHHCMQFH63UiMT4uOKjVR7HSoVhEAABXxLgcTFGcAiBEhLNKl++CggaBBwnYPa9/8ZHx0pJ7DPKTTXaxnK8eBQAAiDgHwJc7Tk2y1gHPSI4Y9pY/iGBSEEABJwmoCQ7oTKTEBwpeY/TBcM+CICADwlw/v7YqEeObjCMTh+iQMggAAIOE6DdKHaPE5zuCrOXFlhFHS4b5kEABHxGQAjROU5wWDhssqSqj8+4IFwQAAG7CXCmKj+q+mC84NAVrmSn3eXBHgiAgH8JKKZ6dt117XBKwaGLJ7S1/IsJkYMACNhCQPLOZDuJTmP9ocPGx91MTozvIAACIGCVAOfjW02jghOTQ+/RmirqO8YHBEAABAonwE2xM9nKqOD0NzcfYkqd0MGTnBjfQQAEQMAaAdp2axJ7KzntqOAcvfFmcgJ8BwEQAIE8COzuCoePJOc7QXC4wXYkJ8B3EAABEMiVgOIipZacIDjRKEcNJ1eySA8CIJCKQHbB2dMS7qde4/2pcuMaCIAACFgmYMRSVl6S+3BIb1TKhJYLQkIQAAGfE1ADvQ0Ne1NBSBYcPS7+11QJcQ0EQAAELBJ4JV26FIITfCldYlwHARAAgWwEuFAvp0szTnD6mxcPKM4+TJcB10EABEAgAwFTHqp6Ld39cYKjE3KuUMtJRwzXQQAE0hKgBZs7eldcfzhdgtSCo9JXidIZwnUQAAEQoPnFaftvNJ2UgtN9+G87FFdDwAcCIAACuRCg7pi0/TdpBYetWBGjm6/mUhDSggAI+JwAndDQ3xzuzEQhZQ1HZ6Cq0f9kyoh7IAACIHACAcle0NKRiUpawQlUshexz3EmdLgHAiAwloAIGM9nI5JWcEZWemK0KhtA3AcBECACXPV1NS7ZlY1FWsHRGblgz2UzgPsgAAIgwC00pzSljIJTtW/KS9TrjNEqvE8gAAIZCcTi8azNqayCo3dc51K+mLEk3AQBEPA1AZpC0z1we6OlQxgy1nA0RRUQv/c1TQQPAiCQkYDi/HdaKjImOnozq+D0vv3Gq9QhtMeKMaQBARDwHQGzgseetRp1VsFhq1ZJmpTztFWDSAcCIOAfAtScevGDxkbLm/ZlFxxix1XFM3oqoH8wIlIQAAFLBAR/ylK6o4ksCU738sUfKSbQeZwLWaQFAa8ToK6WRJdLDh9LgqPtKWHmpGQ5+ICkIAAC5UngmUSXSw4fy4LT986bL6PzOAeySAoCXibAWZzLYM59u5YFJ6FkQmz1MkPEBgIgYI0ADYVv110t1lIfT2VdcCiPCCZGqw7lWgjSgwAIeIuAisUfyyeinARHL+ikDZKfzKcg5AEBEPAGARoKf7WvZVlnPtHkJDi6AF7Bn2DUfsunMOQBARAofwJC8M35RpGz4FAtZ59Scnu+BSIfCIBAGRNQrLO7MZz32XU5C04ClRHcUsbI4DoIgECeBKQwN1HWvCcB5yU4vY03vk9D5Ho7QXxAAAR8QkAx+WHfrp3PFRJuXoKTKDAm12G5QyHokRcEyosAF7wj14l+yRHmLTg9ty37kDZa/0OyQXwHARDwIAHB3+tpDP+x0MjyFhxdcIUw1tOIVU5Tmwt1GPlBAASKT0CaqkMfyVtoyQUJzvtNN/YyKfXmO/iAAAh4lABtM/x23/Lwn+0IryDB0Q5IU2ygvhzMy7HjacAGCLiQgIizdnKr4NqNDq1gwem7LbyHKlp5TXN2IVu4BAIgMIYAtaJe7G4J/8UuKAULjnaET+QRmu68zy6nYAcEQMAFBBIrwvkjdnpii+DoNVZC8TV2OgZbIAACJSag2G+6loe77fTCFsHRDnU33bRNdy7Z6RxsgQAIlIzAoMmGqH/W3o9tgqOHzDhjv7TXPVgDARAoBQGp+Nr+5mbbt6KxT3CISk9T+C0luOUjI0oBEmWCAAhkIUCT/PomOnNSi62Co8MYZsO6k2kwS0i4DQIg4EoCSgmlHmThsOmEe7YLzr5bbhlUUq12wlnYBAEQcJgAV1u6msK7nCrFdsHRjvbeerM+2NyWmYlOBQ67IAACSQS46qvaP5UWZTv3cURwyF2lAvFfKKaOOOc6LIMACNhJgDP18113XTtsp81kW04JDuttaNhLc6F/lVwgvoMACLiRgHqmu2lp3jv5WY3IMcHRDvQ1hZ9USr1m1RmkAwEQKAUBuTdWae+M4nRROCo4ieXsQfNn1MI6mM4BXAcBECghAWpH0XDUA3vC4aL8Rp0VHOKom1aMywdLiBRFgwAIpCEgGX+0v3np62lu237ZccHRHvc0LfsjUzLnY0FtjxYGQQAERgnQoM6uvtmnODoqlYy7KIKjC62QNQ9RJ3JPsgP4DgIgUHwCtLvDsKH4/ezKK4u6l1XRBKez5cohw4zdj0P0iv9yoUQQGEdAsYfsXgk+rowUF4omOLrsrpbGd6RSD6XwA5dAAASKRICOe3m2t/nmknRxFFVwNM++5puf1AEXiS2KAQEQGEOAtnR4d3ql+AVdsmXL0FzhFl1wdKA6YB14rs4iPQiAQAEEOD8gVeC+HeFwtAArBWUtheAwHbBUQ/fR6Z0HCvIemUEABKwRoPk2TPJ/729ePGAtgzOpSiI4OhTa3GeAx/lPcXqnMw8WVkFgLAHSm7U9y5e8WmoqJRMcHfjR3eDRiVzqtwDle5sAV9u7m27e6IYgSyo4GkBP881P0BKIrW6AAR9AwHMEOH+j5/DH/0lxlaSTOJlnyQUnITq7Xn+EaPwp2Tl8BwEQyJ8ATe7rjkYHf8JWrIjlb8XenLTvuTs+c//rtxMOTT94Hy33PNsdHsELEChrAoNRPnz33qamXjdF4RrB0VDqW7dMixo0G5mxGjdBgi8gUE4EqLUQZab4QW/Lkp1u89sVTapjUDpbbvhYKLaSFpX9zW2g4A8IlAUBzqTBzJ+6UWw0P1cJjnZIr+9QQXkPdSRjjk5ZvOFw0jUEaOxbmeqBruZl/+can5IccZ3gaP/6li3rFPHoSpoYeNit4OAXCLiQwIN0gMFzLvRr1CVX9eEkgwq1bZ7HeOxeOtNzQvI9fAcBEBhLQP0yMcXE5R9X1nCOMettXvymYOpe2tLCNcN6Ln+ecM+HBGgn3/ZyEBv9aFxdwzn27tR1RD4pTfZDcrbCh+8TQgaBtAS02NAs4kjaBC67URaCo5nNWhuZT0eQrmSKV7mMIdwBgRIRKI9m1Fg4ZSM42unZ7ZG5tOnzj6gvfkqJnjCKBYHSE9Arvxl7sKcp/EzpncnNg7ISHB1aqGPT6cw07yXHp+cWKlKDgCcImEqq/3D7aFQ60mUnODqQ09s3hWJK/pjWo1WnCwzXQcBrBPQMYj2pz83zbLIxL0vB0UGd1tExPSYrfsiVOitbkLgPAh4gMEhDPD+iZtRb5RxL2QqOhl7f2lo5bFTdzRm/qJwfAnwHgUwE9KrvGIuucttCzEw+p7tnpLtRDtc/3ro1fnDhghemTD+lipZCnFsOPsNHEMiJAO1nE4se+OHeW2/9KKd8Lk1c1jWcsUzr2iN/p5RaQVOLPBOTS98ZuFUsArRTX2LzLBftZ1No6J76cda2b7iQ5ul8j0RncqFgkB8ESkaAhr31HsRHtwV1xU59drHwlOBoKNXr1tUE4sb3SXTm2AUJdkCgaAT0Lgl0uoIbNjx3ImbPCY6GND8Sqdg/JL/Fmfi8E9BgEwScIaDeM1nwJ6U+ysWZ2EaselJwjgLjofbINRTgCpqXGXASImyDQKEE9Gm0+oDIUh5SV2gMVvJ7WXAS8det2XC2EtSvo/gsK0CQBgSKSYCGvIfpH8SHjp717an+mlQcPS84OujZkchEM8pXcKnQxEr1FuBaSQjQVrq7DMXv17tclsSBEhTqC8E5xjXUvvFympl8J32fVALWKBIERgjQEBQtQn60b/Yp69iVV8b9hMVXgqMf7KxHIjNFgH2X/nqenx40YnULAbnXZOyB/ualr7vFo2L6UdYzjfMBdXDrxsMHFs7fNnl69RFam7KAFNd3DPLhhjx2EFDPxCrFfQMNN3fZYa0cbfiuhjP2Ic1sjcwKGOpOWov1yXJ8ePC5TAhw1UetqJ93Ny39a5l47Jibvhaco1R5Xcevr6BG9R00koWNvRx71fxoWCk6eWRL1f6p63bdde2wHwkkxwzBOUpk+urISVUT+ddp5OCKZEj4DgI5ExD8PdoS98GupvCunPN6OAMEJ+nh1rRtOM9g/Bu0NOIMDz93hOYcgUGp+Nq+ieppFg5T/zA+YwlAcFK9DytXitBZ532BSdlM/TsnpUqCayCQRECLyxMmG9rQ39x8CHRSE4DgpOaSuFrT1jbJ4BVhOhH5eiyPyADK57foqJYXueSP+GkCX76PHIJjgVxiD2UWb6Rm1mdJeMDMAjM/JKE9JN4Wcdbe3RL+ix/itSNG/HhyoBhaEzmNkjfQFl+X5pANSb1GgDqEJTPX9t2y9CUKzfPrn+x8fBCcPGhWP9wxxwgGGrCXch7wyjgLrej+kAve0dMY/iNtLAmhyeNZQnDygHYsy+zWjrNMo2IJvXsXo6lVAEi3Z1WsUwpzU9+unc+xVauk2911s38QHBueju7jiTPza1KxLxBQnH9uA1OXmHiFm2wL9dHoGaKpxWsAAALlSURBVMKo0djwUCA4NkA8ZmLG2rVTK2XgWqpuf4VmLWM43Ua2RTPFWVxxvl0Z8cf6li3rLFq5PikIguPAg9ZbnP4tyi+nUySuoX8X5zlQBEzaTkDupX8onuYy+HT38sWeOJLFdkQ2GITg2AAxk4na9Y+dyqJD1zDBr8JarUykSnLPpB33XqRn81Tv22+8iv4Z558BBMd5xiMlrF4dDFXN+Azj8otcsvNxflaxwI8vR59kSc2m31Xw2LMfNDbuH58CV5wiAMFximwGu/pc9KgZuFgwfrnekwcjXBlg2Xern3Z7fD4Wjz8/cHvjbjKLTmD72Fq2BMGxjMqZhLTf8gw5pC6lbQwuZ0qgv8dOzFztYZK9IGT8+a6WRr1qGyJjJ988bEFw8oDmVBZd8zFj4kIlxCIq4wKcIJozaZO2F9mhFH+Flh283N8c7oTI5MzQ0QwQHEfxFmA8EjFCQ/Js6tBcRP9KL+Kcn4mmVyqeaoCuvsKFelkeqnqtd8X1h1OlwjV3EIDguOM5ZPUisXJdVdEZW/H5NHx7LonPuVzxyqwZPZWAdtBjbLfiYgf9uYMZsTd7Gxr2eipEjwcDwSnXB0w1oOoDsdODFcF5NN/nTPol1lMT7HR6oN6Y6UybAFPzqIfO2e7kXHZyU+zkk9hbXeHwkXJ9ZPCb3lBA8BAB2jhs9pwFIWmoeqVEPZ1+dAY1xWrohzvLxbUhkzrM99Ce0gNUc3ufVuLvFkJ0BqIHPuxsaRny0NNBKEQAguOP14Cf8vDWyZUVwzWSKxIgXs2kqqGJiNOoj2gKVSamUi1pKr0MU+mVsOccdjJKg0IH6X+DtKp+kDpy6U85SG/cHm7Kgbjg/Twu+vsms33YitMfL6GOEoLjn2dtJVJe37ptwhFj/1RhqImBWCwQV4GgEZRBaYqAZDIoBA8oqYTBRcyUMm5U0J9xETMMGac/YoGoERuKTxjc+8ErhzBz1wpypAEBEAABEHCEwP8D8a/E/PBh2HMAAAAASUVORK5CYII=;" vertex="1" parent="1">
          <mxGeometry x="120" y="510" width="284" height="284" as="geometry" />
        </mxCell>
        <mxCell id="5s3269w3blTbIOFKcLB0-8" value="" style="shape=image;verticalLabelPosition=bottom;labelBackgroundColor=default;verticalAlign=top;aspect=fixed;imageAspect=0;image=data:image/png,iVBORw0KGgoAAAANSUhEUgAAARwAAAEcCAYAAAAV9AvgAAAACXBIWXMAAAsTAAALEwEAmpwYAAAgAElEQVR4Xu2deXQcxZ3Hq6pnxpIvMGCbG2Obw0BMgvNCOGMghIQASdjID0se2TJBxjZnHuTtBvIU5eCPrFk2z/hkwbYky6ydcIS8zQNCEgObzZozLBAOG4sbH0BifEgz0/XbX40sWRrN2dM90zP97ff0pOmu+tWvPl3zVd0lBa5AEWhpaVEfnvTGIeGYGG+H1MGK5CgpxGitxWgGMVoqPYr4tyBRK4UM8b2wEBSmvr+lCPF9jkIJfhYnEgkhRVyQ5M8U5wcxvv8Z/+zSkpK/FVm72OYuIrkrbNk7DonEtrfO2GDC4QoYAS4fuKqNwPSW6aETJx5zZJjsCcJSh9ukD1dCjuN8jmOtGEtERkjKfX3KhW87SbmNf2/TpLcpYb2T2Ff79sp5K/eW2zmk7w0BCI43XEtm9fqOhtF2nCZSSE2QpI8XSk4gTceK3hpJyfxwNyG5TQjdJaXayrWkrpBlb7175v0fchpcUcJVyQQgOJX19iQLzFGa5BT+5p3C378p3KQ5qrKy4MxbbsR9xnl9TSrxqtbqtfE13W+gWeaMZTljQXDKST932r0CY9M0LcXnuNYyhaOYvpbAX1xwbZK0RUn5Cv9+PrF75CvcFIsHHozPAUBwfPaC5qyaU1OjYlMtpaZxX8sXuSZj+l5w5SIgqYc7rl9SQj0bCiWe+2X9Om6W4fIbAQiOD97ITavmHLzPip2tlDxLaDqtsvtffACUXeAm2Ps88raJ+7OeWtHUuZlvof/HB68GglOml5Ds7CV5tiA6lwRNTX5FcHlDQNJHQsunRYKeWnZ151aIjzeY87GKQp4PJZfCmObSCBk/hyz6Cs9rOZ3/5yqXTMNMngRMzYfF/SmRCD2xtGn1R3lGQzCXCEBwXAKZzcz8tfUTlVaXcE1mOo+0DM8WFs9KR4AL/195HtCj9t7hf0GHc2m4Q3A84ty8onl4aPje87nj9xJOYrJHycCsOwR2SUF/sJR8dPGste+5YxJW0hGA4KSjUsS9Gztnjo8l5LeklBdzbaamCFOIWg4CRC+JkHhgWUPn85w8OppdfgcQHJeALlzTeKJW+juC9DnoAHYJahnNcF/POzzC9aDdPXIjmlvuvQgIThEsubkkr2tv/BJPv2ehoVOLMIWo/iXwKffz/DYWi/zuvqvvM4tRcRVBAILjDJ6c39FwpiTZwKIzwZkJxKowAvt4RvPDI8l6aFFj+54K89037kJwCnsVcl5bdJoSuoGjoSO4MHbVEnoPL6d4IDKs55G7ZmzYVy2ZKlU+IDj5kZbz2mdN5Ukzs7jpdHJ+URCqmgkQLyZVRL/aa0f+a3XT6u5qzqubeYPg5KDZvCZ6rCX1NRzs8zmC4nEACfBo5CfSpra7Z3f8gf/GqFaOMgDByQBo7r1zR9VEYvU8We9SzAjOAAm3+wnwLohvKtteeXfTuteAJTMBCE4Km7r1ddZhPcO+zhPBuENYjMqMDk9AYCgBruRsTFi0emX9up1Dn+IOBGdAGVi4euapZKkFLDS8Yx4uEHBMIMYdy/952NGTHmi9oNXs/YxrPwEIDoOItkVHjFJ6NmnxDZQMEHCLAPfpdEmtFi+Z3faGWzYr3U7gBWdhW/RMLfV87qc5tNJfJvz3IwGuL5P6zT4d6sBoFs/B9+MrKoVPZtOrnlBsHu8Sd24p0kMawSbAX7TtXONZsiTaYdZoBfYKpOAsaJ91Nq/Luw6dwoEt9+XLOInH9unwPUGt7QRKcJIbYFmxZi3kxeUrcUgZBOQH2tKLVjR0vhk0FoERHLOam6R9C8/MOiJoLxn59R8B/uLZ3LmzdtyWE37d2tqq/eehNx5VveCYo223Td7yXZ6GzpP4hOUNRlgFAWcE+Av4shbqruWN7dudWaisWFUtOM0r6g4K1UZuZaE5vbJeC7wNGIE9LDqLVjS2P1vt+a5aweGO4ckk9A95FGpstb9E5K/yCexfh7Vuyaz2+6t5TVZVCs7CjoaLeARqIf+EK78oIgcBI/DMCKHurNY9d6pKcFr+2BLa9t6b1/DGWJcGrJAiu1VEgL+UH+pw+I7lM1d3VVG2klmpGsFJHiynxW3cX3NKtb0k5CeQBGKK9KIls9f9TzXlvioE57p1Vx2p49aPMeRdTUUTeTF9OVLpe5c0dP6GaVTFXjsVLzgL2qJTeC3Uj3jrI2wlge9oVRJg4fnt2M2T7qmG+ToVLTgL1sw8Vyj1fXQOV+X3DJkaTOCZfXb4F5W+JKJiBYdHor6jtZiLUgkCQSHAp0ZskUq08iF9n1ZqnitRcCTPsYny8Sx1lQodfoOAcwLyg1AifPviuat2OLdRvpiVJjhyfls9b2guLy8fMqQMAmUmIGmHLdRtK6MdH5bZk4KTrxjBMWuitk/cvJAH8r9WcC4RAQSqjIA5LUKEwrcvnbnq3UrKWkUsZpzeMj00YnL8Zq7ZXFRJcOErCHhIoJbIPv+sb53x4qaH/loxfTq+r+EYsZky6ahb+cXxplm4QAAEBhKQUuy1Fd1eKXvr+LqGY5pR+2s256GYgQAIpCUQVkKePe2KU5979uGX/542hI9u8um1vr3kjslb+MgW+RXfegjHQMAHBMxWuTJk/fTaNY1H+cCdrC74VXDkgrb6uTz0fUlW7/EQBECglwCJg5W0f3ZtW3Scn5H4UnDmtzXMJCG/7Wdw8A0E/EaAF1sdpoT+2c3rrz7Eb771+eM7wZnfPusKdm6mX4HBLxDwMwGzgLmnp/unt/Dhjn7001eCs3DNzLN42Ox7fgQFn0CgUgiYo6r3Cv0vZn8ov/nsG8ExpypoqW7hfhvfD9X77SXCHxBIJWD28d7x3paFfN9X3ydfDIubji4p7TuYjS+rgakvE59BoEIITPzSt6fazzz0f6/4xd+y13BMW5P3GeLNs+RBfoECP0CgWghwe2HWte2zpvslP2UVnLr1dZZpawqiY/wCBH6AQLURkKRvNBvV+SFfZRWcsd3hKM6M8kMxgA/VTUCGhKR/nr+2fky581m2Phze0+ZsFpvmcgNA+iAQEAK1vEPySSOmHvqnro1dZTtauCw1HD5h4WgejbopIC8a2QQBXxDgf/CnTJl05NxyOlNywZmzak5NguQPOdO15cw40gaBYBKQl89vi5ZtfWKpBUfWhmI3opM4mEUdufYLAX3DtauumlAOb0oqONxvcwmf9X1uOTKKNEEABPoJRKSlftCyvi5SaiYlExyzdJ6ExrKFUr9hpAcCaQnIY3b0DGtK+8jDmyURHLOmg2cS38K1m2Ee5gWmQQAECiDAAzeXzWuLfrGAKEUHLYng8JqOevZ0ctHewgAIgICrBCxh33TTqjkHu2o0izHPBYfXSZ3G6X83iw94BAIgUCYCZklRTCXMFJWSLPL0VHBuXl9Xy00pPooXK8DLVJ6QLAjkJMAnek5LDuiU4PJUcLq7h0W532ZsCfKBJEAABIoiQE28RcyhRZnII7JngsM7953ER1hclocPCAICIFBmArxp13AtE/PZDU+bVp4ITnKnMaLr0ZQqcylC8iBQEAF5JjetziooSoGBPRGcne9tuZL9OK5AXxAcBECgzAS4knDtgvV1I71yw3XB6Z3gR1d55TDsggAIeEpgjO4Oz/UqBbcFR/LZOPO5PRj2ymHYBQEQ8JaAFPJi0wfrRSquCs7CtuiXsKGWF68JNkGgtAQk0TVe9MG6JjjNK5rDvFbq6tJiQWogAAJeEOCKw0kL2xqmu23bNcEJj9hzGTt5hNsOwh4IgEB5CJCSs83+VW6m7orgNK9vPoj7bdBR7OabgS0QKDcBEocODyX+yU03XBEcq3vPLDNxyE3HYAsEQMAHBIiuNOfGueVJ0YKz4L6r+IgXKsk6DLcyDTsgAAL5EeBukoiSNDO/0LlDFS04FA5xU4oXMeACARCoSgIk6MLr1l11pBuZK0pwFq6tP46V5jw3HIENEAABnxIgoXTccqWWU5TgUELO9GKs3qfY4RYIBJeAlF9pXhM9tlgAjgXnurbo8bzLzTnFOoD4IAAC/idgKhYhoc3OnUVdjgVHu5B4UZ4jMgiAQEkJmArG/HvrJxaTqCPBuXbdnAnce/3lYhJGXBAAgQokEBF1xXjtSHBUPPadYhJFXBAAgQolQOKcGztnjnfqfcGCc/P6qw8RUp3vNEHEAwEQqGQCUsYS8ltOc1Cw4HTv676cO5BCThNEPBAAgcomIKW82OkmXQUJTnIhlxTfqGxc8B4EQKAYAryMqUbEIl93YqMgwRlu9VzMiYxwkhDigAAIVBEBkpebLWkKzVHegmPG4UnKKwpNAOFBAASqjwDrwSGhkbvPLTRneQvOws6G0/mMqcMLTQDhQQAEqpMAaVXwou28BceJ8erEjFyBAAgkCRCden1Hw9GF0MhLcJpX1B3EizQx0a8QsggLAgEgoIX4WiHZzEtwVE3kQgyFF4IVYUEgGAS0FhcV0nmcj+DwsHthKhYM1MglCIAAExgdqtl3Zr4kcgrOgrboyWysoHZavokjHAiAQOUTIKnz7jzOKTh89MuFlY8EOQABEPCOAJ1+06o5B+djP6vg1K2vs7DnTT4YEQYEgkxAyrhln50PgayCMzYe/pwkMSofQwgDAiAQXALcEsprq+GsgsNbiOZlJLiYkXMQAIEkASlPTe4kkePKKDjTW6aHpBJn5YiPxyAAAiDAcwBJ9nTHcm45nFFwTp189FReFYrmFAoTCIBAXgR4tCpniyij4NikC16YlZdXCAQCIFCdBEhMmb+2fky2zGUSHKmkmpYtIp6BAAiAQCoBsq0vpN4b+Dmt4PARMBPM8vNsEfEMBEAABFIJSElZKyppBUeTzhopNRF8BgEQAAFDQAr6QktLS1pdMc/TP5ACgoPyAwIgUDABM9C0ffKWEzJFHCI4vPJzOAeekikC7oMACIBANgK8lc0ZmZ4PERxrxJ6pfMidlSkC7oMACIBAVgKUuR9niOAokll7mbMmhIcgAAKBJ8DrL09InvCS5hoiOKT1KWnC4RYIgAAI5EeAhBoWSpyULvAgwUn23yh1XLqAuAcCIAAC+RIIkUzbDzxIcPjYhxPNmoh8jSIcCIAACKQjQNJO21Ia3KTSKq0qpTOIeyAAAiCQiQDXW05ONx8npQ9HQ3AyEcR9EACBQgjUbj/2zQmpEfoFp1eNZNqOntRI+AwCIAACOQlEhraY+gVnx8nvHMWzBM2kP1wgAAIgUDwBTRNTjfQLjuzpOT71IT6DAAiAgGMCiiakxu0XHLLUkIepgfEZBEAABPImQHJCasfxAcGhoWqUt2EEBAEQAIGhBCLbJm49YuDtA6NUEoIzlBfugAAIFEXAsicMEZxb2qIjBMmxRRlGZBAAARBIIcBrMycMvJWs4ezTiUE3QQ0EQAAE3CBApAcNRiUFhyzrGDeMwwYIgAAIDCQgpRo/8HOv4GgadBPIQAAEQMAdAnQ42+lfn9nbaazkOHeMwwoIgAAIHCDAk4lrfnDv3JF9d5KCIwk1HBQSEAABbwjsjsT6W1C9TSohUMPxhjWsgkDgCWh5oEKjWtbXRZhI1tPyAk8MAEAABBwT4A3S+ys0atu+Wsy/cYwSEUEABHIR0FocaFKpUAKCk4sYnoMACDgmIEkc3BdZ8VnABzm2hIggAAIgkIMAKTmqX3CkSIzOER6PQQAEQMAxAZ6E068xik906FcfxxYREQRAAAQyEODlDQcEh8OghpMBFG6DAAi4QsBoTHK2sRLyQPvKFdMwAgIgAAKDCMgQn8Q5rFdwiFDDQfEAARDwlECNZSd1hrerIPTheIoaxkEABCzLrk0KjhTKzDTGBQIgAAKeEVDxcMgY57VUOuxZKjAMAiAAAkyAKJbUGSVJJpUHFwiAAAh4RiCsegWHR6lQw/GMMgyDAAgYAgnb2t+kIkINB2UCBEDAYwKJ/TUcIVDD8Rg1zINA0AkopXprOCQIghP00oD8g4DXBLRMbvbXu6ex14nBPgiAQKAJSCniScGRQib/wAUCIAACXhHQ2k4Y26aGA8HxijLsggAI9BKIhHprODwlJ6k8uEAABEDAKwIyQX2CgyaVV5BhFwRAoJeAbaFJhbIAAiBQIgJSRXprODwsjiZViaAjGRAILIGY7hulUt2BhYCMgwAIlITA6ERol0mId/wTyT9wgQAIgIA3BIhq3zlmj7HNm6hDcLyBDKsgAAKGAEm5u7W1VScFh39Qw0G5AAEQ8IwAi0y/xiip6TPPUoJhEACBwBMY2IpCkyrwxQEAQMBjAkQHajhkoUnlMW6YB4FAExjUpLIS+u+BpoHMgwAIeEqApNrRl4CKR8Q2T1ODcRAAgUATkDZt7xecI14/8RMpJWYbB7pIIPMg4B0BW6n+So1Kjo8T9Vd5vEsWlkEABIJIIJwIHRAcA4AUmlVBLAjIMwh4TUAKYR/y9rEf96XTu8WoLfrbWF47APsgAALBIcBHie/om2Vscp0UHFISHcfBKQPIKQiUjoAeXJnp3Uldyw9K5wFSAgEQCAwBKd4emNek4FiW7goMAGQUBECgZASUVFsHJpYUnI8isQ+5cydWMi+QEAiAQCAIJNTgykxScDbM2GDzGeODqj6BoIFMggAIeEaA5/dR5OND3xmYQO8oFd+RhGaVZ+RhGAQCSYA+WHzD4p60gkPCGtTWCiQfZBoEQMA9Alp0pRrrr+GolLZWakB8BgEQAIFCCGhJmQXnH1q9ZdpchRhEWBAAARDIREDZ4rXUZ/01nPbG9j1ENKiDJzUwPoMACIBAfgSIho2Iv54atl9w9j/4W2oAfAYBEACBQglIIbfeNWPDvtR4gwRHWvRqagB8BgEQAIGCCUiZVksG13BiEdRwCiaLCCAAAqkEuDM4t+AsbVptFnF+mhoZn0EABECgEAK2ZaetvKT24ZhRqrQBC0kMYUEABIJLgJdJbV9Zv25nOgKpgiN4+7+/pguIeyAAAiCQDwGutTyfKdwQwZHCejZTYNwHARAAgZwElHguU5ghgrO8sX07L+R8N1ME3AcBEACBTATMlqL2nhEvZXo+RHBMQCUJtZxMxHAfBEAgIwEzOrVy3sq9mQKkFZwEyYxVokyGcB8EQAAEeHFUxv4bQyet4NDe4a9KKbqBDwRAAAQKIcA7/GWtrKQVHK4SxUnIFwpJCGFBAAQCToBPaLi7sb0rG4W0gpOMQPK/s0XEMxAAARAYSIC0fNooRzYqGQWnpqZ7E/Y5zoYOz0AABAYJToieykUko+CYlZ4sVRitykUQz0EABMwexR+taOjcnAtFRsExEfkI4CdzGcBzEAABEBB5NKcMpayCE/7kkGcxWoXCBAIgkJNAIndzKqfgmB3XuSNoU87EEAAEQCCwBLhS8v6yqzvzOoQhaw0nSTCk/xBYksg4CIBAbgJS/J4DZR2d6jOSU3DGvXHCC9whtCN3qggBAiAQNAJm7RRJeiLffOcUnNbWVk0kHsvXIMKBAAgEhwBJuWlZQ2fem/blFByDzqLQ41xjyqvKFBzUyCkIgIBQ+tFCKOQlOEtmt33MRtF5XAhZhAWBaifAXS3JLpcCrrwEx9iTShakZAX4gKAgAAIVSEAK9bjpcinE9bwFZ+ybk59D53EhaBEWBKqXAJ/Sm5BaFdy3m7fgGCVTSjxcvQiRMxAAgXwJ8MjUxv1dLflGSYbLW3BM4Eg4/hgPg+0pKAUEBgEQqDoCFLcfcpKpggQnuaBTid85SQhxQAAEqoOAlPTC8qb7u5zkpiDBMQnURGoeMe03J4khDgiAQBUQUOIBp7koWHDumnHvJ0S00WmCiAcCIFC5BCRR19KGTsdn1xUsOAaVsujBykUGz0EABJwS4JGjX3Ncx5OAHQnOkobOt/nsKrOdIC4QAIHAEKB3x2+e9GQx2XUkOCZBGU90YrlDMegRFwQqiwApubbQiX6pOXQsOEvn3v8ubwn4p1SD+AwCIFB9BKQSby1r6PhzsTlzLDgmYVuJdUKKgqY2F+sw4oMACJSegLZpLY9OO+676fO4KMFZGe34kOXGbL6DCwRAoFoJSHpj+ezOZ9zIXlGCYxwI2ZH7uS8H83LceBuwAQI+JMCz7trZraJrNyZrRQvO4rmrdvCheY6mOfuQLVwCARAYQICbUZuWNnW+6BaUogXHOFJTG1vPjn3illOwAwIgUH4CZkWB1uo+Nz1xRXDMGitNco2bjsEWCIBAmQmQ/u3y2W3vu+mFK4JjHFoWbfsj75fzhpvOwRYIgEDZCOwaLizun3X3ck1weofM1Ep33YM1EACBshAg0bGosd31rWhcExwDZVm043Xuhs77yIiygESiIAACWQmYSX47a2MF7+aX1ej+h64KjrEZEsJ0Mu3KJ3GEAQEQ8BsBPp2F5OINMzbYXnjmuuAsnrV2l9K0wgtnYRMEQMBjAlI9uDTasdmrVFwXHOPokjmdT/EvV2YmepVx2AUBEEghIOmj0KdjeFG2d5cngsPukh3SS/n3Pu9ch2UQAAE3CWih7l58w+IeN22m2vJKcMTK+nU7taDVqQniMwiAgP8IKEGPr4h2ON7JL98ceSY4xoHl0bW/4xOCX8rXGYQDARAoPQE+iWUn1cRdnVGcKReeCo6Zm2OH6S7ermt3JgdwHwRAoHwEzHeUm1J3Lp2xoSTfUU8Fx2A0TSspxeLyIUXKIAACWQj8anlj+8tZnrv6yHPBMd7yMNufeXG7JxOJXKUBYyAQLAKbxx49ydNRqVScJREck+g+Hb6Hm1YfpDqAzyAAAmUgIKmHyFrUekFrSfeyKpngrG5a3a1tvQiH6JWhcCFJEEghwPOJ73F7JXg+kEsmOMaZFU2db0qSXNPBBQIgUEYCTyxv7CxLF0dJBccAXtLYbs4mxwLPMpY2JB1cAiRpy7iamJmU68qWoYWSLLngmIyaDJuMF+oswoMACDgnwKPFnwmy7midsSHm3EpxMcshOCKZYc44GQC4QAAEPCeQnG+jrX/lIfDtnieWJYGyCI7xx2RcJegXOL0zy9vBIxBwiQAfHtfBncQvuGTOsZmyCY7x2OwGLwWhE9nx60NEEMhNgCs3G5dHOzbkDul9iLIKTlJ0Gtc9IqR82PusIgUQCCABKV9J7B35S855WTqJU4mXXXCMQ+M2T7qPF5D9JdU5fAYBEHBOgDuJ3++JRX6+ct7KuHMr7sa03DXnzNrGjRvpyxdM36Rr936eZyMf6swKYoEACAwgsMuW8rb/mLPmYz9R4YqFf66bVs05uMdKLOLa33j/eAVPQKCyCPCXOqZsfdvdTete85vnvmhS9UH596bVfydSLdyR/A+/gYI/IFARBKTQUqhf+FFsDD9fCY5xyKzv0OHI7clJSrhAAATyJmDm2iib7uTZ/P+bd6QSB/Sd4Jj8L5+5ustOUAuLzt4S80ByIFCxBPhcl8V8gMGTfs6ALwXHADMLPQWpH/PxwZ5u6uznlwPfQCBfAtyMWsl7Ej+eb/hyhfOt4BggSxvb/8bbH/6Uazq+GdYr14tCuiCQiQBJ2c7flUcyPffTfV8LjgGV3Ele0U/4z7ItOPPTC4MvIDCQgBEbnkW8vlKo+GpYPBu0eR0Np1gkWnjjoOHZwuEZCASFgGlGVUrNpu+dVIzgGIcXtM+azHN0fsKiMyoohQr5BIFUAsnTULiDuBL6bIb4nnrD758Xrq0/Ttvyp+znGL/7Cv9AwG0CXEOwpaZ/8/toVKZ8V1QNpy8Tze2zjggR/YxXo43LlDHcB4FqI2BmEJtJfX6eZ5OLeUUKjsnU/LX1Y6RWPyKiE3JlEs9BoAoI7OJdFX6yLNrxeiXnpWIFx0Cfs2pOTa0Vu4UXfJ5ZyS8BvoNANgJm1XdCyNaV0Y4Ps4WrhGe+WC3uFNSLD7+Y+ObUK5/eM+bT4UKKk53aQTwQ8C0B3s+mJzbsR35b9e2UV0XXcAZmen77rG8K0vO4tlM1eXL6UhGvOgiYnfrM5ll+2s+mWLJV9eVc2D7rDE3iVh46H1ksGMQHgXIRSG54bvYg7t0W1Bc79bnFoqoEx0C5sXPm+HhC/ZDf0kS3IMEOCJSKgNklIXm6gg82PPciz1UnOAZSy/q6yPbuyAL+8yIvoMEmCHhBgL+Mb/HawZ+X+ygXL/LWZ7MqBWd/5iTPTL6E/57HQ+chLyHCNgi4QOAJc0BkOQ+pcyEPOU1Us+AkM79wTeOJWiVuFSQPz0kDAUCg1AR4+xVeqnPP/rO+q6q/Jh3Kqhcck+mb19fVdsci84RGEytdIcC9shHYTGQtMrtcls2DEiccCMHpY8pD5+cJooX8eUSJOSM5EOgnYEah+MOvxh49qbP1gtZEkNAESnDMi73+vqaxdij2fX7jpwXpRSOv/iDAX7id3DF8J3cMv+wPj0rrRUXPNHaCatPDL+69dOqVf9w95pN9PAR5KtsIHAMn3BCneAJK0OOiJn7Hsvp17xVvrTItBK6GM/A1LVg153Cy4qaJxQfw4QIBjwhI+ohrNXcnd68M+BVowdn/7uWCtfXTtZbXcMsaG3sF/AvhbvZ5/EmqB0OfjulcfMNiHAbAcCE4+0tY84q6g0K1ke9x3850dwsdrAWRgFTiLZ6KsXhptGNzEPOfKc8QnBQy17ZFT+PDC5v59vGZoOE+CGQhsEuQ6NhZG3tsw4wNvBMoroEEIDhpykNLS4vaccLmrwpNjVwnPihNENwCgUEE+IvE4kKPDBfW/Ysa2/cAT3oCEJz0XJJ3o23RESMlzWBIV2B5RBZQAX/E82o2aa3uC9IEPqevHIKTB7nkHspCN/BR7Oez8IBZHswCEUTSGzIh2pc2db4YiPy6kEl8eQqA2LwmeiwLTz1LzjkFREPQKiOQ7BDm/WqWzlr7LP+u+vVPbr4+CI4DmvPvrZ8owqIeeyk7gFfRUehdUnLtsoaOP+9fnlDRuSmH8xCcIqjPW1V/grLkd7nwnYWmVhEgfR5VEnVppX49fvOkJ1tbW3kzPlxOCUBwnJIbEM/08Sihvy1JfpVvR3nIFrkAAAL9SURBVFwwCRP+IPC8tOlB7qMxM4TRdHLhnUBwXIDYZ+L6jobRcU2XKqku4xoPhtNdZFsqU1xbTRBvXk5W+KHlM1d3lSrdoKQDwfHgTdfxFqfjYpHzeEP3S/j/4hQPkoBJlwnwF2EnH/jxGB+u+NiS2W0fu2we5vYTgOB4XBQWrGs6hmLxS0jRhVir5THsAs1z4beJ59AIpR8d98YJL6B/pkCADoJDcBxAcxKleUVz2Bq+98tC0td4BvPpOD/LCUV34piTLHkV4e+56fTEsobOT92xCiv5EIDg5EPJ5TDmXHRlW2eR0OdxNf5UjHC5DDitObmNd3t8SiToqWVXd27lIOgETsvJ25sQHG/55rR+8/qrD+npjp1DksUH/T05eRUUQNIO0vJp0vTUiqZOs2obIlMQQPcDQ3DcZ+rYYrLmE5dnkBLTeNHoF3CCaGEok30yQrzKfWXP80jhc3c3tndBZApj6HVoCI7XhB3a55Eua2x3zYmk9DQ+bWIaD9dOQtNrKEwuwNtZZJ4XSjxn7xnxEp/DvXdoKNzxCwEIjl/eRA4/zMr1ESRPFCpxCovPyfxf/GTeT64mR7Qqe2xWzsqt3O/1qqnJ2Jb9t5X163ZWWSarOjsQnAp9vaYGdNhn4eNERE0h0pOUUBNI0HGcnaqY6dy7Vok+4Npdl5bUpWzx2rAR8dfvmrFhX4W+MrjNBCA4VVQMzMZh2yZuPUJY9gRFcgIL0fFSqvHcF3S4X2tDyX4X7txlYdnOpfFt7nvZmlC6qycWeXd10+ruKno9yAoEJzBlQP7g3rkjd0di47m2MJ7PxRmntRjPzbKDefXzKP7Sj2ZxGs00+Ee6cg67qaFoQbuVELu4+cPbbtKu5N9S7eD1SdttpbaFE6FtH43c/Qm24gxMOUQNJzivOq+cyjmr5gyrsezRlmXXqng4RBQLi7AKJ2yLhSgRVkrxlkBS8eS5uNZ2QkRCcV59FOf+lIRUkbiI6fjoRGhX7TvH7MHM3byYIxAIgAAIgIAXBP4fYmkCxFmRSOsAAAAASUVORK5CYII=;" vertex="1" parent="1">
          <mxGeometry x="360" y="520" width="284" height="284" as="geometry" />
        </mxCell>
        <mxCell id="5s3269w3blTbIOFKcLB0-9" value="" style="shape=image;verticalLabelPosition=bottom;labelBackgroundColor=default;verticalAlign=top;aspect=fixed;imageAspect=0;image=data:image/png,iVBORw0KGgoAAAANSUhEUgAAAFQAAABUCAYAAAAcaxDBAAAACXBIWXMAAAsTAAALEwEAmpwYAAAH40lEQVR4Xu2cC4gVVRjHd33kmo9qrQwtK1mtLHtTUZHQy1UoyweVlWBlVhg96IFI1tIDJUp6GJtkBBJWoqZBLSXuSqaVkgmFoWUrmJaRteGDfOz2+8fcul3nnjOzc+7M3Tof/Ln3zved7/vOf86cOefMmVtR4cUz4BnwDHgGPAOeAc+AZ8Az4BnwDHgGPAOeAc/A/5iByiR1b2tr60X5ejACbAWtIf4UYwD4HIyvrKz8JcQm1iHidqFAHbgJfAPC4srnaWA1mEzc3TpQaklK6HwSvBEo2W2gWMWOR9cDLKNiVyWtFIQ+j48HwEHwB2gr4rOK453BYuKOLmJTHoepVDdwADQC64nBZgGQHJukBpTvDHaDdaCryRf6SrBUQZG+JltXuk4JHHWjrM7+XpsPVSzP7nCbvUWvVicfW2h1+0226NVyNwc21SZbVzpryzIFgqhl6K8A6seWGGyvRncOWAfOCypqMDeriLsCi8uA+sd3DNbqXkaCZlBDXHURJRV17klkHIV3giPASoOj6wLdyKRkBn7Ub6vPHgx2GeLWBLraNMg05BFdRWtZC741lUD/KWg22cTV4W+lzSf6JvBjXN9J7JP0oUni/mfLekIdn1pPqGNCrTcl+qD+xJwDNoADIfGlr8JuRogud+gEvvS02BiKh6p0wzksVPPPQQ2vjGNVS/nYauuwCRIex+sTsT2nU6CVu7fGwqES3JCqsbERH1q+PQetLRSn3wWOb+dzeUgQ+dCJMQ2yVWlhX0j59h5aRMFjLIU3oT/FYuNUHYXQXMAdnOlmp9ETOKP17aG4baAufbH1hQTRixeNQmiuWxhKJcIG0VpxUuv7rXiYip7oFMtkYygeqtJkoujlHloihYNRCB0Y5PFMCvnEDaGVprKSKIS+QMZHAs2Gwi6xqRzvDqYbavYIOrWoaQabuKqHKJB0oSVuzNLb0w34qWcezX5g77jNeUI9oY4ZcOyuI7dQDde0em8STTv1qMY6IzQ5iaPrkIRCUD8qqSeaevBnEhGuEcoEk5FLXYcjNGhtr0CCWt+tFjL0eFsLzLMod5zFtjzUaQ+biDcOSOZFYQC7UYH9gij2mduQbGrjUGL1AT+BHeDoqJXH9u2A1OujlsnMLmVC3wiIuSFOhSnTF+wE28FRccqmbpsWocQZHpCpjQux79qUmRCUfy11kuIETINQYvQCW0AL0Lae2KKTABoCUrWXoDwlJUJfDIi4MwkL+DgR7AKbgW3IlSRU+8uWmlD8XwxagZ6xJx7m4WMKkDzX/lqXsCSJlewuj289/NsA9oJBLqqBn05AmyQOggtd+Mz3kfiMu06owJ/WT08F03n8oudDiQU/eiRyB9AT3LmQmtoDvEjJk1BJWih+zwT7A/9RFsIj5Zszwu80INFT3fKRoMJO9zbhswtYA0ToWaWoLX67gvVgHzjdVYxyveTvp4Lng5lcoutdVTbfD3712Ps2oAd9uvTL44EfiTi95PFXA/YA3Yxsy3OJuSbGTCDRScxeSMQZofjS4LsRaJh0SRq1I053sAlom/nJacQ0xiAJl4ROwp/kJWNQx0riDQvifsRn7Gmt03RIwAmh+OkPNLXUFFOr8akKMesDUicmCZz4bJDEVySg+fViEPYukHaN1AJt7NJK+yGCD+XxLrgWjMCu4RCjEh8gB+0b+BpoSjqEHLa3J6SL8Z02gInIX8HSkCS0Bql9+CK2mGivvsiclwWZSoq4ujru5qvq8DIYUyxZ03EXhGrmoVdrNpJUU2EwkjyDY5rihe7yQN8HnfafauaiwbzeKAnbQ1Xo2vVv7X7RUEonfzR5jKE+C+MGcUFo3JiF9norTpebng9p66S6j/cKjVL4LULvBa+DL8FsSF0Oqbry0hOC/nVTAneFReW4VndC3wLheC2QLAE9gPZJZSbEHwauBDcrKUTkxpLMZkokqzv5q+B3cE+A2bGyd2xMa1yBS83Q9BLb+2AiecZ6NzUzQkn2aTAAPAyGglVUSORmLfUkoIVsXXHqy+dAauTF6EwIJUHNgqaAJqD+chBkfsJn5kIe2hSsxR69bKttmCeBp6ImljqhkKn5uR6UabOsWsIkoFZRNgKpGjppk4T60I/BfeR9UZQEUyeUpHKLxo/xXUm+RQU0XCk3mUtCmjVpMVpjba1I6Q1so6RKKAlpePQo+AJ8CNogc6Mxw4yU5LWN0OpDtaxXB4aA8bZ0UiWUZC4H2pOku/tw8KYtwYz184mvGZy6JE1glLNRXBCqyYGCRZFzA6NVfGqurJ1x5SyaxX1Pa9XgXvP8C2zJuiBULU7/nNCbS/pfq978lv/eILcIk5t16A6qMV+sMZ6tMiXQX4rPz6iH8tc/QrTYYuQqarMrqieY5rujwNlAd0a9kKVOXE8TNX7TrrfVQC3yFqDVqYWc9bGUncx3LZqErVJxOFNRQ6kiz2fJU6tlH4BZ/H7QlJULQrWatAisBRqkrwFKRiTVAK3gaI48g2SmkpwIHgu0HVE3ppwU/rNN/m+TTuWj2rbHj66mJ4EWdzRe1s2qdKLLAdSBfNHGhHzRE0z1RxV8VoOfC/Qd4aeuQqskbqG5CDAymO/6Y6qBQP2NhhxbQSNo4Mz+fePCth/HrgE/AElhHvm/TbrCsiZbk87kR2sOLeSvK8uLZ8Az4BnwDHgGPAOeAc+AZ8Az4BnwDHgGPAOeAc+AiYE/AXM9KmJg7DjsAAAAAElFTkSuQmCC;" vertex="1" parent="1">
          <mxGeometry x="350" y="426" width="84" height="84" as="geometry" />
        </mxCell>
        <mxCell id="5s3269w3blTbIOFKcLB0-10" value="" style="shape=image;verticalLabelPosition=bottom;labelBackgroundColor=default;verticalAlign=top;aspect=fixed;imageAspect=0;image=data:image/png,iVBORw0KGgoAAAANSUhEUgAAAcgAAAHGCAYAAADwqxuaAAAACXBIWXMAAAsTAAALEwEAmpwYAAAgAElEQVR4Xux9B3xc1ZX3vW+aei+W5CJbcpO7sbFNN70kITQnoS35ElrYhJK2m93EyybZbLIEE7IJm7Ih2BBAdMhCAgmmGAMu4G7LkixbvXdNn3e/c0ceWZZmRjNvXp9z+Q1jvffuKf/75p13zz33HEqwIQKIgGwIbNzIhOxFR0sos5QTgRYzxgoIfCgV8vk3oSSfEFpACMsApo6TH/uEbwH+9p78ePg3I9QjENHDiOCGvr2MkR5KWTdjtIdQ2i0wsUeEbythjR6388S3b102IptSSAgRSFIEaJLqjWojApIRqK5mlkbh+Fwh4F9KBVIBxms2ZawcDB98yCz4cIOndesEQ3ocjOdxRlgDEYXjYLAPUivdf/81s/u1Fg75IwJGQAANpBFGCWXUDIFfP3Ui12PzrQBDs5SK4lKYpS2F6d0iRkiKZkIlzrgRjOY+gdJ9hJF9TBT39R+eW/Pgg1RMnDRSQATMgwAaSPOMJWqSIALgDqWbnquvAKNxNhHgA9/wA6lKkKxRuvNZ5YeUku0BkXwgekZ2oJvWKEOHciqFABpIpZBFuoZA4NFnaitEgV4BM8L1IPDZ8Ck2hODKCxkATPbAA2IbrJv+lTHHOw9smOFSni1yQAT0gwAaSP2MBUqiAgIPVzelUuq5gIjkCnjwXwEsK1Vga3gW8KBwg8F8F9Zb32AieeOBL8yppRAlZHjFUAFEIAoCaCCjgIOnzIEAGMU8St3XEkavhRt+vcHXD/UyKMdAkNcESqp7D1R8hOuXehkWlENOBNBAyokm0tINApteasghvsDnQaAN8LkEPlbdCGc+QZoggvc5mF0+e/8Ns3fizNJ8A5ysGqGBTNaRN6Hej75e6/CP0GsoozfCFofLQEU9bLcwIdJRVToOwU3VAYvl8W9dP/tI1CvxJCKgcwTQQOp8gFC8qRF4tLq2CiJKboc1xVthJpM3dQ+8QiUEtkFU7O9E5ngOA3xUQhzZyIoAGkhZ4URiaiHwm1db0pxu1wZYT7wdbuKz1OKLfCQhMADjtEUQhN/dd/2cfZIoYCdEQAME0EBqADqylI7Aoy/UTvcH6Dfgxr0DqGRLp4Q9NULgA3DBPlRGK17bsIEGNJIB2SICMSGABjImmPAirRHYVH10OaOWb0JKty+CLBhwo/WAJM6/Ftzhm9JSUp6483NlzsTJIQVEQH4E0EDKjylSlAkBntnmF9V1lzJKvwUkL5aJLJLRFwI9kPbuVwEr/dW3r62E/LHYEAH9IIAGUj9jgZKcROBkyrfL4Ob8IRxahcAkBQIuWKf8b9Ef+Nm3bpzfnRQao5K6RwANpO6HKLkE/Pmzdesh8vFHGHiTXOM+Ttth+PcvGHE8DJGvvUmLAiquCwTQQOpiGFCITc/WnQ2G8Ycnc6IiIIjAIFRQeRgKYD7yTxsqBhAOREALBNBAaoE68hxD4OHqukq4CR+CA1cjLIhAGAR6GGU/GCho/u2D69f7w5zHQ4iAYgiggVQMWiQcDYFHn6zNCtjov8Dm/vvhOlu0a/EcIgAIHIDPvfdvqHwb0UAE1EIADaRaSCOfIAIbNzIhp+rYbYSy/4A/sbQU3hdxIQAPrJdEIfCtB66fz5OlY0MEFEUADaSi8CLx8Qg88kz9alFgj8FNdwYigwgkgIAX1qsfghR2P8IUdgmgiF2nRAAN5JQQ4QWJIvBfm/emW1My/h0SiN8HtIRE6WF/ROAkArWwh/L2BzbMfRcRQQSUQAANpBKoIs0xBB5+tv5iWGf8LSVsNsKCCCiBAIOE6NRq+c7918zuV4I+0kxeBNBAJu/YK6p5sEgx8fwcmNymKCMkjggAAvAga4eMS/fcf0PFiwgIIiAXAmgg5UIS6YwhsOm5uisgIfXjcACDcPC+UBuBZx0+291fu2lWn9qMkZ/5EEADab4x1UwjmDWmUub5KbzOf10zIZAxIkBIE6xN3oJrk3grJIoAGshEEcT+QQQerq5fAuuMf4J/LkZIEAEdIAAeV/KT1N7+f7vzzlU+HciDIhgQATSQBhw0PYnM9zVmLzr2dTCOPwW5HHqSDWVBBACBXYJAb7z3+goor4UNEYgPATSQ8eGFV49D4D+r67PBIm6B7RufRWAQAf0iQEcoFb983w1zn9OvjCiZHhFAA6nHUTGATA8/X7uIivQlEHWuAcRFEREBHur6UH9B0z9jTle8GWJFAA1krEjhdWMIbKquvR72+/8RZo7pCAsiYCQE4IG31WclX8TizEYaNe1kRQOpHfaG41xdzSzNtO7HlNHvGk54FBgROIVAMyPCdQ9smLMDQUEEoiGABjIaOnhuDIHR9Ub2LBy4DGFBBEyAgBc8IF+9f8NcWEPHhgiERwDzYobHBY+OQ+DnT9fNcBD2PhxC44h3hlkQsMOi5OZNz9VvZAyS1WFDBMIggDdGGFDw0CkEfv587QpBpP8HR0oQF0TAlAgwsrmfum9/cMNimFViQwROIYAGEu+GiAicTBlXDRdkRLwITyACJkCAB+8wm+VaTHhugsGUUQV0scoIpplIPVxddwfkU30NdELjaKaBRV3CIsAIWU98ge0PvXBsVtgL8GBSIoAGMimHPbrSMHP8DrxR/wauskS/Es8iAqZCYKElIL7/82fq55lKK1RGMgJoICVDZ76OPFgBjOO/w8yRp43DhggkIwIzBIG994tn6jCncDKO/gSdcQ0Sb4IgAtw4PvLcsYfgXw8gJIgAIsB6mSBc9sD1FbsQi+RFAA1k8o79mOY84XhOVf2vIRXXnQgHIoAIjCEwRAm98r4NFdsQk+REAA1kco776cZxcf0fwK36D0kOBaqPCIRDwEUou/L+G+a+E+4kHjM3ArgGae7xjaodd6vmLq7/FRrHqDDhyeRGIJUw+tojzx9dk9wwJKf2aCCTc9yDa46QReSnjJG7khQCVBsRiBWBDCYKf/n5M8eWxdoBrzMHAmggzTGOcWvxSHX9v4J//dtxd8QOiEByIpAjCOJbDz3fsCA51U9OrXENMgnHHWaO98EUclMSqo4qIwKJItDKhMC5D1w//1iihLC//hFAA6n/MZJVwk3VdbcBwcdlJYrEEIEkQoAR2hCwsrVYU9L8g44G0vxjPKbhw8/WX0wpewMOWJNIbVQVEVAAAfoxI/b1D2yY4VKAOJLUCQK4BqmTgVBajIefr10ExvEF4IPGUWmwkX4SIMDWUOJ5ku8hTgJlk1ZFHNwkGPqfVTdMoyJ9HVTNSgJ1UUVEQC0Ers2tqv+ZWsyQj/oIoIFUH3NVOf7X5r3pNhLgVTlmqsoYmSECSYAAlFr+5sPP1X4tCVRNShXRQJp42Ln7x5aSvgVUXGViNVE1REBTBCijv3zk2drLNBUCmSuCABpIRWDVB9GcRfX/DHXurtGHNCgFImBaBASR0qd/WX1ktmk1TFLFMIrVpAMPbp9L4c32L6AejrFJxxjV0hsCdE9aSsrZd36uzKk3yVAeaQjgDFIabrrutenphnLKyNMgJBpHXY8UCmcuBNhyp8v1GE/jaC69klcbNJAmG/uHq5tSiSUA2zlonslUQ3UQAf0jQMmtm56vu1v/gqKEsSCABjIWlAx0DaXu/wZxVxpIZBQVETAVArC08cim6tp1plIqSZVBV4CJBv7h6vobKWFPmUglVAURMCoCxz2ELv+nDRUDRlUA5SYEZ5AmuQuC646EPWYSdVANRMDoCJTbKeHeHGwGRgANpIEHLyR6dTWzwLrjZvgbM+WYYDxRBXMgQBm7mXt1zKFNcmqBBtIE497M6r4LapxrAlVQBUTAVAhwrw737phKqSRSBg2kwQf74efrV1FKHzS4Gig+ImBWBLLAu/Pkxq1bsUiAAUcYDaQBBy0kMt/SQcVgUA7++Aw8jii66RE4O7dz5jdNr6UJFUQDaeBBpcz7fRB/noFVQNERgeRAgLJ/+8Xz9XOTQ1nzaIkG0qBj+cjzx5YSyr5tUPFRbEQgqRCAnMgposh+i1l2jDXsaCCNNV5BaXnUKhPF38M/0bVqwPFDkZMWgQt+8Vzd/0ta7Q2oOBpIAw5aMzn2jyD2agOKjiIjAkmNACP0oU0vHC9JahAMpDwaSAMNFhf1oReOzYL0Rz82mNgoLiKACIwikMMCvl8iGMZAAA2kMcZpTEpLQPwFISzdYGKjuIgAInASAUrodbwcHQKifwTQQOp/jMYk/MVz9RfBH1cbSGQUFRFABMIhwOgm3BsZDhh9HUMDqa/xiCgN/zGJjD0S8QI8gQggAoZBAJZJqnK7ZtxlGIGTVFA0kAYZ+OzOmV8FURcbRFwUExFABKZAgBH2ICT7wLqtU+Ck5Wk0kFqiHyPvTS815FDKfhjj5XgZIoAIGAIBmkeZ598MIWqSCokG0ggD7xN5xpwCI4iKMiICiEAcCFDytUera6vi6IGXqogAGkgVwZbCarQSAPu6lL7YBxFABHSPgEUk9Ee6lzJJBUQDqfeBFwL/AiLa9C4myocIIALSEIA0dNdseqZ2pbTe2EtJBNBAKolugrQffaa2glDy5QTJYHdEABHQOwIC/Xe9i5iM8qGB1PGoBwT6ryCeRcciomiIACIgDwJXbaquXScPKaQiFwJoIOVCUmY6J0vj3CozWSSHCCACukUAZ5F6Gxo0kHobkZPyBBj5AfwTx0en44NiIQIKIHDxw9W15ytAF0lKRAAfwBKBU7Ibnz1Sxm5UkgfSRgQQAf0hQInwPf1JlbwSoYHU4diLong/iIVjo8OxQZEQAWURYJcGi6Fj0wUC+BDWxTCcEuKhP9VAQgB6m87EQnEQAURAJQRYQPymSqyQzRQIoIGcAiC1T1sslruBZ6rafJEfIoAI6AQBSm58uLqmTCfSJLUYaCB1NPwbH29IgX2P/6gjkVAURAARUB8BK6ECZs9SH/dJHNFAToJEuwM5Gf6bgXuRdhIgZ0QAEdADApTRu376ypFMPciSzDKggdTJ6DPGKGH0AZ2Ig2IgAoiAtghk273W27QVAbmjgdTJPbDp+YZzQJSFOhEHxUAEEAGtEWDk9uCLMzbNEEADqRn0pzOmTLxdJ6KgGIgAIqAPBJb84oXaM/UhSnJKgQZSB+MeLIhMyA06EAVFQAQQAR0hIIoWfHHWcDzQQGoI/hhrr/8mKHmTogdRUAZEABHQDwLw4vxFDNbRbjzQQGqHfZBzcI2BEnxL1HgckD0ioE8EWLrNY/2SPmUzv1RoIDUe40efq4dCqXSZxmIge0QAEdApAjCL/KpORTO9WGggNR7iACVY0krjMUD2iIDOEVj9cHVdpc5lNKV4aCA1HNaNG5lAGQbnaDgEyBoRMAYCjG0whqDmkhINpIbjmb244WxgX6KhCMgaEUAEDIAApfQLBhDTdCKigdRySJmIb4Va4o+8EQHjILD0oecbFhhHXHNIigZSo3GsrmYWAP96jdgjW0QAETAYAlYRX6jVHjI0kGojfpJfM6k7B/Y+TtOIPbJFBBABgyHACK5Dqj1kaCDVRvwkP0oFzJyjEfbIFhEwKAKLfv5M/TyDym5IsdFAajBso5U72FUasEaWiAAiYGAELJRdbmDxDSe61XASm0DgXzzXwN8Cy02gSlKpkJFqJZevKSbFuXbidAfC6w67utNTrKS500Xe+LiDeHxi+OviOGq3CeTClYVkRlEqGRjxQfqlyZ0p8M3OsJHj7U7y9u4u4g+EuWhyNzxiNAQouQJEftRoYhtVXpxBajByIsG3QA1gT5jlVeuKyfTCFBIQWdDwRfqIcL68JC1o1ORol59ZRBbMzCApYCiz0qwkKz3MB4474HzVrEzZ+MohO9KQHYELHq5uSpWdKhIMiwDOIMPCouxBqIzM3wKxGQiBTDBAJfkp5NDxIfLmzs4pJb/+glJSOT2dCDsp4QZTakt1WMic0nRyrHWEvPpBe1QyfBZ5wwVlZMGsDPI3mEUmwjcqIzypGQK8qIHA3OeBAH/VTIgkYowzSJUHm7/9wXPsfJXZIrsEERAEGDVo3AhN1YSTF/Gvk92m6hLxvM06ytDlieDSHdeTwdOTX8f52ywxCBqRK57QMwIwzLgOqdIA4QxSJaBPsfGcz98CVWeLDBNCYGDYRzr6PGQhuDCLcx2kpdsdkV75tDTCZ5x1zSMJrwUOjvhJz4CXLJqdRXIz7cE1xkiNz1iLchykFWSTY+0zEh88rjEClHIP1P0aS5EU7HEGqfIww9v9pSqzRHYyIfDy+21BSnwN8vCJoYgfPtvk7s2/7OiQhfPL20b5pqVYCDfUkT4ZEBzE25+3R3fFyiIUEtESgfk/q27APdQqjADOIFUAeTwL2OJxjsoskZ1MCHD3JY9e5bMzPkuL1LgB7ez3JDx7DNEfcvrJIHzc3gCpaRqOxJactTiPdPb5iTMGd2xEInjCEAjYmcjzOL9gCGENLCTOIFUcvN+82pIG7FaoyBJZIQKIgBkREAg3kNgURgANpMIAjyc/4nauhr9x1q4i5sgKETAjAmx0BmlG1XSlExpINYeD4VufmnAjL0TAvAjQlSc9UuZVUQea4WxGxUGAmm5nqcgOWUlAgEeonr+8gHQNeMJmrOFZbXIgY836FQURqafYBWIVol8TsXOEE3w/5FTNCls7RIbbO6bCySTnrU6P80zQ5R2T6KNLNdBAqjQsGzcygZH6s/DxpRLgEtksrcwmpQUpwU+kxlPOLYProjU7/LKmuiZa/3DnBIhijdYcdguxWtEpFA0jU51jlK9DvmMqnXSmDBpIlQYka+GxSjCOuSqxQzYSEegd9AZ7vvhuK8wiR/89nhTfhC/yHflRGk8QMMUlUXqHP3XTJdPJiCt6soARtx/3P4aHz6RH6XKTKqYbtdBAqjQUgiAuhTwsKnFDNokiwLdyxJK9JlE+sfbn2eqgHmD0y/npKS6JTgDPGgsBBs8UbEoigAZSSXTH06Z0KT681AJbOp9QmrgycLHyjfkTWxpsxg8mK4c9iZFaGqwXcoPG9y3K1fj6YijdnVw0kY7hEZj7X5v3pn/71mUjhtdEpwqggVRrYBjBtz21sE6AT27m6E/iPAjU0VtLNK+r3vRBeRJGgFpSMhcBlR0JU0ICYRFAAxkWFkUOLlGEKhKVFYH39vaQwZEA6ed1F8O0CyF6dRjW+nYc7g9zdvTQ+cvzidcrkg8P9UW8Jt4TnOYwZNPBhgiMR4DSAH/xRgOp0G2BBlIhYMeT/ekrRzKJh8xRgRWySBABNxi2jw71RqRy3tL8YLq5I5CLNVLjKd9c4F6Ndk2kvpGOc5rctYsNETgNARGWbrAphgDGhCsG7SnCdo9lsQpskAUigAgkGwIUl26UHHI0kEqie5I2xK5WqcAGWSACiEDyIYCeKQXHHA2kguCGSDNCZ6vABlkgAohA8iEwfWP1AXvyqa2OxmggVcCZEoYGUgWczcyCb/OwT5Elh28DcUCaO2xJhQDNFx0zkkpjFZXFX5MKYIuElqvABlmYFIGiHAfheyttkAc2WuPZe7LTbaSiLD3aZXjOZAgwi1BuMpV0o070X5xuxDS2ILAGiTNIYw+hZtLzWeElqwuD6e1e3dYWVY7qd1oggYFILlxZSBxTGNOohPCkoRAQiYjPF4VGDA2kQsCGyG58vIFnvS5RmA2SNykCZ8zLJoUwg9x1pJ909U/ODTtebb5P8t293SQdMgCduyzfpIigWpMQYLR80jE8IAsCaCBlgTEykdx0NivyWTyDCERGIDfTRtYuyiO9Qz7ycYxJBw4dHyKNHS6yeHYWmVGUGpk4njEPAoyVm0cZfWmCBlL58ZipPAvkYDYEeEWQi1cVEQu4WN/a2RlXkoC/7e4kPr8I/QsJD+7BZnIEKC02uYaaqYcGUmHoRcIKFWaB5E2IwJI5WYQnTN9TO0DaetxxaTg44ifbD/QGA3bWQQYebOZGAF6B0J+u0BCjgVQI2BBZShnevApjbDbymWlWci6ktBuENcUPwNBJaXvqRg3ryrk5pDjPIYUE9jEIAhC8rL/M+gbBbiox0UBOhVCi50U0kIlCmGz9LzqjkNhgz+Pfd3UFXaVSGt/y8Rb059Gvl5x01Uqhg30MgQC+hCs0TGggFQJ2jKwg4Nud0hibiP6CmRmkfFoa4cE2JzqcCWnWO+iFqiN9pCDbTlYtyEmIFnbWNQJpD1c3YUSWAkOEBlIBUMeTpDiDVBhh85BPhWQAF0A5LacnQN6D7RpyNL49pGfAS85cmEvysjAjmRyY6pGG1eLGWaQCA4MGUgFQx5NkuAapMMLmIX8BFGlOsVvI1k+6CS+7JUfjJbLe2tVJBAiLvQSiWnl0LDbzIRAIMPRUKTCsaCAVAPV0khTf7BTH2PgM5pSmk/ngXq1rGSG1zcOyKtTe6yGf1vaTkvwUsqwyW1baSEwfCFBiydCHJOaSAg2k8uOJawPKY2xoDjwt3IUrC4jHJ8LssUsRXT482EcGRnzknCX5JCsd66QrArKGRBlh6D9XAH80kAqAOoEkxtgrj7GhOZwDWzoyUq2w7thDRtwBRXTh0bB/g6hWnjiAR8liMxkCUMjFZBrpQh00kMoPA77ZKY+xYTlML0wlPClAU6eLHGwYVFQPzuMA8JhVnEaqyjMV5YXEVUZARAOpBOJoIJVA9XSa+GanPMaG5MBnczwdnD/AgrM7Ndr7J2ep5y8rIGmQ1BybORBAF6sy44gGUhlcx1PFGaTyGBuSA09EnpNhC6aF4+uDajS+zvk2rHPywsrrYUsJNnMgANHJ+CKuwFCigVQA1PEkIaoeb1yFMTYi+eJcBzljXg4JRZiqqUP9yUjZudMzSCUWV1YTesV4wXMGX8QVQBfD2RQAdTxJyPiFN67CGKtJnhcwzsu0k8+sm0a8YdLA8RRxqbCX0euLHGwzWgS5iDBIA8f3KPK0cGq3rZ92k5lFaWQ9FFfma5N8ZonNuAiIhKK/XIHhQwOpAKhI0rwIMNh4P+zyB12iR5sm71esnJ4OhjMlanmqVfNzgunfPoIajzzLjRbNCdGyvLjypauLgsWV1VoD1ULXpODJiCcp9FRZSTSQCgMOrg8vTBBSFGaD5FVCgE/2+MyRV9ro6Jv8TOKVM3j2mkizQp7ube2i3OA188CY8mhSqQnJE1GZBwhxGThvXly5pnE4OJPEZlAEBDSQSowcGkglUB1HEx6o/CmKBlJhnI1Anqd54+neeNq3Z95uIakOIZhSLt56j3LoaofkBIvAONe3jpBbLp0RjKZ98s1mTYy1HPokOw1KqDauCJMDj0E6yg/w5GmG8jyRgw4RWFqRHUz39snRfjLk9EFGG5smxpFD44U1x/5hXzD3K685GSyuDDNbbAZFAF2sigwcGkhFYD2NKL7ZKY+x7jlkQRHkc5bkkUFYu+Rp33hygP31yiYGmAqUhjYnJA1IJfuPDQYN9QoorjwNiytPBZsuz+MMUplhQQOpDK7jqeIMUnmMdc8hVASZFzGeC2uPR2DNjxcz1rodhLqTC2dlYnFlrQciUf7Mj8+ZRDEM0x8NZBhQ5Dx0cg1STpJIy2AIcAM0C4og81RyPHpUhOAY7t7UQ+PycHcrl4kXV87H4sp6GJa4ZRCp1R13J+wwJQJoIKeEKLELIC5jJDEK2NvICPB0brzOI09Cztf6+DYQPnvUU+PbVebNyCC7a/pJN2w7WYPFlfU0PDHJYhUDPTFdiBfFhQAayLjgiv9iMJB448YPm2l68HRuPK0bL2O1YGYm2afxumMkYGvASPKsOjxxAcXiypFg0u1xpyB061Y4AwuGBlLhwRMpxRtXYYz1Sj430wbrjRmEp3bzQULy7gEPcXkiZ9jRUo8BcPlaLQJxwUw3VFx5dkm6liIh79gR8H/3hjnaRnzFLquhrkQDqfBwUVFEA6kwxnolz8tK8cZLTPHMOY0d+t6If6LdSUoKUsjek7NcHuGKzRAI9MCsX/uIL0NAFZ+QaCDjwyvuq6lA0cUaN2r67SDAL2aq4FNwqwdbYc5oGt62Hk9wAz7PwarnlgrrpYMjkEYPZpNOmOkWQUJ1bPpHACwjPmMUGiY0kAoBGyIriuhiVRhilcnDjjNeogUy0fDv8Y2nb7NDsnJ+nBtRl2c0AXh6qgX2GXrI9EJ9J1TiFUa6+j3gaoXaSaAfz/KDTf8IwB2JXiqFhglTzSkEbIgspdzFqu+Zg8IQmIp835AXZoYOqKnYTVZCuSpe7JinjuOVOfgMkUeonrU4L5in9USHk6xakEOWV2aTv+/uCm7Ez4dcrDwHqt4aN4oeyBrM9VlakUUsoAt3uWIzAgIMDaRCw4QGUiFgQ2QZtXRQhm/iCsOsGvmDDUPBvKU8pyovdNzV74UAnEAwwIUbPx61yg3lcchSw5N/8w/PmmMDA9TWO7qXm0eJTmrjbCakOp90evyBaC7e03pOIHP6n6f/FQDDyNs6KOLMjTqvWMLXTrEZAAHGGg0gpSFFRAOp8LAxv3gcK7UpDLKK5A8eHyQ5EJ3KS1Zdd35pWM51zSPkEGSo4e2NjzvIl6+YSRZAsgD+MULjBvi17e3B2SQ2/SPAqHBc/1IaU0I0kAqP2wxLRWsLqef5WLFwssJYq0GeG49t+3rIAchfyjf9Z6XZCK+MwbPR8BqRzTBjHF8Gi2eq+eMbTYSXwXJ7R7d4TJo/jptRTjo3Qalwk89weke7DtasTu8y7k++hspnjx0nZ7vhaOMxfSEgELFBXxKZR5qpfo/m0VRDTTZV1x0F9nM1FAFZIwKIgEkRoIKw7L7r5+wzqXqaqoVRrKrAT/ENTxWckQkikHwICO7A8eTTWh2N0UCqgTNjaCDVwBl5IAJJhwDr/cbNczGaSqFxRwOpELDjycKaDxpIFXBGFohA8iFAjyefzuppjAZSBayZQGpVYIMsEAFEINkQYORAsqmspr5oIFVAGzaR4wK6CjgjC0Qg2RCAl298tig46GggFQQ3RHrgYMUxyKaDdSFVwBpZIALJhIDABDSQCg44GkgFwQ2RfvBBKkIysjFGDGsAACAASURBVP0qsEIWiAAikEwI+HEGqeRwo4FUEt1xtGF/Ob7pqYQ1skEEkgSBzvtunNORJLpqoiYaSJVgZ5TtVYkVskEEEIHkQABfuhUeZzSQCgMcIo9rBSoBjWwQgaRBgKKBVHisMRerwgCHyHscvr12j5WX9dD1Swkv2xSA4uR+qEAiQlUJLnAg+C/+zetMjNaa4Pk8LfAJfXOlBPjPAt82CjURJ+b7VAlnZJOcCPA7lREffCDfLdy7/JvxKjoU/s3g3/AdvFsh7JNQ6+j9CVUERv+GO5fZoY4nv3uN1MQPjSStEWXFXKwqjtoj1XWfgKFZoSLLMVbcrLmYnziJn4zwb+YjbniIeOHh4YFvHzxg+LdXBHMow11hB2NphweOA0ymHQymHb4dcCyVWEmaYCMZ1E7SmJVYomXV1gIo5KkrBLjRgzsWamjChw3Bv51wJ8OdyjzBO5bBN7+D+XWJNv7KJ8BdSuHe5Hcr/+Z/W/hdSzPgXs2E7/TgXayLZrGW3n9deZsuZDGpEDiDVHFgYXK2DV5dFTWQXnhsDMBDY1CEDzw0hsEQOuHbCUaRzwKnbDIYR86Dy+GFN/hh/uCayHhceUxuNNOojaSD4cwWHCQLTGk2dcAjCN7u0XhOOVzmuIB7LOBOYf3w6QUjOAQGcDh4jMGdpFbjs84A/FoI46+R0Cbet2OCCEFDaSEZ8J0JHpMc+M4JflO4j9VoDLJzPYDGUXGo1RlNxdUwBgOYxW0DJ8/X5ZLWBT/nHtFFBuANul/0kkHmJa7Rn7ZcLBSnE5wHgEHvAx2aA6e2inInGDeUWfAWnw2fPJoK3zZ03So+IkozgLme2A0vTz3w6sQNIv8MANPRUmBKc5eHvgjGm89mh+DePX0CZwHDaSVgLIVc8JzkwacwOAuVvVHygew0keAkBNBAToJEwQNUhJta2joHd5EOgBHsBcdoN3MHDSM3kGZtfL7bw/WET6hx5PKFVJJPUkg+GMw8mHFa4fGDTb8IiPDS5iVd4LqHD+sGY9gDI2ve+zbAwBUMLmFPoGXcfZsJhrKAOISi4LcF/CSJekcEeNnW76ibRzKZHGrmAURpTaA2JE9cXh4Ln2F4uHSITtLBXGAU+dwwos8nFnLmuwZ81jlCCimmaaRYSINZJnfY4i2t5UDzYBkv6yTuQCv4BFphpoWFJiaOB4VlhBRaDAazlDhoKaxtxr+mKYhkyb1frMQ8rBPBlflvnEHKDOiU5Bj7AF4fy8Ndx2PvOsEQcqPYDp8RGQIPwvExzTFYo+wH9yz/1Ih9xAbmsQhmmNNOGswUldaDTIOnREX4eqGbtRK32ArGscPUM0SJEJ3Wja+rulgTcQWagsdtJJs4LGVBY2knBfB4iO4Vgdfkvt7DFYfkkAVpREcADWR0fGQ/ywTh75Sxm0KE+RaKNjCGzRCl1w7umdENFbKzTQqCPBK3BXBsgVcL7sXLgRnlDCGDlEEEYhqE9mOTDwE+M3SxE/CQPwGeDZwlJoKsD6IIfIEBCGg7FAzySaEzSKplJnyXAtnJHhE48iZPX5kIT+wbGwL41IgNJ9muooLlLwG/D4whGEVY6OfGEY2ibPCeRig4uwx4yH7SQ3K5sQRDWSZkklTD7XdTBp94qfLAFDdrJC7xRDC4Bpv8CEA8L7x4NBCXvwFMo42kCmAshVkwsyweP7P8i/yckWI4BCa/noS7Co/JgQAt3vzMIisVLi2n2d8XKIS6YdMEgQJY85kFM8vp8OE737BFRgBWFMEgNpAR8RisJ/ZFvhDPKIoAX7dMA0OZJlQSm7UQ9z8qivYp4mggFQZ6TnV1tstNL4KMHpdSRss4u0IhdT5sX5irMGskPwUCfCvJDJhRlsNeNu6OTTSycAp2hjnNsynxyFOnWA/rio24pqijkYOo4MERduxxGKI3ncTy7pZbt2AZPQXHBw2kMuDSsqeql4l+cjmst6+BJ8xpruw0askrETLOUoY1UpWCADeQ5WAsucHkwT7J2HhmGmfgGCSVqAvu88OmPwT8bKDOLbYfOSmZF27V96ko/PXXt27hxzDMXeYhQwMpI6BV1dX2fg85H3JAXkMJLB5EaBB8Sctp1qUChZ3v2HSFAJ9VlgvZpBI+yRLYw43hsHg46Eo18x5FXd1oEoVxsZYPA+Jwz8Tu4P2oBev4UrfDs/25Dc+Zd6PpRMUV/hsNpAwA5z35ZFaKaL0S0j99BmxfdiwkS4T0FfAADrpcsekPAf7D4GuUc4WcoPvVbC3kRh0Bw+gWT21qN5ueZtIHXrx9MLt/E8Yu4kwR7ttORukrKQ7PW5s2POcyk/5a6IIGMgHUi/70p2JbwHqtyMjFAKQ9HlKwBjkN1iJXxdMHr9UGAR7UM9+SQ4ogQ6wZ1il5FCqfMfK8p9iMgwDkpm2El5lYS1yNgPv1jYA9/eXfbvgtz+WHTQICaCAlgFbyp1cLqN/1BdijdAl0l5Q7DtysltlC9iUwALjVRsIYaNEln6aQKsixWQhZe4zW+KTDzZrJkLgXs9sYbfBOyusR2z72scGuuMSnvOwJfc3jd7z4h6/8AReW4wIv3C7UOAkk0+XTf1+dF7CT6ylhVwSLyiXYIOPLinTBhm7WBHFUu3sB5IJdZM2HfLAparOOmx83jDyh9mDQMOI2jbgB1EkHqGnpdbL6t6K5V6OJCi/kTrgVXhkmwisY+RoNqdPP4QwyBqwK/veVTLvVfQP49q+K15UajXwmtRUXCWmro12D5/SLAM8Bu8iSp9s1Sg+kfRsM7AkmCMdmbAQgkOoEpPLbn7gWdJgK7AVLb95rv/zGLz2J0zM3BTSQ0cZ340ZraUUVny3y1HDp0S6Vcg5mogJETF6C0axS0NNPn5mQoWexBWqMJO5UkEUpHpU6EPgEZo4YfCMLoDog4oboVX+Y6FWposGDv5sR4Y+P3brlPaARMehHKn2z9EMDGWEkS7c8sxJuoK9SRiJu14jQNa7DEM26DKJZFeURl0B4sSQEoLwzWWDJDUa9alVRRITi2MPiAch6UwNPPEzVKWkgddgJ0s95nOKxv0l1r0ZTCQxADXjGfvfYLU/WRLsuWc+hgZww8tOfqC4TKfkKHFbF9QlrkPmwFrkuWW9AJfVOtVrI3JwMMp9/cjPIPPj+p+0HSevIqRqTcvNPgzQDi8HtWgaFc9WMeB2BrDdD4E7lm/3VannpOeTWs64nLX3tpKW/nbTCp6WvAxJv+9QSISn4+MSBeg9rP6yospRuFUThiV/9w2b0x48DGg3kSTD4Jv8+N/kCLGZfOzHzjaI3JhCfZclcD4V/ZXfhKi23nuhbYOBmZaUFjSE3hPx7Jvw98Qb/zYEG8mpDu+KiF0AAz0prEckAg6lk40nD+/0fQWE09bdsnDl7Obls8QWnqSdCJEj3UM9Jg9kRNJ5dQ92EH8cmDQFn4PhWePFRPqUcRLwykT7Vk+p9FZMNjI7VxOeHtBE0eC9IIr4Y1gH/MZQrVW11IBqyIkdwLFSbr5H5FaQ6xmaG3BjymaLDMnWKuN1d/eQHHyn7Mh7ClbtaFwp54HbNJnB/yQo3z3gzHDgA2zZ4WUBtjM+Na68hFYWzptSLzyhb+0eNZWimOeganrIfXkDgxcLd4xRPfKgmFjwrj8DoL//71i0NavLVIy95f7V61DCKTMWbN6dbiOM2CMK5PMplip+C9GaOmZZMSDYg81NUccnVYRDOVZqfEldehjFBvQGRfPGvO4kHvtVqOZBDgs8m5crI42GdEITzsab5Um0WK/nWZXcRK3xLaUPuYXTNxgCcR+z81Mf6VI+2AsMQgCDCFzpTfM/CbNIbg6imvCRpDWTZk8+sFRm9G2aNeXoY2RJLxso0YuEVUpO6xeoqTQSkjR8fJrs61a1nyH9ofCZZBdGuUoN4RHCkDgY+hSobdYmoL0vfyqJy8qU1n5eFFieCrtnJUAZTy4mw95GI6r3NTRADXtlbRCb89//cuuXAZAnNfyTpDOT06urUgFu8E5KJX6Sn4U2n1oJpQvpaPcmkhixSXaWJyPba8XbyP/u18R5lUjtZLcBsUogvv6uHdcFa43ZwrCq/FBULtpcvWU9Wly+L5VLJ1yS7a9YvDja4WdtByQDK1BFcroww8cXCGXOffHD9g36ZyBqCjKQ0aYbQLIyQpVuq57MA+yEYx6VhTmt6yEdEFzw8y2AGJc13qKn00pmfX1ZA7l1WQRbnZ5GiNAexQiVppVuWzapKoE44Pbxg4k6Ig8FCzXlCyqQgool9YBZBhth+MI4fEkb1Ex16OQTnpNqVzSRkESwkJy2LzMgrJbMLZpDOwR4I+EmOIMvRZPIde2GLhx7cm/CjpFXDQz2r11239MCOF/cPTrxPzfp3chjIjRuF0v93zwZ4Gj0AT5lMvQ4mf1ODPZHFepVPCbnqBkbI3u4Bsro4h/C1RjUapEUi77R0kyGfNi/DDB43ncxFepibFEE2HhsUDQ3X+Ib/3sC7UG3jhKpbRsLJMv4Y395x3nz1nB2HWo+Spz9+JRjokyyNEVe7l/Ue15O+ECORB4UZLl39+aVDu17eX68n2ZSSRZ0nklLSx0AXAnGKsvNKvg9PGO5SVX56EoNMkS7xkMBwFrHPgohH04/LeAy63V7ybksPWZiXRQpS1ZlAt8FeyJp+bSMpncRPGsUhAu51AtVdTrsteOFibhz14lIdL9yS6QsIX4NUujm9LvLqnrfIe0dhG0tAm5cZpXWMRB/SBO6DNWc9lqviOTFWn3ntsooVl8/fu/vPh9TbeBsJLAWPm/pBXPrE8ysEwfpDwG+6ghjKSZpBRKsFUpbly0nUCLRc/gDZ2txNchw2UglbNpRufBM/56d1C8AWjRY2AqZShCohqSCOSAb8O4NuVa22b0yFyfkL1hE+i1SyJeOsMYSnyLz9EKms98w2ZRab5byVn1tyaPcr+9XfhKvkzTeOtjkNJGO0rLKKu1TvhedPfNEQKgEfiY2HikPZ1F4O7ozwfrdIHU1wnEcy7ujoI30eH1lZCCnbFNz1UgDbRF4+1kYCOtnA3gtVibrApWoL7ABjqXpUf8x3D9/eceWSC4kgKHN7JvOsMTQIXtJ9EPY/auveiO2OSBMs9MKV1y7r3f3SvmOxdTHWVaYzkHxvY9a+mu+AN/VKGApdu1TD3Sqw5TtgFyzw+IYKvUna1FiXtEAw0KHeIUXTzsUzfPBAJP1iB2mHGyCHeuGtLhBPd9WunVM4kyybUaUIv2SeNYYAZczvhLRyRtpSYYGH7JrV1yzNW3n5uj27/7xbsy0pStyUpjKQpU+/PAMCkn8Esy9DZ6WBiNZhWJOCWaTxDLxcN6ka65LD4NZVez/kRHx4tCLkxIGSVKO1GgMQ3drB0iC1gEgydRS1GpL7zDkrSFnOtIlqJPQ3zhpPwedjvTUB5lR3k25CozfWudJi8y1fccPiT3a/cMApD0ntqZjGQJb8sfoMQvw/1MvG/0SGFtalfLAOmQbRjdmJ0DF6X6XXJbXc7sHHBjaXgTu1H9y83Jt2ytnB4N89JBXOCSSXunX1liT39g6cNZ76lcLd4PKIbXvhztAmd2DiD4wCQaTnQwDP/p0v7TPFuqQyCwmJAx0XhZIt1ZdD3OcPwDgquzErLqkSu7hbdNbCA9SoP5TElB/X2wdJRD5qH51dyUb0JKGS9BRSCh8tGi9H5RO7wThGftluZhnkoJgPWWb0sVLAA3NyZQ7O2dt0iPAZJDYC90M//Oa1y5oj0xjkgg7/+bUnb1KlGpJMMkckY2wDyYNxnnz2H8Cteg+8jBtblwlD5CPMOcJ8jRFHLklO2CAY5M7F5Yppu6pI/aVePm/0il1gIqfeA94NM8lPSSEkmdPe2aPE1o5LF59PLAoF/Ch20yhAmK89QkWWJgVIq0+SUQcT2ffv3nLzVeozl5ej9r86ifrw8lS2Tw9+Czb+a5poXKL4MXWD2jODwbVINQsLxiSZehddW1FCzi0tUIyh2ts9IISfeBnfXhJ7EI4XjGMXSyV5xA1JBbSLgVBie0eaPZV4IFlMc1+bYmNsBMJwTxwMMJeJMtQEQ9BXrf78svSrll2z59133zWkN8yQsy4eqdrvEX8ExvEcI9z8UmWEvXFumEWekNrf6P3yIJb3S/NmKKrGEkhOEEuZLDmECECk6qhxjN/IuYmVfMKKyIBGu5b49o5ZeWVywDCJxnnz1pIMR/KWQwVn+zCsRet3b8+kEYvjAGVXd1bUffeO39yhbGHUOESK51LDGcjc31RnW4TU/yBMMHSkaqyD1MvcdbAWGft0I1bCBrjutoUzSUoMNR4TUcUO9JdAHlilG8wOIFKV5xGV/iLNg3b2igWkj6i/bjorf7rk0lZTYWu32siFC8+e6jLTnof7ogaimaXfGPpH5ixrmvNfvv7o1w21J53DaigDWfbEi/kpaeQnELUwR//3hDwS+gnzDIpe7esbyaNOzFR4EeSLphfGfH0iF64qzk2k+5R9eSDOqHGc8tIpLxAhpnU/BO70gMtVzVZZPFtRdkthb2VpTlKlIQ7iGWCeXp84YHr/Mtj/MwI5vf92f/UN6t64Cd61hjGQxZtfLGKC7z8hIEdZn1uCgCrRvYe4j/mZGDncUQmmGtLkGXTuXpL4A/nTrn7yn7uPkkFv9DyeqyBrj1LND2nkRvc4yheJyo3kAZZPOkmaUmJPoltZOGvSsfEHeCTqC7tfJ8e6pMWVcXSugAw98qEUVVxdnAxW7GCdmpezUgsMmCIv9rjtP/xa9Q3K55KUSSlDGMjpT1SXWYj/p7DmKO8OZZlAVJoM30vexzyHlOajF/p85jhXhnysfzzcSN5v7SF3v7OHbIPvSE2p7R5+2N/oZ8rs+eb+uEMsj7Qx5dfuptrewfcyPrZ1M+Hfbx/eJtmJzGeQSxTK0hNp7LU8DgkimsC7MKClDGrzhvt2PnPb/+OO6jsMscdb91GsM55+ujQgCv8Jb5ZJl8B7/M3LK32kU1u+lQrqTRvU/vUAvzQoefWDMxeQlARLX70L5ax4YWTe3AGRbGvrIU3DLrK0IDtsUI7c1T14qSo/Uz4okScUsENErJJZdyJV7wiXAWfYM0IKMnJJUZa0yOPpudPIJyf2k4DhtwNO9eNhfjdr2QV7BpMxviDXEvCtWnvd0m1QW1LX1UB0PYPkpaoCPvpjMI7KLhJNdS/r5HwXcx+ANzAzL+ZD1Or0YEWPRBpPQL7lyOQtZdFmk3KuQ3K3qhrGMYTRUfh5dIChVKqFW38cP2ucyHfrke2SDRyPZuVRrWZvXtZfJzKfro2DkmMAP9GZ8N76w29tvkV5F0gCiujWQE7/fXWeQBw/gjgiaa+iCYCi164e5h+CFS3TbvuYnpFKrp5TkjD8b5zoIG1Od1g6/VAp5CewLjlxbVKu7R48IEcpt2pYhfhBeGU6AoE73QoE7kzc3hFaa+TrjZEy4PSB15DPAqW2M2cvV7ycllTZ5OjHiG8EsiiZsvpFPPjAbTvHScQH9Ry4o0sDmffkk1mig/0Qko4n/rSMZ8QMcG2X6DoCM6TwT38DyB9NxNsXlRNLgiWuuDv16aPN0dgEz02cTcqx3WN0K4cyafGmUii4JgmrEL1M3i0g47d3RJs1TpTv/dqPocixb+LhmP62CBZy2eILYrrWiBdBrcd9JkgpJwv0fE3S7bZ/f2P1DepUSo9Tat2tQfIkADaYOUJe1cTDGOMEwwiXww0FixbiCKxHKrNrWyMQVhflkhvnJ17X+tnaZrKzM7bAmIlrkz7w+0it7sHLVUElBo3QG2XLjWQXuFqzoVxWShyZeqIJzat35KZlk1f3vEXeO/oRGL3oEcEhWtw4CpAgubxA2pjywKDW/nbSOxLbWEbTQU/nIHCr0Sv2HNeTTDqQpdgZsFauuHztB3orl6WvGeTWrVaBpn4PtnJU6GDQdCvCEPN1OJmvVbcCximYXPlWB7w+8hIUQY63hWaTLp+0eInR9HHaGseQzqF9ksMssXXcED2vzzsWoRovrh8d201GPNJ3J5ktTyvk4PV4xfbD8eKYDNfzfZKWFOd98K2rnT56mkHSkouuvBfQMf8KvQx3vJv5eyFP60zIJaqnMZSkmVz5Vh8/1Bgsgiyl8dnk3u74I+4hyfTJ9HH6iZ0Klcsqpi7I4pqYXA3dTTHPGifiziNR/TDjDBfkM/HacH+bLU+rT+za4ydmyrcabtQSOEbJrD/ve8Gy66X9+xKgImtX3cwgS7c8+0VYc7xQVu1MTIxn2IE0dIbfZCxXvtV2p4f8tbFT1RHnJau8wfRx8edWVVpQD5jGfRC4wwswa9k+adxP+hPY6meWPK0BcaQdIldH9x1pOSA65w02YMOdW26+RC9iavvrOYlC2ebqCyEJwI16AcUocgwwbzPMJDuMIm84OeXKt7r5SCPU01PTUEEsotgbLHms1zYMOyQPiXkJziET047PIt8+vF0yETPkaYUXKa+HdEgP65WMnjE7Whi752tP3bhcD9JrbiCnP/GnpeB1/roewDCiDB2ic58Is0kjyi5XvtX6gZFgVKpajacI80GGHJHoH/YeCNepY5BKT8Nc2Idaa0j7gPTZvdHztHrFzr3JvOcx3t8lLApYiEj/+Z6nbpwVb1+5r9fUQBY+Xj1NpJZ/hldcq9yKJQs97mqFrR97tNb3q7BFoyQt9i0GcuVb5Xr/4dAJyF+f2FpbPPhBijBIMi09+CQeXnJc28IySAvRLv0lH5m/HdomWZVE8rTyKNorl14kmXeiHSFhxAkfGzC0lydRDKT0h59zGgvQH3znf/9fppT+cvXRzEBWPvq6w2Zh3yOEavfLlQtFjekMM1/XkOht0FIMPqt6bP0yciNkwomlvqJc+VZ5QvI9EoJrpGIlwmRdzSw5UuWc2K8esu0MMu2qDTV0N0pOZM51iTdPKzeMt551Pbll3fXEo1HCGl7nEfY8Jk0O5Yn3XKJ/w4tV0bDd/e2NGzdqZqe0YkxHsofvAeOIex0TvYtO9u9irsM+Jiqf/DOCvB+19xK+XeOm+TPIYxcsJ2uilJDi+Vb52qMcjSckV6sxKMvp1Xivo1RdRXjaHIDk5j7wXmnVEklkzmW+CGpG8jXJaG28YeRJDniraa+P1kWRc1DDlXnE9k/hnpG2d0gRqYxHFHZ9rOicW6dZfIomv5Zpm5+9ElxsNxhvuHQtMWxVD/RmECvf+qH6XqIet49cVV4MBY4tJMNmJeeXFZB5uRmkpm+YDPtOD2S5dcFMskKGElPjE5IrPzK8NBFf59RvUM5UGPCI1iEI3CmmTk3KSiWayNxutROeZSdcSS1uGD+3/NJgHtectFMFsPk+zDcPvTcVNLKf94t9R8C1Gv+mXNklMQFBRhavuWb5sZ0v7WtRWxvVDWTJ488vgHv8O6CoVrNXtTFWjV+AMC9MFFxp1KZ6WTC+zjQjM5VUZJ/KPVyWnkquAKPJ1xuP9vN1O0Z4vtVvrqgMHkukcVo/3nl0kvFNhGa0vvCwg6Ac42f4c8Nyvwg/vTyqjS7tA13kjPJlksefu1oPQlktl29U/kiGMTSWPD2e2jNIWJ9ud7M2w2/BivZ7UP0cZavWbFi0fccLB6RtdJYosKoGkudYhVQ5P4Y0crjuKHHApuoGZbEGbdRid1CLclWAIwgBe5jIeTBzHN94blVeYuqCskLSDgnEvwhrlNxIJtpeh4TkW6GklRptNAG5Zt5r2VUchFlkOvWRdA1mw25YD0x3pJEyKGslpQkUjDukoRv2DIedMU6k+S6kx+sZVi8/Ll93hDJWO2BvrJp7jiaqbca/bUwUll71pQV/e/e5Q6q5rdWMHqUO0fENSqAUOjZFEehizoN2kpEFRjJPUUYTiH8CATNeyEjDE39PbMVpjmCdRzlarAnJ5eDFM+XwLR1mazViLskSfMShgZHkicyXz6wiNkv09cRImFcWlRP+marxLD4NXSquURMW8ATadsPeWOP64acCVdvzszrdjttAhN+qJcbkJ5lCnEu2VF8GxnGNQuSR7DgEwPvI2tnIbnC5qupH84Bx/FSFiNIX6loIL1ulfOP7HfnsQ70tJMrrNMrBD27Ww2AktdCMrwtur9utuKr1XSckp8mTIpyXdewJEJeqLkApchq7D/vsnZtvWaWWDqoYyLInX5gOv8Tb1VIK+UAoCQTRdYgj8Dar4gZBAJ5HsyrZpCYklyITVF7gyeSkdDVEn36YPzYybbaZJZrIPBaAj3aoV3LRJw7UwweDcmIZmASvsZDAffc9fpsqS0jKG0io0MFE/7chJEOX9b4SHCtdd3exQB/ka92rppA7OvoUnZX8qaaZuPzKL0HwCh1G3O8Y71gfZ1nByFa1m9fvI+8f/Vgxtnxfbm2HOluDoQ5oh5d0HFFMGSR8GgKQjD/ba/XeCwcTi/SLAVfFDWRZU9fNoMecGGTBSxRAoF/0Ng+I3qMKkA5Lkrs+a/qU8TKplZCcJyHXurZjWHAVOMgrfxyC/ZEB5Z81k6RPNJH5JILjDjT3tSVUaisa7fHnwMMw4BabYb+jup6aWOUz63WwP3LVXU/cdJXS+ilqIPmWDsizeq3SSiD96Ah0M9dRqB/ZHP0q+c5+1K5M1KBaCcn5zJHJVHBYPlSVo+RiVtLAspVjEIFyoonMI5ANHlZjawcE47jcYssOeKHCoJxog6HQOQiQ//IdW24uUYh8kKxyBhJcq8Ti/wY8aRSfBisJkFlot4sj+2ALiCr7Ij5UYB1SrYTkPJVcgI2YZdhj1qMZcrXy7R9qt0QTmUeSV+n1R24U3WLbDnDF6z9jfSSQjH/cbhHFfwQ1FLMxihnI0qbu6ykRZhh/DMyhAbyniG2B4d2Qjk4Z/+c4mJqHXaRlRN4AWnUSko9W6TDHiMepBYSz1rBccC4r9qwJKxCPok0kkXk4onzfo5J7H0FmSCPXsQv2xyr+WwqnHx4bhwClS+9+4kbFstErYiBLn355BqHsCziQW8A+swAAIABJREFU+kIAQlt8bWxkR4CILqUl+1jmWeTnK0riqhYiRT8/GwKHR/J6y0aYjTSpHNXKM+GcO+9MKcMVsY+S7lW+1OgVu/aAG14Vb0xEJfHEKQQo/erdT92YqwQk8htIWD0lfu/XsYSVEsOVOE2YQbpaAyMfgZFU1DUk93aP1UW5cVULiRcpqNcHUas4IThBsoiTSNvAHw/m4ZKKx9M/2rVKGkgf69kHAVyq5wSNpi+eg6RQonCHEjjInmpuWkXVlZBy7AolhEWa8iAACQR8sAWkK12wlQqEyn4PcCnHJy+XR2qoojohbZ1cblw+K/BDlY5kCsyJNCbc5TkMa5ElVJl12Klyp0aSK9bjSiYn94o9hyBh/fFYZcHrVEVgphIJzWV9OPJcqzZm/VeARf3VflXHwvjMeGJzqP7RnUFspVD8Q9b7gKMTLnm5XKhNVS0kXj4icUHMqjIGIV5Z9HC9B0pipVI/hO3Il61IacMYwk2p5OSQUanGy7rUr5ulhxvCIDLAM2f+7C/N/8shGXO1yupiTWX2mwDLU+UcDAJssorpZv4BSEkHYerKLLx9rNB2j9B4yeN25bNH8yQil+terhezZdkbqaQrNZyuNR3y2zCeJccjdtaG44fH9IQAKy502T8np0SyzRxKnnphFiSw/wZE3KobBicnGklIyw/5Wj3E35tObSXgGpf1hanL5SHXzCmFGn7K3RKJul35uqMZyljJfevy2pG8OksulbZUrdaMcbzePDn56/v+TkQmXyGNoHFk7YflxhfpKYMAPMEWrLp+yd92vbhfljB6uR6IlAQCkGsVjaMyw64sVScL9LaJzg+521VOTkonLxdh7ZDvj/xzQzt54vAJcmwwPjcpX3Pk+VaxhUegiWUQN5P2Dt070k92NOyBpOS7yPHuZkgaLp+7Nry0hMidnJy7VdE4RkJbn8fhkZDCAuQWuaST5dV++ubn14hE5GuP2AyMgINYMkssaWstRHDIpcalM4vIvcsqZCHHy1wd7h0kh3qHgp8aKMKcSF5WXqmD13rEFhmBIuokVTTxBPS8QHZBZj4py5kWrAXJCx8XZhZILpwcTuLX9r5F9jTKU6d4NCCnW71s5+EUwmOSEICYCsYE8b7HbvpTwuOXeD1IyJgjNnV/RZIm2ElXCEAOmaFW0flBKU1bZ6FC4lWNQbtQ8nIpb2LcRRsyhochv+vxQScYNB7+k3jjycjROE6NYyeD4sYQ15pNE3Mu8Nl+J2wd5J9PGw8EGfN6kNxQcoPJDWcpfLJSpdVSlys5OafDt3JAtGrj1OjgFXpEAMaQ0gDl1aO+B5+EHhgJG8iS5q6LQQhF8+HpcRDMKpOXBZwtdOSDUpK+1koEaU+rceCEkpcvyI1eVok/QBvAAB4Ozg5hlggGscuV2EM52hj5IbEattgQ4Hlal9Ou2C6O4yrudj3R0xz8hBo3kNxQhgxmWW5xTIWV5UhOzjPkQKTqHvAs4D7HOMZRj5fCWC6+Z8vNK351y5OfJCJfQgayqrra3u8mmDEnkRHQYV+fKLqbhZEPSkjaage15CUqIk9ePtFAyu0ujUdGPnvkOVexxYYArxvZT1JIDpEl7iEq00HXMBl01ZEjbXXB62J1zSaaHIDnVvWI7bsgaAsz5EQdIeOchHduqCRFPoWP5FmkFM/XGEKlm5/9LATmKJLBwDjDYF5J4eYQimnaMkgoUJaIltMzUsmP1i5UzF0ar2xe1o0GMk7QsiCadSXp1EUcXjjX7JMfvSA5/+poVY7WHVDXEVMpxXlf6P1ygQg/+tWtWyQXHpVsICsffd0xkjP8OyCgSA48vQOfTPIV0NR52YJ9nhl05jNHbiCxxY/AEtpN8qnys8j4JZPeQyQeqOfYAlU5fOhSkA6jbntCuM7xX9361Dd44I4UISVv8xjJHoaUcmgcpYButD68nmQPc+1hRKYIGY0AGE0ph2uPUuFvIFAz0ti3wGmqw4yxwyU2bUfjKPWO0H8/CNcpv2fzjWdLlVSSgSx//PEUiNq+XipT7Gc8BPpFb3O76PpQhEo/xpN+VGKowwBJAZQL/DEqLrHKPQzVPrpJWqyX6/o6Hxuoc7OmXYwFoMgNNjMjwKhw08aNGyXZOkmdvJa0SwDQLDODirpNRsDJfL1NgeH3IdK1b/JZ/R/Bah2Jj1EjL4dl6FkkL3TcsQsCco6AR0GS2y1xFJGCyghM75xbJ6mmWvwGMmiJ6dUqK4jsdIKAn0CEqzj04RDzHdeJSDGJwctZwXpTTNfiRZERGIQ6BAMQ0WrEJhLfMLhUt/lZf7sR5UeZpSNARXKNlN5xG8jSuVXrgFGxFGbYxxwIMELFTtF5oFt0fwrrkoZwUQVgszs2eRDgKeiM1iApRJtLPL4twNx4Ixht8GSQF1wFVXdvuXl+vKTiNZAU8gBLssTxCobX6x+BAeZpaRGd26AIs67D42GdCbPmyHg7ddNUKBCW0BZqGaWZghRjIhQ4Pggzx93wT/8UV+NpcyPw+XjVi8tAlmx+cQFk+I/bCscrFF5vHAQ8zD/UxIa2DRP9ulz9WOtR3hsKXsebDTCLBLf6kIs1bfOIXQ3yAoDUDIkAE8/+2uO3TYtH9rgMJJQNvDYe4nhtciAAoQ6BjoDzALhddwaYqLMwURCOxVflIzlGLTEt21g6lFOO8/GRGMu4evvY0HEnawCXqgv39cSFnJkvhs2QFn9c9SJjvsOn/aG6ELZ2rDEzfKhbYghA4E5Hszj8rpsFIOWKPho8IEEQ+eoD6kMr7aUQoVYkN5J6a5AyzuNmbTs8YusBiLY1xPq43jA0szxgIi+57fHbYo4yi9lAClZyCWS0k5x5x8ygo26nEIACzJ4WcXhHH3PvhwAezdd8cPao3N0ZNJA62inh54E4gePv+cVB3bygKYc+UpaCANyuKQ6r/9xY+8ZmIINbO0S+9xEbIhATAr2i50QTG37HzfyahdSLYJ8xMUBMwyXpIh6o009jfhmXxCOWTjBRdMO+xp1uCMSBrRy4lycW0JL4GjBml8aqfkwGsqRiyUrIW10QK1G8DhHgCPCqIC3iyK6ugBMeXKLqD64ABucofiNq7Wb1E77WePwdyIzTobiyyMAcCDC24I4nbpkZizIxGUiYPV4WCzG8BhEIh8Ag8bU1BobeGRG9jeHOK3GMJ0nBgshKIHs6zS6WCsE66q+88E3/brF5uzvQeoAxv+aufOWRRg5yImARWEyzyCkN5PTfV+dBcI6kND1yKoS0jI0AREv42plrX6s4ss1LlE9VJwZrF2JwjtJ3DQ/W6SDqBevwuo1e1nPIFWh4z89GepXWD+mbEwFK2IU3VN9gn0q7KQ1kwMHWQ3DOlNdNxQjPIwIcARfz90M+1+08C0+AMcVqJwWIEwFXCYF2FaJZYeslg1y6J9xiw9tesfsYBIDh249K42tGNuBgyix0pUw58ZsyHQZU0TrPjAChTpoiwHgWniHibc+jKRWZzFopUEG2lzCYZUBBZMVsr6bA6ZE5r/LhpDao8+FTRDzIodvtETsO4Z5GReBNWqJMYNy2bYsGgCXayRlPP13KROHWaNfgOURAKgJ8VuBk/p4R4m+2EmqzUUsWrGYlvKAlMieYSDSQUsdFSj8bIJ5D5Y3DEpl3yMu69oFxrGHELy9xKUpiH1MhAEuH01Zcvu613X/eHfHNLuoMUvQL55gKEVRGlwhALlcXrE/utRNvXR51zEuj1jKoAC5Z1tHkAJK7Y0cJCHTC/LGcDcDrjfRxC7HlAThesfeonw206WqjpQRcsIt+EQA3q82aMsyT32yNJGVUAwl5AWLeUBmJAR5HBGJFAIJ3RtqZ81MHEWrzSAoYSltprH1D1wXdq1jWKl7YEr7eyaxkmNpJRgJuVohGdXoZGEbS34K1GhMeEiQQAwKMBm1cRAMZ8XWv9A9PzyBWy69j4IGXIAKKIOCg1sw8ap+bSm0lsbpeeeYcH+tXRB4kGh2BWXSQzIZPvI3PGH1if72f9DWjYYwXPbw+EQTAU+UnDs8tv97wXNgyaJFnkDZwr2K97USwx74JIsArhbQx/yc2KqTm0pTZGdQ2Ewxl5HsW+AWgEBM2bRDoZGlkNpRTjtXNCoFUPfAyc8zHeGo4HeWs0wY+5KoBAvBCZhU9Dl7j+K1w7CM/bBhZG64DHkME1EaAr1F2MuehHkJqc4SUmZnEPttCJ+c4G41exVgOtccnxI+nnnOCmzVaNCsPzBLZSBvUaKyH3KlgTbEhAtoiIDCRr0OGNZBhXawzn3oq1x+wbdZWbOSOCIRHADb5ClnUUZJJ7TMd1JIfuooH58CDN3wnPKoKApXCAJlOJtfP5lGofjbc5BP7GiE/Lm5SVWU0kEksCEBcmbtweuWXHlz/4KSMTGFnkAFmh9yr6F+NBVy8Rn0EIHhMHGDeFv6xEyE9R3DMSKfWGbC1w6G+NMhxPAI9zEGm01EDOTpbdHZBbcbGABnowPVFvFf0iACv8NHZeLQKZNs3Ub6wBpIxcZUM29Em8sK/EQHZEfAScaRTdB2Bt8CafDZ8JtzQWeB+BUMZ1jkiO38keDoCA2AgA4S5RDbQ5CO9TSLz4aIw3iT6R0CwnAFCTjKQk7OXVFdbCKMr9K8RSogInEJAIAG7SP2il/r7ocRWl4/4BwNE9KInRJ27RGSi6GcBJ6QS7G1k/bs8rOMoGkd1sEcuiSMAr9PgNZ3cJhnIErc4Dy5TL/vwZJnwCCIQNwI25skJdWKUiVAJ0uUl/j5uLL0QDSsShsYyblSjdwBMAeeA00P9vR7i6/bRwJBIma+X5WRH74lnEQF9IQDu//J7nrh1LJ4hJN1kFyu1rMSIa30NHkozNQI26s8KdxU3luDyc8Js0kkZFcD9aheI4BAItVNCJ70ghqOBx0II8Dhh5gM8PTBj9EJKBj9s6YC84XB+XAadAZLDX1YaETdEwEgI+AWRzyJPi2adZCApY4uNpBTKighwBKwkkDkVEqMzS57FXHTDSyBYR8HKjeWo0YRs27huOQlCEQISGBU93F3NjSJkHhmtohFc4g2/zuuhDoeHOWwO4omY43ISIzyACGiMgEDZIhAhioHcuNEKL4Pzwt/2GkuP7BGBCAhYmS8VJjJRE+9P6god+GxIJAEfj+2GF0OB0qDBtPHZJf+ONXvPJNqGPRCcIfrh/4AL4TNEn0gh5ibU4siz2k9zMopZR59hoUDBkw4BePXjkayntdNcTGVzFs6Bh8KURSQnEsG/EQEtEbBQf0ai/PnMiK9TwprayOjapafLTXw9fP0yQAIubiwYbMBMlI+e+oNvNBBgAY+Pgc7MB8FN3i4P8fdAZPAgrOG6wUieMo5xCj4gZk05o4+TJF6OCCiKAPy4S+57/LaxWAbO7DQXK1ywUFEJkLihEMhxWK15drutYcTlAkebbmUH92rCBnKScjDDBAPiD1D4hE6Cs5HXrYSXSBtlfLZJrJDL0UIJLG1G8jdOIqz2geASYWD0I/r5DBHcpnyWGAi6S09zF8nnOxoSsjLM9Tqh9rghPy0Q8AkebgM/DPGeYCCFhfL9RLRQD3nKgcAXZ88ouWd+5YLCFEcwmrnT7XZ+75MDn2zr7NZlFnArSXwGGRNuo25Zbi8DhJ4+ueIuWgKGEqwnN5jciMI32NNgIBCcC9pWMKeQ5SAmXlNeFDR8/K0FXl3g9YV7RyFnFvwBEz8WAEMIAsI3rCEGA2nGt6AEMokRQU4XS00TiQWqYIMo2BABoyBgESIaSPgtMzip7A/HKDglq5zfW7qw8tY5sxaM178oJSXtsbUrz7pt+873d3f3Tc4jpiFYMAmyWIiYoqEIQdajwSs8YpbXewrjmeQ/KzBT8MVX8oTgP6ET/Oj4AuhJwzn679HfIDd/YHb5RDbIIBRbzv+m3A6CqR1n+E7Sn4RDHOuGk/omcICrBtGs6bmsR1f3SwIqBbvOK1yYU1W6rHDbsbebuoc6sSp3ooDqrD+8Tp62Djm2BjntD9UF8GPN05m8KI6KCCzIzky/cfZMvg92UrMJgvCtqnm6c8HbmE9+9+ok7eU7wM0eX9uDbz8YPwiC4QExzAuuXE8gGC3K3BAxCh/4hr/5ueAHruXXwzoo7zd5ViifiLJR6mfgZjVRswpWesvaO9esm33+/Hsv+JcLMh1ZEPmMzVQIUFpxx2/uGBvXMQNptQbmmEpRVCZuBK6bNb0UFtVOC9waT2RFXm5Rhs0aX7Ro3FLE1wFmj6nx9cCr1ULASVLT1OKlBh9uIO0WR/DhabfYran2NF39FtTAwOw8ePkri3V4RkjPsYehyCzlZlce9YuOwOyMjCnf+Bfl6GtWYCF+Uz2Eo4+Qsc6O0DQcG2MNGUoLCDDbKVt4arYgsHJEJ7kRsEEYyVQI5Njtk5JLTNVHyfMWEsAZpJIAJ0Dbw1JSIHJoynsqARZxd4WlUV0EWehFjrgBTIIOFkEsD6k5dvPC0v/YwSTAAFUMg8C+vv4pN3YfGxzWT3UGnjsODWSYkdTJIbBFIyRD8wAqjka6I9163Yqb5v/4s49ePqdwnqa5Ykuzp6dxOb60+iuLslJwHVMnd+uYGLAhenboj6CBrKquhryUpExvgqI86iLwm6PHTnS5PRGL2R4fcQ7UDg1HPK+utLAJkQUc+CauNurx8Ruimbpws/7Dmq+tPHPWOXMtgtXymUXXTcqYEp9WiV199dIvVHE5lpetmv2Vs+5dnRg17C07AvTUZDFoIAc9ZOZo9LnsrJCggRAY9vkDd328e0ez0zUpNB8Scfp/vO/QAT2pI+D6o56GI6wsw6I+1iGzU3LGDHVZzsz8C+ddDs889RtEwJaU51dOC3EGubBykvrDEJ0jIzmhjDpBAwl7lmZF74FnkwWBg32Dw599e9v79+749KN2l3uE6/1iY3P9Z7e+/877Hd1TumDVxMmKEaxqwi2Jl5Ok6WKNuKbjYOt4BS6cf8XCgoxCKKytXuPbQi5b+LnTikHUdh1uU08C5BQrAh6HGHyBChpIkQXG3mhiJYDXmRcBlz8g/rW1o7vH4wmuN37Y1dN9Ysipu03RsP6o6gPOvCOunGYeatfFGL124Lm6fmfvcEhTm8Vuu375zUvi0dztd4uD7oHgEkNADAT6nJC2No527YqbqmBryBgeI55h14t7njoSBwm8VCUEhIBYzFmNBumIQvAPbIiAkRCwUBET6+t8wHzUYddDIKsv4BNf3vf0XoBrNDMR/GN2wbxpa2efWxIPhHubd54A48jeOvLaAU4z1r7Lpp9RUDVt6dj+Ot7vz/uf3+/yuXgxGWw6QwAScwRtYjBkH3JEFmGRZJ2NEIozJQKQUMaBmRGnhEnTC3g+PBez21OJO67ZlhJCH24/0LevZfeJpWVnlIfoX7bw6sUHW/d2D3kGY6pd+X8HXzy2tfbNxhHPUEzXcz4OW4rlM4tvWDpep6Odh1o+af64Uwk9kaYMCDCwidBGZ5AsgDNIGTDVigTPiF2Vk5W+LDc7k6fH1nPLddit64rys1OtlgT3x/EtHgxTfel5sE/K5iZpupnpv7jn6SPDnqGxrUpp9nTHujnnxxzBD5lWWDzGkUOwatZZxVkp2WNBQh6/y/v8p08eNMDQJa2IkAL55Axy61Yrae7Kx9I0xrsXHFYL/c6i+ZU3zJpRYRdo0BvAt2J8ZfuuHS0jTo9UjbiRneZwOFItliDNAofDzo8lUvIqBQo7/MfKJVVXlJXM4im5fbDw/YsjtQd+f/RYkxQ5BSpy46jvtwEpipmwj4ulOHIJGVv/01JFl2/E//rBF/ZvWHnbmSE5hr2Dis5uh12nz07fPPzawQFXn6I8tcTYDLwh53HQQFoKLr642MKsnzODUsmkAzdYfzxr1arLS6eVW8blT82x21LWFublPnuiuUnKS0+mzWLdfM6aVd9dvGApzPaCm7zPKSooqcrOSn29tb1DCk1O47F1K5ddXFI8kxvH4I0HMp9VmD+t3+cd3tc3MGlbyVRjaSW+NAf1FUx1HZ7XHoF04nTmkv64x1gpydsGWkZKsqY7ijKnZW8/trXm3dq3msRE3v6mELRzuM2VnZojwPaSvNrOI60v73vm6BRd8LTGCMD+6tQVl6993pJ3w01z4N64SGN5kH2cCFw3s2zaLXPKw1begBlfKtRwHDzYPxj3W/s3Fy+Yc1lp8aRtP7Mz0rMHvb6RvRKM2UWlxXl3z6tYFE7FRTnZ2U8fbzzBq/iGOx/pmI34M+3UBxMTbHpHwE68nkKir1qi+1s/6WobbOl5v+7vLUoax9DYwHaOXr/od7164NkaEVK1YNM9ApTZ/X8XAgGmadol3cOkUwGvnF4WNfoOCh4v5C7YeMVflJ2ZE6nP1xfOrSpw2ONe9zunMD/iTC/fYU9bnpeTGYlnpOPgYtVVTthIcuJxKJBJrXHfM0rjxtcSD7R+2qM0nxB9HvH695rXG31+X1wvgmrJh3wmIwClWrKsEOiQhSM2GRy9H5mRlhLVqBSnpKTv+cwlV8JzIC5VeNH7SB0yrVbH+5evvwwoxkU0Gk3Oa0FWZsaHnT0DkfiGOw6lgq24AhkOGf0dCzCr4V9mUm3pVkgskJKXnp/CM6sMuPvcvc5uDwT8eHFGqL97Tg6JoB55lhVKlsODNq7nnRy8kUaCCEQ2Y6cI8/W+KPZOkgScXmgdURKBMJ3SYd0zzOGoh+DFDmvxRUVIPyd9JP7xjSZ9ef6czIvmXVm5r/WT1p0ntndEu1bqOZ5lZ1nZ6uIF0xZPg+TieVbBFvYe5Xsi+129ww09dZ2H2/d11nQe7FVqlrhy+pqiqpKlxR80bD3e0F2nmzVdqRjrvR/1wwySwQwy4pRB7xoksXz7+wZ6Z6SlZUWCwC+K7Csf7trm9PsDka4Jd/xfliyqWp6XHdwDFK5t3Hto16H+/rjWNu+YWzHnktLiiLkv6wdH4k+Aji7WcMOjy2MBCsZFxnfweUWL8uYVLyrjn3MqLup968ifa+Ryly4uXZ5/0fyr5nOjGAuYFsFC89MLM/ln1cx1FeBK9R9p39/y5pHXajuH2mXJPjW/eFHuZVVXzy/LnhFcqhjyDLjQQMYyOoldI1poJhSQZ1ngMkiMEvZWHYH/OlBTe25xYSm4PcPuMXu1ufXYx129cbktuRJ/aWlrjWQg+zxe98tNLR0efyCux131iaamSAay3+t1v93R1R0vgAKDNUid37Z3LlyW8ZvDe+N6mYgXh4nX3zp3Udrm2oPxv3BMJCTj334GM0heFlKm4JT6npq+c/zrvQ5rqn1aVmneLWfesa65v7H7zcOv1kDOVUn5gsvzKzKvXHTtwll5cyK+HHJI+JIFeFH4/R/27rNZbNYlZStnVZUsm7G/7dMTfz30Sl3vSLekLVeVhfOzL1149fxZebPHZPIFvL66ziO9Mg4PkoqAAAxwliXj2hsuB6dZ1ICPCP3xsIYIDMPM8JPevs6zCwsKM2ynG8mt7Z1N//zpgYMBMS47FtRm78DAYD6kz1wAwTrjt4/wCh/f3LVvd5OE/ZWNI053jsPGlubmnBas44PFm+/vPbj7SP9g3A90B/UUg5s17MuBhsMyxpobx3+Ytyj9f2v2BxO+q9UeO/eSvHbnSKB2sE8/KczALV9KWjstMlnIvpEez4cN7x6HWZu9OKs0GFTGN+KvmHHmzHlFVTm9ru4hfk0smAtguK+ouqbi+hW3nJGTmpsxvo834PHVdtW0bW/YWvd+/d/r/n70jdrXD7x4GIJtance33biYNueFohObYecqk6HNcUCSQdSQksaUHucgvHOXTv7vFlO7/AIGPCYX5Rm5s7O/MKqLy+5aP6Vi3LScseqfRztONjyP9s2fdwy0KTqPRULjia9pomWbH52ExjISpMqaHq1eKTq6rzc7EfOXHFmhtVi/8HeA7ueO9HSnui2rsIUh21Vfm5OXordVjs4PLKzp28gUZpzMzPSfrJq6ZLF2VmFb7Z2nPjJgcM1bU5pKchyaP8SgYi6KMY78SYLGUd+/KxX/qTIGtlEnqG/t199Y3EAZmrf/fi9vu2drbrZjL6S7d4P+yFlcTmO13359NWFn1uyYVm647TCzOwP23/5QU3nof5IOPHjdqtduGnV7UthnXH6+OvANdr395r/O3qgdU83bM2I+S0zJy3PvnbWuWVgFCvHJyXntHee+KDupb1P1/A1y2gyceN417nfPI+7bkPX8cw7rx98af9HDe9j5Y9o4Ml/bju4qahDzvUB+WVEitEQ4O7ObZ3d/Z6APwAGkuzrHRhK1JBxflA42fdGS3tXNN7xnuPFlltHXE4wkAT+PSTVOAb5MiaEd3LFK5W81483jvJSjp0aJC0iPz7z3Jx//OBvfQf7emLOGRo7h/ivFEmiqQXD89zTvLOrvqvm3S+uum1xZeHCUMo4+pnF1y2qefvQB+F7EcKjUu8694EzuYs2dM2wZ9D5t5o3Dn98/L02KZGpUC3E+5fDrzS8U/fXxovnX1XODSWvGsLpr551dmVxZmn2/25/dCevChJJrs8suX7heON4vKe+45lPHt8X64w4El08Hj8C4EmHBGVsNEVZ/N2xByKgHQKjwbTa8Q/HWQ/GMSSXw2KhD629IGdmRpYuon1FplySYJ5o/HcfPPrpK/uf+cTr9wRnzWmOzIhltnho921r714x3jjyNcyH3/7R+x8ee0eScRx/P7h97sCfD7xQ/8t3fvp+z0jXWLTpzLzZhTevvn15tNDyjJNy+0Wf/y+HXt732PsP7UTjGO7XpsIxxqPLMOGzCkgjC7kRGI2VkJuqdHp6Mo4hLbLtDuGRs9bn3v7em709blfEWYt0rWPvKXKXYVTnYuy0Il25vf7dVqjY0TMrd05W88CJiNsgrlt+03wIyhkr0ADbMxqf2vX7/XJvz+gYanX+8p2ffHDrmruWz4HSWlzuucVVpdcs/dLIi3v/VBNOj99t27RjVn5lVttA03DHUPsxV3SJAAAgAElEQVRYUvVw1+IxxRGwgZsKKyIoDjMykB0BPc0g9WgcQ4BPS023PLJufU66xRY26lL2gYlAENz+CVZviUB4wmE+2+Ju1+6hzrDrnetmn1/C3Z2hbrUdh1o37/jNPrmNY4g+r/f4++2P7j7Re2xsLXrN7HPnnl1xQWk4jfpcfUH50TiGQ0fdY4wynkgHXazqwq4Mt8MDw70H+we6XVDpXBkO8lA9PjwyzOVsd7rCPsBi56KPvUl6No4hLCuycmw/W3Nejk1Qzs051bgFqFVTA83lS7GmCJcs+ExVSFbu/nxy1+/2SllvnErf8ed5YM4TH//6015nz9is9uL5n6lKgTqR8dDBa1VGAFysAng9dJcnUWUYDM+O11Z86OCRo/++99DBAa9XP+H9E5Dlcr4K+yh/sr/mEAQWSdqvFiIJO9E0f+AawTiG8FpRWGz/tzPOzoK0fxrd79oZ55DCFy24ohyiXVP53xCdKj6147e7+HqhGoCMeEb8Wz7+n51gLIP8+JaQy6qunqMGb+QhGQEbvNZxF6tWPxrJgmNHQGBRblbGNxfOn7e6IK/YJtDg2yjfyHxkcKj3f2sbav/c3CZrFKpU0KFcVs7d8yvmLs3NLoRZzJirDfZHDv6+7tjR6obm9rhpBzPeadeMZBxDKK0vnZFy3+IzxIf374q4PqcUoiKB+tYatnRHpm3t7PPnhkTY17K7oWWgWdX9hK0Dzc5Pmj5qCLl4z5x1TiVUE2mUmkhAQziThDXMIJNEU9Op+aXZM0uePXft+WcV5ZeGjCNXkm9UXpidlffQqmVrfnbG0ipeN1LLBhVAyn9/1qpzzsjPBSN+yjhymWamp2X9+7LFq76zeH6FljLGy9uIxjGk4/Vz5qXxbDvx6pzw9cHkM9q1s+esL7NbHEFvGcweIUL0lXotpHkD+PIEBJy3VbBazq28KGIKRi3kQ56nEOAl4sHFSnWxTwoHJnYE+Izs+0sXrrROsab0uRmlc75TpZ3xuRjqQN4zv2LxVJp9uaJ84Zqi/Ih5ZcP2hyTCYY8rfNDIxjEEzV1VyzKvmjFH3SQLTKY8cxLHF/KZBqNIedvbvPPEgKtPkyQKI54h367GjxpCsswtWDgml0TVsJtCCMAjxs9XzrmB1G3KLoV0NyxZPiPcuLxq6VQlpEIK3lIxa/5zJxpbjw05VQ8Zv2/B3IWxAM1nvXdVzqn8uLPnk1iu59dAiA6P0lF1eizFOPLMNrHqpOZ1/7T8zOw+j1tUK9sO1O/U6JWGEO5eheTj+SF89zbv0jQjzd7mHW1nzT4/WOy8MLM4uyCzKCVS1K2a9wTyOh0BeNb6+DYP3QZ14IBNRuDSkuL8aFU8JvaAbPTClytnq+7GgVyuaZVZGbkT5Yn09ypYR+VBPJHOTz6urs9OinGcLLN+joSy7SzKzVclSA82XGu2D3NZ2aoinhuVo+/yOb1Huw7HncRfzpFr7Ds+xLP2hGhCGStdvkTJqbMhaYnEB2Vo0MVqpMG7aFpR3D+mNQX5vE/YjckTdedG6nMzyoouLimcVpySmuYQqLXT7XG+2drWVt3Y2hprJY+1BfkxlQsK8efrqMvzcjJjLZwMsUhQtnai9Mr8bTbjGEIplG3nzvff6m0cHlQ2mlOO/IcSh3d2fsXYi1pjX0MnBLJp4p4Pic+3lRzrPtq5tGxVOT82I7ec/1ZOSFQPuymHABjI4BqkpveLcuqZkPLC7MyYZ2Uh9WekpWZBxQ/LsC96bUi+ZvivSxYum5aaMlZBgNOYlZGeBZGy026qmD3nvh2f7j4yMDRl9Y2KrPTTKiPEMhTzMzNjNpBgHFW5ac1qHEPjoVa2Hajkocp4hbvP8tILxu7nnuHOmKtqhKMl17GucXLkpubH/VuRSw6kExkBSG3ht0K2AL+6zqrIAuGZqRHIttsi5piM1Juv8RWnpNiHfcMR1yGvm1U27cFli86IFvhTnp6W/YezVq+7advHHzQMjUTd6A91KuN23YFu/7+9LwFzo7jy72pdI2k0933PeOzxfQImBoONIRBnE64wYGwPNhBISMIm++0mm/8exMlm978Jm+yuwRgIh0/A5ggJOcxljDHGxvcxY49nbM19nzpGZ9e+ki1ZI7WklqbVkkalfBOs7qr3Xv2q1K/r1Tt4q7bzjUuKHeRkV45uXN3Zdr7z6QdDJqc9KooMIdg2RUBZIVege+etmVGVMzUPTgt4TfCwIeQOQDmqfU0ftvOtlVSlzhX7SD6jlpGYOOf4ymWwjHrKcaWq03gdpki1kW8tqJtRkTUlF37DgcaOWwab+988sb3eKlFMp+9YJu13MLEC6Cjog27SDj5BB6aWywUrEe8hZqkuVxXgG/YciKf82bxZC4IpR3c/oKP+r2vmzQ8VPqKWycLOEqKRQWFdoR944gptGkm7ZFGObmyinW1Hhp0Rzdft0++aAnUeq9KhViOp+cj3l67OSJ1VtIA3dRsZnxyKGLvHCQoyLp53o5BSzi2TkuV/Mfz6rHunziteVEnGxzducg3uaecWLyq/c06ty+mHfkREACErVPPAkgcNiziEpCKVppBDsiw2bMVDQMpPUQXcef7r3FmzIUZRMN2Z6Wk598GOMxD4pO5jVVpqeGEbQGxhTlZ2MEXuzQ/Ck6LmXJZsytGNazSz7ShRZBme8tLyBZkfQQny7rDI2KB8lOee1SFN5pxAvw33dQtn8axfGQspP3k+uboCQWMnXXNSheHEw4ZeCoAATMoo1IMEBRkfaS0DiEkvuxG4rSg/JxxF5o3cisK8fL7MOnC2mDYnMz0nXJRXVZRVBsqA8+jUqopwPG3dvOdkpOXeXVZU8NIFfVsoeeBEy3m1pGyo1sLvJ6tydCMUjWw7cFyM5Tj4+XegGdp9dOvZmUXzusFMqoSwX163LI7DuHXoYkDPVHCK8Tgg6VIy4iKkTadM87ywkrR3fON//ejLp2cWzO3Qhhi7yWawn+s5O8BHg16LHAE4ERiVY4xGeVdd5HRpzygh8FF3T/8/O2c6wHwp3BR5RZa/dvbwxn59tSg/bK9YQrImTZelU8jkBrvTbyenkYcvnxuyVLlC0E4WIxb4RtfxMkrTmHRkZYzDb40IBYHUejx0aX/4qQi9GNidNs9CSVPpeM/7hMojVrt0TaZHQdqh9iMf3dGxEdsXExw7H116TRgCoCANEByERoU1p61ijcCw1eH4vG+gM1w5+q0QptHVw/uGWZOWmh4uPdKeJCqYn5Wp4+t7oK8/4hywe3v6+vlo+l3DREGK/3m+4aRxS+NZSXN0ij+KyCnu7Wyz/PeZo6Ieuyhw5Aoy8pFc7WmyGzzOaWnqjIBHDe4eYJJFS6fcUlxTMDssj/Hq3Jr0m6tvLSGORaHk1ikzPIrabDXGxbloKJmT7T7ZQbIcw1EFmUAzv7HhQpM9zPo8kLi8MVAYWrpSGbHJKQ88Y/mge6ets7vZYAy7WseBvsGOU4PDgtzwIfl11LaPyaokj/f32H529MAoWCz5pjXia3Lkb2WImFgEHYdMQx4FmaPN532p8yY7u3hh9t/MuW/BHTO+OT0cdrfUrKxeOfve+deWLykM1c/7bHV4bChk2FQoevS++AggJwc7SMSK+rYovpiUojcCJAbx7LBB2C4LOlqcnON1fVvAXSfJtBMpwilyfscekkzgsS+OHRm02gKGlfjyHLU7bD89duKs7/VA3+HYPCo7SDe/ZFOSzaPD9h9/8ekwvHyJqx0BUBnmNyEGmluxr7cP64fdNEszy3NUClVQM77RejkUJNz4xGxNjkv5mqzGoKEkkKQcVWRVe442OodbPfKJPXZKL3IE4Jcwyso4e8DD7chJ057RRODX9ecabF6OB8F4Pd/YXD/miMzFPhhdcu/arExPfkvfth0ms/VHR04cgaetoAfus+eazvaO2YI+WLx5YEYW9ST7yaIku8dMzh8e3DscrRhIFXJEfa5815/397NdJ3vd38FjVDa3aFFQp7QOyCsE7bFaqVFlaLJ4rSS+/EjMIphvXQkJSCo53/ve36cXzM5SyS9XFiHXz3ZflS9YP3pPWgSUWDXMWjm5Z/FIy55yixSBo/1Dhn85cfpoKOXzTmtn83Pnm1sj5ROq3x3FheXX5WYFPMM81Dc4cmpoJOR55JmR0b6tl1o6QvHzvu9kkGBlGg5d37aTXUkO26zcDz/fOzRgGeP1pPTFI5LvCjwmyVwFkq3X0G0ZMPV5lNbsooVBTaAWh4UbGRt2mT1LMspDmmRJu+KMMi3J92p1jNmgUognxpFPJoht9PA3Wg2WlsGLQRUqHw16LboIwCGyszvVOMj26c+CuU7kQ4foyk6pAwLvtnb1DlttQX+Ib7e2h1Q6Rrsz4rd7MMc5283moA4GA1Zr0PtkMqGKR3+gM9JAk+1kZJI9dCerkrQ6nfjvYecY7TysGsYadJ0GmmMxr+sHmjwbgWl5M4qL08vGpVP05TVg6nUpLagCIkhBFqaVuuJ+B0z9hmAuAqRyx6zC+aVufvqB5t5g7X3lot+lQQDirPt31+52ssyGDQ4oGiT4TEsa8SgXMRBIE5C67fTI8GCkvP7a1dPSabLE5OHHYdYOxltB5ttIx+fdb7IpSSdkfvunw/uH64cHI35BEoprCjMWkzXiLR+ES5A0dK71QnZ6K+fcE9QBB3adLgWZl1ogSEEWpBe72vUbLytWb97e//6bWfdOI2Ze97XD+v1Rs/AEkoFeF4AAYnpIq8vxdBiRL7kCutEmcYJAbopKAQnIg56PTEnVpn7EMEEVIHi4ttxfXjoVEhCE5azTZjaP/uLE2cbYwYEwh1gby3Ah3fbFkpEoSULroWmzgu4+vPkteXen64cm1Udo/cn/f+LwiFS1INVMbF6ivDGHKh6GM50n2mYXzXeVfqvOqSmcAWEcDd1neL2te4ydLgWZk5onSEHmX8lk02vsCmgurcquTptRMNeze7zQe67zfG89ddCR6scRBh8Wc67freuhiFmXgqSfBELg7WVLloZSaj+aOW3OLMizGmxYXWaL7S8d3fpgbfju/erM+bPgeRrUk5Tka81NSfEkiuajM5FrHJbmHNJbxsmwk9xcf9Lwp7aLIU3fE5kbd1/EcJySsQZdJ2LwEULjT2ffOg9ZazzhQZAIfFGmNpv3BatzuM2l6LJTc3VC3h2ztLkuE2vn0OV+vvKQos2rrn1kEVx3xUhymOP+eHr3Od929Ht8IACLxGWSd+0godg3ddSJj3kJKEWVTqN+uLqyfG5mpqvOIkkaHrDxlRvwS0S/WTRvoZXDju6xMfOW5hb9gd5+vzfWX5w623hjXnZRlkolKMsI2T3u7e7125mq5DK0qry0+JtlRSVyqLwAGXUUJRp1yDfwu8qKKpbm57rc3o0Ou/21S6369zq6+0KdS3KMDEx3zpD0Q+EU7v1IdpLh8ohW+zcvNpq3XjgrWdydElskOysOhdmgqd96SL//wg1Vy13m1VTIqvPQ4u8uenbff34BR/HjnJQ6httMTs6JlTKVIkuTreo39gU0E6coUmQ6VZqG0OTzYCWJB4DPgrSUy16upN2xtkOXegydks1DKGzo/fEIQADbVRMrPEi7JTvMoTMRFgKkRuNDVeVV1+Rk5ROF59250zxmLNKoeXeIJHtOukKRQmo5kj7T0lKzbsrPLblkNA/v0rfqt19s6bBfiQgn6eL+q/7C6V8umH1tKOEMDoftB4eOH3F4RZOTIsuPTa0qu7+idIqv4m4zmQ2FGrU2ULyl2em0O6BcEZHPzXthVmb+D6ZPHd12qbVpR7O+C+KReJcnmFgDPrRCjWOi9xNRSUYjS04oHFOY4I5kofqHc58oqltrvl5RkFaS7sR25ysHN5307Q+7tmZwvMmozJ7qSrZfmFac9cCih2fvOPLiKW9nGaIwRyxDxiyIbSxOL08DBRnQGxsKHqeSknIQ/2ghqfF8ed49b1VNeVZlnvt6+3Br/+9Pvca7e1x97aOz1Qqtss/UY/zw3B8vmqymuNh9+45p0n93ylzpDV0mVruM1U/6ASfYAEmB4/+9bsHcZ65bsIQUK/ZVjmQ4ezp72upHRv0crIh36y9PnzvFZ4KtTNVk/GT29Plgol1Sk57qeusln7da2nv0JnPImNgXGi82eBdM/kZpYe6eW5cu+27NFAju8t/VgvKUPXHo6MFhm83PpEd2ous/O/x5hlLpZ+Yq02rS/mn29IV/vOXGJYsDhJKAJ6vgRATucYr530Qyt0YrS04oPDV4LOq7pBSocXPHjDsr//H2f79lafWtM6bmTS8qyajgjXWE2pH41S82HYfkAR6FR84lV9SsrPAdy4Cx32VmLQzhyVqUXuZ6CR0aG/A7f1xStbz42vIbqt20u0Y7Bl8++MxRu4O/7mZRRmkmkX9J5c3TfnLbL1d8c25tNVH8vrLR79FFACbS5TzlUpA5Cq4d9iZRi4OK7lAmH/UcqN343i03LoVE4i6HgkCfeVnpWes+O3wE0rp5zKYmh8P+ncPHvsgPYS6dmqbL3HXzkpt+OndGtfxKlYQxR/AzRSIHFEL2JEr/xYJZ03+9aN5iSDnnUbS+suaoVJo0uUJ+36df7L8wavA4RBzo6e+8e+/nB2ZmpKeqWDZg8vUputTMV2+47sbvz5hS7kvbgWOrIIk8iaAko5klx3dOfL9rWVPUFKQCSlytmL6y/Me3/eKW5TV3zFLL1Z4XrY6R1gFfWdzfLVBYePNnvzl8qb/RkwR9xbSVs2YXLcj27tNnuuzJWpBWyGulcbctSCty3e8z9IxTkFW509K/Pvueee52HcOtA8/tf/qQyWrw22W627QN6j1yk2QCxBxMFP8dM++qJMkIAo2JXhcPAdiM9G6r2+bKx+wCvL621gZWrpAxc+KJQCkFQ+CHs6ZNKVCnBP1Rkv6zMzKyrRg71x348hCJSSTXfn7q7PETA8OGhdmXzyqD8SGKaUVBXjGYQIN6w3rTWJid4XmIaORX3dWD8QHTa3mb0Wy9b9/Bg42jxsGPu3tbHz109JjR7nCuLC4oDtaX3CO75xUF+X4FcWEHCcOPfQxvPCvJaGfJCTV3adzVROGh2oZzH4oo5/7jV/9t2Venf2OOVpU67uy839Q78s7J1xqC0SM7uNeOvnpqzG52nZGCiRTdOff+ed5KqHv0sidrtjYvaG3TnCv3uw2X2xN65Nzx3vmr50JaOdczFpyDHK8dffmEFZRzMLneO7O7sWe0c5xnLVH8y6fdPusnt/3bLddXLvUkGQhGh96LHAE40bnk7u15I4GUnJ6LkZOmPSeKAPH8XJGfVyKEjpJF8hvzcjKJOdZdJ1Itu6y0ZmemB61E0D1mMe3p6Gn58dGTx4jyEsKPtJmbmZFLzhzJv//5+JmG9zt7Wq0cF/ScZFF2Zj6YTFMgLyxHHHfIgSJxwCE75QXZmZ6zmWAywE4yw73TvdoOQj1ibGZ1yxKPSlKKLDnB5gxc5bGaNfmZ1oP1EXKPeJ5+a8Haa1KvOMa4+wyNDRreObnz6NMf/uyzIdNAyDUNGW9s75/7wxl3/7SUdA0o3Er39/bBFteOMEubkxrMkxXuuxzFOodaPTvIZVNvLwXF6ckyte/C+w2wwwx5JGC0Gh2/+fgXB3Yd23KYKHpvPIhT0Tfn3L8gX1cU0GLj3Z7+O0IEWKR39/SYtuBRo8cMe1OEJGk3kRBYkJmuy1QpBXmTEpZLc7NzC9Uqzw9zepouLU+tHChSp/h5d5LE5Z/29HW+2drWtr93YMjtJXpTQU5meWqqGpx6/M4CfYcFVWtlfz+rZsqZoZGRv3R09T95+PgpUJhnYCeY97XiosLrwJmIKG7vfqQ0Vl11eenmc8164tUKzkGut+h7yksKAznv8PGdn5mpOzIwOK76jJORm2WMLS4eGPHkuCNVlhzfefL+rkKWMTYKO/zZhfNzYGfmOZcbtYyYP73w/vnPL+3rJJ6nwWTyvQcJBDrnF19XXJ5V5fKivr7y5qkfnH9Pb7Vbnd2GDjMpZgy85LnaPHWPodtPwZHwDaK4SN/W4Uuu3yFJRg6m0Ro3L7Ij/ODce64zLaGfo61f9B5vP9y7uHxp4c3TvjotU53l+j3DzpSdV7Io7/2GTr1QWrRdeAhAFQ8Ptp4HGeTU0UPtK/qJMQLXZGcF3fn5igcOPDnpSoXCfR3OFtOW5uWNozFgtZl3XGppfrW5pd0MZk1SBBSSCGjy1WrlnaVFRd8sLaoi/YWU0XJAtYfVlWU1DLxng2PO6MZzFxqaDSbzH9o6e95q6ejWwG72wcqyIvC8rYZkBp6A+q8VFZQ1DBtcyq1Ek5KmAK15R1F+SPOq93hnQEynv4KM/Tmkt4zxoCSlzJLjux69v2uwOSrnj7CbQ5ArFbIk2rijrQf1+y9+1BbI6SWYfOQe8Vx9v+EPjd++4YcuBQnnmvLrym4o2N/8cQdRtsOwKyU7wZLMch2fgizLrHApLqN11EzONsm/55VckwtmX8/L5ofn/nQ+kqMAItvBS/u6vtB/2n3jlFuKQFlWKeUqGZ/DHuFLP+IgwDEKjzXVoyBlTuVFjIJaysThTqkERaBalxry7NGbQBWYHnUKuefHWAlhHaBkPSETsMvT/7/jZ1wVPaan67Tfq6mecn1edj442/jtFj/u6msr0qo1czLSeLMq/RlowQ4xjzjeEBmIpylx0iH/HnM6HSQx+euXWltfarrUtqXpUvuaqvKib0+tmk68W7NVKvVj06qmkbbEu/bWwvycGelp45wiggIDN0s1ar+dohPJovIQDiVLsPuxVpJSZskJhoMWgYNOWPu5YNSu3tvX+EE7+RPWOnSrpr7zI5AwvBd2kS5z//zSxaVEQZJ/kyTnREEWppGcrIf84sWL0ktdv1cIA/FYcRaWXe/JlgPnmINnuk/4eZqHlupqC6Jc9zd91EH+wulH24aPAETrWPKaK7vcPT1nkB0P3QPeU9yEJjJ8cWgPXwTKtVo/06hvG+/v5G3S24uUKKOv5Ga53oaHrDbLPxw9dZYoR1BOZW8tW7LsNvCM5VOOpP01OZm5D3568PCbre1Nvjz3dfe2//rs+Ua3cvS9r5bJ5Itzsgp/e+38xW/f/JWvgKJVvdKk73i37aopqFyr8ZzJ/O3MadNJ7Fg4HzDP+ilIOyN3eZvF2ydWZ5JSZskJhXkGNyKo+HUoOlLcP9C817NrKE4vzcnXFbgScXhysqYV8v4uwcPV5cDTZ7zs8ZoGxpGq7Kmu3x/5HGr5VE+TkbvRSID/Yub8hg0bPLZUj4J0iY7Y+gQYwqQWsVTLH/gfzqDdHrAfdve0kYD+uVkZqSTtnCyERspWKTVfycvO+OdjZ879/FT9UfdZ4Zf9g93fP3z85DXZmQFLW3nLR3aG/z5/zhxy7djgkF/mHnK9wktZCh1bgZfJ1t0HYxZqUiC/syGhNKPZzr2TjCYPX9pSZsnx5e39naSY06HRuNvdB5K5vudkv81pdYVfkJ/JV6qWuRzlukbaXTtD2EXyKkjwcHVd7x7tcLVbXHlTMSRDdz1XwUTLHW894rfrJPfoJz4R4BBu8JZsnDMF4rgGjKijTqymLkMll/MF20cqz46LrW2k76PVlVVCzy3uLi0u/rS7f2jnxdYuMI/WFEK4CYRldJOsO/OzMjOEykI8V0FRag/1DYwQP40QulkQ2Xw1f7ylg5EbZYw9ZOo9QUxoI1EQ0DJmExvHZfQWlS3Oy9UWaIlDDjlrJGeYrQP6vuq8Glc40XXlN06FwsrlcBrgUnaQUSf9X7/261t9wdEota6jittn3DnrlmkrZ0BQv8cfgCQFGLNfzoRDyCyfdke52Wa2Hbz4iceE50uPfo8xApx83CZxvLchZhqc4Vm9YjyaycV+Rnq64CoRoUYOYRxGkvGGhI0sys7gPVPko3FDXm4RONCcVclkLOzYXOcrU9Iun4uCh6xgBUn6QZq83I0NF/QDNps5kGmWT4ZA10iu2BQZy5JwEe82DiQ3qhi74DEGok+vi4eAjhn1nMmJR1UcSq7MOzPvnk3COuaWXlO65eBzR0he1GHLgGfHS7xFveMryQueb7yltzTgPKOEv3ECDpsHXeZ/EpbyyPU/uDZXl58B6eispzq+7KMp5MSZS3GpQDYAS8p5b5rjTKxtGlaP4ZBSXKaUmlAEIDRDcHhHKJrgMONKJl6t1UKqZZXg3VUalNC6vaggZ35mhs696wNzaCpRtNU6bVgKEkyyLiecdpNFlLMosguuhHAU37E7sEIU+r506ffIEUjHo3E7J9+Yc18NUY5kdNmanLSZhXNySGB/tjY3LAe5UOiAYtSSbD81eTMziXIk7Yl36z3z1swI1ZfejwUCSP/C4y+MOxYYt4NkamudzJY3GsEeNjcW4iU7T1Bkfp6lkWIC4RDgdAXZdiCuMlwad5YVFR8fHPZk8yjRaFJBSaak8+RMDUYbvFxdvFuMJuP8rHSXh+BEP9VpWk3DyOg4xxyIhbRA6SsHi/D49TxRZrR/xAhkoiFjNDxYIxboSsfq3Jp08DJ1hTW5PxCeYf9K5U1FJIE58VqF0Ao/J7Vw+V5XtqSCOPssm3Z7Wc/o+BqRswrnlUP+106oT+n6jdJPfCCAfc4fiVR+DxTIqHMa8pxQBRmDOctWKgWnfAsl3v7eftePb0qaNmyz7eKcnAIId/SwIPGMS/KyPaEjoXi77+dBP1ICq9loFG03UZGaSsbjV1kBlKSBZexhxZAKHQdtFx4CJP5Rzlytuxhe7+i1JrvEeyD9GzjReA6SOkZa+kisIWTDUf3N7Psw7CJ1C0qvLTGMGaxWcNqB6CXBgSqsTIZS5Cq5GlIH5KUVuXaM57rP9LcN6Y0Qw9jpPt8klhlIaze3qffcPovDQqPPozflYVFmORnovvEffwWJncfAUWe1b0P6PfoIZKlVoihIkvoNKnO4TOXlGm3YZiOSCeeGvBxPED/xfr2jsMAvFzrAa58AACAASURBVGooREg/MMtq26EWZai2Qu/zxUKSvnakGFFQBSkUxqi2S8cjI+MLs0WVnWDiX5t5VxUoQI8nNime/MaRra6HIqkVebrzWMvc4kWw8yvPZQT5awdn3dhb30GUI2n15vEtZ3+04qlckoCcfCe1Ib8x975pu49t4y17FZwyvSs+AuBJqLac8KXrpyA76u6/ULRtN8l4EjRBry8h+n3iCKTzBO9HQrXXYjG708iVRBg2IodsJd68F2RleGK7wpEJHHtSG0cNou0gizT8nqx2LB+Nx4dyOFhNlrbZaCBk2TSpx1qcXqJdUrXMlajC/YHA+3PuosWkpBRky3GdmZMPmFpHhswDZodT+E5YBonJM9SZmpzUvAyyS4QkAlkkLnLUMmofGhuyfnT+z/UrZ93tqe6xsPT6KcfbDneRRAUeoeg/YoMAQuc21e72e075KUg4f8Ro6+5jkNF8WWwkTV6umSpxdpC9Y1bPjq1YrQnbxMo3A74Kk68N37VqnU77QWePaAko4DyU90wVTKxWJ8NaZAwnmqMT33joteAIyBinMx0Nx935413zH5wFCsyTvxUSAAzvaXhX7x7N0uoVJaQ4MvEyfeWLZw+6d37BR8t/N19XqHn0hr+9njgCkdCOd0/tcp1pQsLytnklC4tcO1T4EFPvXXNXzXn6o599xk+JXpUKAcQxR/l4+StIaOVEjqMsli3j60CvRQ8BSBkniom1c2zMFThP4irTfH3Poyc+L+WKVE3qqN3hIInSIUSDd73xdgxwEZIgwGmRUtFvtfnV1HNixYgMWamCDICdFJd1eHQ0HuMfNQqtZ12QuMe3Tmw/6Z0f9eLAhSEOcxzxMr173qo5YG5t7zP2mKywcoXipmSVMtg9amYVLSwiypHE/zb3N44rXUVMuk8u/+nN7mTraqVGNMc8oXLSdv4IODl8zP8qj5MOaWRDzmMpjAw2kdRoxQdatK6JZWJtN10+8yvTjq+TFy25g9HNUqpcD6ZBq9VSpJl4liBC6/rc7Iz32rv8HHVsSD6iZKwRmYKDjYHeE45AFhoeiUfv1YbuM503TFmWSrLcHGn5HIJzm8fFaTb3No6e6jyih8oeVcUZZdnkT/io+Vue761v9/VUJSZdMO2eh/qOM4mCbug+RfOr8sMn5dXRzet2ND2/fqcfz/Gp5q7cHlyzZhRcty74taYXoooA1HUUZQfZarpcRSE/RbywkUgHnq5SuMY0aLeLlg4OUufxulDYsdIQSdWESMdG+/kjkMUMxuV5GhQibrrY39hDHGfeOfWa37ONnFFOzZlJHNMwSRE30f8ROpXZ1fmVOdV+RwJ/rf/9RVCcLZ2jrf1vHt9OnXT8l5GkV8DZ4hicGfN6Kwc0eUHCgIPQZdyhtqRSJyGz+hFDP5ztTziXEcQJut6OCzTqmJtvMq5UGjncN9AP2eomPKuQRAefGoRdCs8HDB6cw+XN6ggroQEPKXopAgQ0yGxSc2ZbBF0l6fLigf/hPWcizAuhKgcxrw6a+w2vHnzuy5GxQUskIRhKuZKF2o2qNdd+eyGEemSWpFekX+pvGrdbJfy2HX7eL6RAEhAoE38EEDrof/HylYAK0mlnPmNlzEOBOtLr4iNw/76Dh8Wkmi2gALKY/Pho6UAGEnb2qzPnm+E++Yvqx4aVgwpEFWRUQQ5APBsPuLI3JeLnZOeR3ttn3mkmjjp/t+JfbiFjIGeS8Cf4rQ7ebRFJUeceP3H4OdJ6sDsR8UgWmUl5q1yV9Uig8fKaWEnjvvW13RghP1NEIEL0evwhkJOijPkOksRC5iiVngTO0UbJhpTD1MwabZT56efj7nEOKfyt4vMqSVbe3Hd+nDIj55XEmUbon7dyJKNsG77U605WHp+jplLBefkXG2p3B7R6BNxBuqBDeD8QmEphTEwExExdNxEECsHU22e5XEpoInSE9CXlrxyMcpgmDRCClnhtNNhkUjMWq3gUpaVUlTM1bV7JNRWEa+dI++CZzuPtfYZuM2TTEezFqpAp2VzwYoU0ckUlGRW50/PnlMC/2+C8MWF31tLOgvTc4NhnfzCuQRUkx1kOyJiUh4MRoPfiFwEIG5Fs5xYMhSylQlI57AjMrDSrTrApEf1eDgLzqmBjpOjsJ0ywNKM8jewYiVn07RM7Tk0gDnKgvuvUgDsOEvKxplMFOeHpiQoBcPYwOS2px4MRD6oge+rqegu3vnEebOs1wYjQe/GJQIr8amB0LCVUy2RB15nYslmxcljNGOGEAE4Y6EcSBPKYnoTeJX1+aV/ntPyZudW5M4q/f/NPlkEM5DA46pjsTrvgHSRJRJCRkqG5kocVQShJzydN77dKMgGUSdgIwPvcF1C9wy+e2ptQyAcXPGM+hTdDqiDDhj/2HVQIhZxfKaRMlVhRu7xZqZlViql18dBhoxHMqwHPcSQTZAKMQBFyLx185vi15Td03Vrz9Zm5qfkZ5C8SkkarYWxv41/OHbj4SSc9D48EQWn6YCzbF4pTyAeozabaq1RY1sOBZMi2oZjR+9IikCKXeVJrSct5PDeI75RcDitS9lEzqzSznod7+iYenCSNrMG4gM8qc+jS/u72wRbDuq88cZ1KnqJs6DndHqyP+x7LIBbKWJWM2cfsO4/+7kuSeEBIP9omRggg3JffXHkyFPeQSq//kTsNRVte/xw8mG8KRYzejy8EFHCmEg8SKVkIGJL4A+EekOzCbIP4X1GSL0gsfsKwI7lXC1Bim1d9wTY7TA5IFUdyGLtOVYdMA2arY8wB1T/8SlOBhyubolArZubPKSQm1lSVTgYesX7tfHnQ77FFAFKpvr9hw4aQ8xRSQZJhsAy3h2NYqiBjO6dhc/+PM+dOayQ+/+MT8uTQUAzephG2Mqr+FMYSdpkuvjHQa/wIZDMDAyzjDPmg4e8dn1dBIZLKG2dW1KycPb/4mspwpITakufbh1v8qkKEQ4O2jTYCGNvljg+FcBHqxIDAWed5cNYpFEKUtqEIxAMCMsahSkejtPh3FCdjLj55Np0ZFa3eZxRFDZt0cXqZdnHFjcW5uvy0VGWqSiZT+FlCSEo6k81ggfJYRkgK0MGXNSdsxrRDVBEAq9KRTWt3bhDCRNAOEgiRtOV74P/XCSFK21AE4gEBUgLLgeUjcuTgzd0aDzImsgwaxmyarMqRzEvHSKvp7ZM7GxN5jqjs/giAe/se/6v8VwSfUalV6ENQkg5+MvQqRSA+EbAwStFqUcbnCGMnVQEDzjn0QxFIJAQQM9xwoSNgajnfoQhWkBdra0cwxwTNOuBLnH6nCMQaARtSDWGMEjoEIdYY8vGXMw5HIe4a4LtHr1EE4hUBCLv50ycbPhG80ROsIMmAOcS8E68Dp3JRBHgRwAhbmJQe3nv0YsQI5OPe3snmnBMxGLRjoiBgU7Doz+EIG5aC7KmrvQRVlE+Ew4C2pQjEGgELUvVBpa1J5WkZS0xZqHBRzLT3xlIGypsiEC4CLEIfblyzIyyP+rAUJBEIYdnb4QpG21MEYokASWBuY1T0vEykSchGg/0qRprk8yKJTMkkOQKkIDKSO94NF4awFWTnQ986Ac46+nAZ0fYUgVgiYGFU1Mwq0gSU4nZa41AkLCkZaRAgeVefWfV6Z7jcwlaQwAAjp/P34TKi7SkCsUSAhHzYGUVCJ9SOJX5u3hnMyLCWMVjiQRYqA0VAKAKwf4zIfyYSBcl0lBdAkldEzyCEzg5tFxcIjOEUuvOZ4EyU4LauCZKg3SkCkiIA2XDObKrb1hAJ04gUJLN8uQMOI1+PhCHtQxGIFQIORmGyM/LhWPFPdL7peHgkkxmiadQSfSKTTH5Ik7oj0iFHpiCBW2fT2b2gJOkbeaTI034xQWAMazpiwngSMK1gWil2k2Aek2wIJzbXbTsT6ZgjVpDMhg0OsOu+Filj2o8iEAsEHIzcbMeKoVjwTmSesHscTmNGTIk8Bip7EiKA0PaJjDpyBQlcO1KYfRCHTd8qJzIDtK/kCIyhFLpmw0S9ktFTzMLEjDaPOQJfPrd2+/mJSDEhBcnU1joZVr5zIgLQvhQBqRFwYMUY7CKpR6tA4LPwwKCOMUzKih0CIaDNEhEBGZ7Q7pEMeWIKEgh0PXjPfoZFFxMRPypz8iJgZtQdUJ3GVRCXfgIjgCB5ZQXTQnePgSGid+IQAfBc3f/c6p0T1ksTVpAMZCiAmmgvxiFGVCSKQEAEIC7SAgWVaahSQIQu38hjenq1jInGPYbAid6OHwRAOdpkDuUrYkg0cQUJUvTUPXAGPFo/E0MgSoMiIBUCJiYFMmsgwZn9pZIrXvjIsdNRhS7R3WO8TAiVQxgCCL298eFXREktKYqCJFI7seIVSEFnFzYC2ooiEA8IyBxmTB12As1ECWprl2OHM9B9ep0iEH8I4EGzQ/6WWHKJpiB76u7pBY9WmshcrJmhdCRBwIJS+pyYpSZEH7TVeGwMKnbQYtOSrELKRCwEkIx59dX1r4r2exZNQZIBquzmN0FJ0iKqYs02pRN9BGDBjjHq1ugzSiwOYFptZcFBJ7GkptImNQIINz774I5PxMRAVAWpX7/eAlWVfyemgJQWRSDaCEAprBGaPOAqyiSsA/7CqpsX7Tmi9CkCwRHAmHMwm0lZq+DtwrsrqoIkrLseqj2AGXQoPDFoa4pAbBEwsdoWWLdJf94m5xzOaqaZ7qhjuxwp9zARYFn0++fX77wQZreQzUVXkMARM3L7ZggxGwvJnTagCMQJAhzH2sHU2hYn4sRMjHK2tZUWQ44Z/JRxRAigHpNdEZWENdFQkJA84MF+qOIuShxKRHjRThSBCBCwYOKwI0vaahWQLWe0CHdQx5wI1g7tEjsEkIx7RkzHHO+RREVBEgbddd/6K2wm62MHG+VMEQgfASOjvQS+KaKeY4QvhfQ9EObwNKZRLz1nypEiMAEEWOajTat3npgAhaBdo6YgSYYdxMo30tjIoPjTm3GGwOUMOySBQHJ9SlBHuwabrck1ajraREYAHHJGdFbVS9EcQ/QUJEjdsebedobjtkRzAJQ2RUBsBMxI0+VgZElT2kmHjcYyrO8RG0dKjyIQTQQ4jvvfXz3ysiGaPKKqIIngnXX3/wFCzY5HcxCUNkVAVARgwZqY1GYwtHKi0o1DYjLG6axhGi7CgyDpzMpxOB1UJIEIsAj9efNDOw8LbB5xs6grSGJqlVnRf4OENK4q4mmiHaVGAJx1rGakbpGar9T8KvFFvZqBvO30QxFIFAQQamOHMl+WQtzoK0gYRfujtYMs4/xfKQZEeVAExELAitX9kzmBACQDGChkumldTLEWDKUTdQTg3NHB2LinNz65UZKXOkkUJEGtvW7VIYbl/hJ1BCkDioCICBgYjR5jNOmS8KuwzVqDGif9DlnEpUBJxQECHIe3PvfIxOs8Ch2KZAqSCKQZTHsJymK1ChWOtqMIxB4BmcOEtBMuvBr7cVyVADEYT0PnL9JKHfE0K1QWAQgce65u++8FtBOtiaQKsunJlVaZnPslKEmzaCOghCgCUUbAhpWjYzilPcpsJCNfjvWtGXg4aRMiSAY0ZSQaAlAEuVdnVz0tdq7VUAJKqiCJMG2rVnWymPtNKMHofYpAPCEwxmi6JsN5ZDYa7C9l2nvjCVsqC0UgGAKgHG0yTv7v0Q7p4JNBcgVJhCDnkZjFb/AJRK9RBOIVASPSXuKYxK0dCYkAzNO5BnruGK8LjMrFiwDimE0b121p5r0Z5YsxUZBkTF0X6kly2WNRHh8lTxEQDQHIL+yEVHRNiRgfSap0zED1TSxk7hANEEqIIhBlBEi847PrdnwUZTYBycdMQTIbNnA2u+FpkIxm8Ag4PfRGvCHgwIoxE6O5FG9yBZUHNHo1amrW4DFJXOODykJvUgSEIoDQuZySKS8KbR6NdrFTkDCa/kceMTAO5wb4Z9Kk9YrGJFKa0iJgY1IGLVjVIS3XyLlVMK0tuUzfSOQUaE+KgNQIoB6nSvNvG5ZvcEjN2ZtfTBUkEaTz4VVtLMuAZysTUyBiOQmUd+IhYGa0neDdGvelofJxd08p00qdchJviSWxxMgoZ/HPXqh9IeYvdTFXkGQVtK+pPY1YTDPtJPFPIhGHDk47egcjj9sUihl4aGga29yaiNhSmZMTAZIpBzPolxvX7IiLsKq4UJBkKXSsvn8vxEdGpSp0ci41OuqoIwBJzQ1MapMTs2NR5xUmAw1jNs2CJOTUJydM4GjzmCIAHmT/s7lu25mYCuHFPG4UJJGpc+39r2MWxcxjKV4mhcqROAhc9mxNvQBvvXGTjo6kkZuNz1yA/MfUYzVxllLSS4oZvGPz2u2fxBMQsngShshinDPzSGpWbiViUEm8yUbloQjwIYAZ1klMrSpkz4L7MX3plDN2+1x0+hxU6LDxyUqvUQTiEgGE3t1ct2NbvMkGSQri7zNz1y7lkAX/CyjJ+fEnHZWIIsCPACgnrY4xTEcoNkpSjp0Oohy12BB3Jl9+xOhVigADFRHRnk1rtz8LWMRdTdKYvu0GWhz1tbU2ldP8S8CrPlAbep0iEG8IOBiFycjoGjF8pJaNFD6eic6cp8pRauQpv4kgADu0T3KbpmwCGpL/ZoTIHZc7SLfg+Vu3almk/gXCeKqQwdA2FIF4QECJrOmp2DQVQpck+X0h8MSZhevPZzJDNAF5PCwAKoMwBBA62K+y/ufu2t1OYR2kbxWXO0g3DD11dSa7TfkUPGb00kNDOVIEIkPAhlUjUCJLktyRCHN4JnPuAlWOkc0V7RUbBBBGR51mza/jWTkSZCR5w53oFOS89K5OobD8HF7IqydKi/anCEiFgIqxZmgYYzWcsUTld4bAS3UGPteYzQwapBoT5UMRmDgC+JBzLPU/X3j8hbjx/A40pqj8cAMxm8h1Ym6VIdhNYnbGROjQvhQBKREg5lYtNk4VW0m6zhyZ+kZa11HK2aS8JowARp82XGz/7ScbPkmIzGlxbWL1ngxiblU6xv4VymSdmPAkUQIUAYkQIOZWI5N2XswKIHLG4ZiFz5yjylGiSaRsREEA4hw/yLs45b8SRTmSQSfMDtI9Q5dDQNCPEYMXizJrlAhFQAIEFBACkoqMNbBuJxR7rMA2+xym/pyWMVgkEJuyoAiIhAD+46a1O14ES0pceqsGGmTCKUjXQJ56Sl5cPetJeCtfHmhg9DpFIN4QgJ2fBuIkp8EzQhGJbHCmaZnNnG6kZasiQY/2iRUCoBRfhzhHkkY0oZQjwSsxFeTlmUaF23Y/CCEgD8Rq4ilfikC4CLDIqdRhwzQZ4tTh9NVhoxHOHC8oGWtCnN2EMzbadnIiAMrF6UTo2efXbv8gUUeYyArShXnx9t0rwNP9B/DPCZmuEnUCqdyJhwBCnEwH3q2wo0wTIn0WHhicgc5fZLEz4d7AhYyPtpl8CIDftplx4P/YtH5nQvuMJLyCJEureNvr8yBp9E/hn9rJt9ToiCYlAhAIBskEKpTIlhNsfIVcV1e17GI7rcoRDCV6L54QAKXSj2T4Z8+u3tkST3JFIsukUJBk4IVbdpWBrfspMHPnRQIE7UMRiAUCGsZUlIKsxb684egAVzL6lmKmvc/3Hv1OEYhXBKACXLPdav/5S4/uHoxXGcORa9IoSDLozOd3paeomX+AQc0LBwTaliIQSwRcCQWQucrt4UoqckzH55shOw5NABDLiaG8w0IA1u/HsuHsTRuf3GgNq2McN55UCtKF865dsmIbXoM59K04xp2KRhEYh4CMcaSkMsap6cyoA5xxmkBpxn2WETqFFAGCAFjuHHBi8OKzddv+Al8n1Tn55FOQV9Zs0bbXlkCdvh/BxKXQZUwRSAQEIDvOX+9g3kuTM8ySRJCXykgRAH04KHPi/3hm/WvnJiMak1ZBkskq3v5WCcc5/okWX56MS3fyjAleuW0YOTd2r131CYwKfXfbmjvhwbMe3sUTJtPV5JkNOhKhCIDyOINl+FfPrd45JLRPorWb1AqSTEbFK3tTbLLex+C5c1uiTQ6VNwkQwIweFOSvux6qbfUe7RNb10LOYe7v4R51OkuCZZBYQ8QYIfaN+qb2NxIpbVwkGE96BekGpWjb7iUM5iBeEqVGAhTtQxEQHQEWv9NpGt7GPP4473njY88/ppGrjY9jBt0iOm9KkCIQAQKgMHoZhn16U922hgi6J1yXpFGQZGaKt7ydzSHHj2DQ1Ms14Zbq5BEYXOEHWRb9tmN1raAgajC5LoWwj+/BbpLG+U6eZZB4I0ForxGj57fVbTMlnvCRSZxUCtIFEVgHCrfuvgvyYdbBbhL8IeiHIiAdAqAcD9ptKRv7H7kzrBCOH7y8Ptcpt/0dKMnZ0klLOVEEXPlITRD4vwkC/z9NNjyST0FemWFXYgEWUtRhND3ZJp2ONyYIjGKZ7Pmu1ffuB+4RucJD7gD0xPa1KyHebB0k6qfe2TGZxmRjig+xWP7csw9tHUi2kZPxJq2CdE02PHAgl+tKDh44NBwkGZe/NGMGZbbXKrP9bnDNmlExOLp2kwrrE7B8rxGDHqVBEfBFAF7CRuD5uHnTQ68dIE9K3/vJ8j25FeSVWS7c+Ycc5LA8AV+vTZaJp+OUAgHUyyDns51rHzgWBW7oezseXMo50eNAW1DS8yjIQElOQgRYKGw8Zk955eVHXg7rGGASQpHkO8jxM4oKX31jKcOiR+GtIXMyTjYdk0QIIIYD48wflY6c7fr1y6Na2PgH21enQf2rh4HjColGR9lMWgRQJ4eYTVCe6uSkHWKYA6M7SB/ASnbtUjus6D4Wc3dTJ54wVxNtThA4xiiUv+tcdVeblHCAp2sNeLp+G2xhNVLypbwSHwFSmorjmNfzy6r/uGH5Blpv1GtKqYIMsL5zX9lVIJeh9WCLp2m/AmBEL19FALxTO+Dvpe41DxyBqzE5syFOPN/buXoZdjLr4OUui84PRSAYApBDFZYM3uNM0W5/ofaFkWBtk/UeVZAhZr5ky865HCv/NjzyKkI0pbeTEwETI0OvdRbl/IlZvjwu3r7XvbIuJUVmu49F6G5wEFIk57TQUYdA4LSMYV98pm7bpRDtkvo2VZBCpv+pp9jiKbOWwQ5hFYSFFAjpQttMbgRgLVhZjN4bY21vi+WdKjZixNvVIbfVwo/8NtjSysSmT+klHgKwFi5Cht/tm9bsiJmlI5FQowoynNl66il5UfWs5aAkHwArGs2RGQ52k6UtYuwMx/1Zyane1K+/ezgRhvXEK+sKsMxO1iykrIMTJ/pJRgRawK9ix7MPvfYFDD4mRwCJCDr9sUQya3v3ygta+29DLHc/xE9mR0KC9kkwBBDjIOc1shS0q722NiGrpX9nS10xyzpWQS7Nm8h5ZYLNABU3MgTa4Z1o56Y12z4jZ46RkUjeXvRHMoG5n7lrl3LIgpdDsMzdoCiLJ0CKdo1TBDCDx6Bc2h7Owfyh++HavjgVMyyxnnj5gVLI6nMXg1w7SppuMSz0EqMxKMMLoA3fyWuacmDDhg0QdkQ/kSBAFWQkqPn2gbfxgq27r2VBUcItmivTF58E/A5njAPw5v0ux1ne76mrm5TJmb+748FMOC74OuwrVoIzjy4Bp4mK7IMAKMbDHEbvbK7bdhZu0R3jBFcIVZATBNC3e8mON6dyTidRlDfS8x5fdBLhO77EYead7rK8/fHilRpt1IjXq1bmvAUz3F3wRC2MNj9KX1wE4FQZyqWhj2UI/37jmh3t4lJPbmpUQUZp/gt37oT0dYpbGcR9Fd7Sc6PEhpIVAQFQCjbIoLSf4WR7uuruOQckk/LNm5xLfnfrQ/NZxnk7HBtcTz1fRVhcUSWB21jM7NE6Uj7+FU0LFxWkqYKMCqxeRCFEpLBy1gJ4AH8Vkg4shjvU3T7amAumjy/C4cwezFj3TVYzqmAofBr+8JV1GRa5YwWL8e10VxkpilHpZwOq+xHD7oGixUn7MhcVZHmIUgXJA0q0LpXt2JFp5+S3wJnPzWASqYwWH0o3MALgdDMCAfQHYOF/0L62tilwS3rnCgLo+9tXz+Y4DNYQdD2cVWooMjFAADENHMafmBnZvmQqWBwDpMexpAoyRjNQsmVXMYe4paAoyVlleYzESA62CENVAvQ55BDf36FizzC1tc7kGLi4o3zs+ccUCvXYQoycZN0upjUpxcXXlxo8nM9DoeL9doQPvPDga/2+9+n36CNAFWT0MQ7JwVW8GRGnHpL3lSrLkIAJaYDwCGbQl0QpdjY1nGI20CTMQmAT2uapXfcp+6yqa8CxZymEwSykO0uhyAVu58qNynAXwMJ0gGNkn4Enam/g1vSOFAhQBSkFymHwILUpGc66EMoXLWIYbgE8fNRhdE/ipvBsQcx5KPJ6lHU6j7ave7AJTIJJ6Wwj9SJY9tQy+fQppdNZhBdCbOUizDFVUsuQwPxG4SF8jEPoKGe2Hn/h8d00aXgcTSZVkHE0GX6iQGq7/CkzpstZtAjK0cyBN8wp4F9JA7s9QKEuzDjrGQ4dszuNx/sfeSTpC7z6raEYXHjkd/dlKRWKhbBewRzLzIQ1S7NNXZkHeOASJ5tGcLI56ZA5j25+cEcTzXATg0UqkCVVkAKBiodmJHPPgIWbJkdoJmyNZkD4yAyQSxsPskkggxMets2I4xoYFtfLWa6hdfXqIQn4UhYTQwB9Z+vaXHjQzICzy5mQcWoGKISKpEl1h5hheEGoB2tGA8DYkFcypZnWXJzYgpKyN1WQUqItNi+IWyvcursUs84qGZaRh04FZpmKRM8PC1lsLLAw9fBg0cPDVO90OvSpoxlNTU+utIoNIaUnPQJrt67VahCuhpecCsyxrnUL810GL31K6aURkyPqgWMRPYR06ZGT1TtY3PzC2u3dwIGa+sWEWUJaVEFKCLZUrHJeekknU2jL5VDDErOyAoy5AlCa+aB48uPoTBM8SVEvZrkekA3+4L8MbrXJsb531apeen4o1WqJ+0UDgQAAAWhJREFUDz5PQbxwT9WlQkbmrJBxbCnHcKSsXB48oPIhNAcSbcRHFRKQwsAxuJesWTj17mFZ1Mk6nHqF1tHy29rdY/GBJpVCLASoghQLycSgg3Jeejc1RWnN54iyxCgDlKcOvFt0EBuowxxOwyzSwXUdRpwaXFzkYNZUgFJVwDswyztE0GrwoLCDPwwpFmyHbyTtlQGuGRDLjILThgF2CQYkQ+CMwI06nLgPOdie7pazA+BZSpMo84JKL3ojQJyAZlZU5Djljnw5wjlOJ5MGikkHC4/kj02DPx1YGnSw9lLJLhSUGDmnV8AaDFgsGh58TnDqsoMRBtata81CUnpYqwwD6xT+i1kDC+sX4j8NkNpjCJR2D3jP9NIYxORam1RBJtd8Rz5aeMOfOWuWfMBiUTjtdjaVZe16rdYOMYVEyVETUuTI0p7RQwCBcpVVVFSANZdV2BV2zpJise+6bxe80FEP5+jBPnko/x/nR3ZUqlWROAAAAABJRU5ErkJggg==;" vertex="1" parent="1">
          <mxGeometry x="141.8" y="1000" width="502.2" height="500" as="geometry" />
        </mxCell>
        <mxCell id="5s3269w3blTbIOFKcLB0-11" value="模型研究" style="text;html=1;strokeColor=none;fillColor=none;align=center;verticalAlign=middle;whiteSpace=wrap;rounded=0;fontStyle=1;fontSize=26;fontColor=#FFFFFF;" vertex="1" parent="1">
          <mxGeometry x="337.9" y="1040" width="110" height="30" as="geometry" />
        </mxCell>
        <mxCell id="5s3269w3blTbIOFKcLB0-12" value="模型复盘" style="text;html=1;strokeColor=none;fillColor=none;align=center;verticalAlign=middle;whiteSpace=wrap;rounded=0;fontStyle=1;fontSize=26;fontColor=#FFFFFF;" vertex="1" parent="1">
          <mxGeometry x="219.99999999999997" y="1420" width="110" height="30" as="geometry" />
        </mxCell>
        <mxCell id="5s3269w3blTbIOFKcLB0-13" value="模型沉淀" style="text;html=1;strokeColor=none;fillColor=none;align=center;verticalAlign=middle;whiteSpace=wrap;rounded=0;fontStyle=1;fontSize=26;fontColor=#FFFFFF;" vertex="1" parent="1">
          <mxGeometry x="460" y="1420" width="110" height="30" as="geometry" />
        </mxCell>
        <mxCell id="5s3269w3blTbIOFKcLB0-21" value="" style="rounded=0;whiteSpace=wrap;html=1;" vertex="1" parent="1">
          <mxGeometry x="40" y="1640" width="760" height="850" as="geometry" />
        </mxCell>
        <mxCell id="5s3269w3blTbIOFKcLB0-25" value="" style="endArrow=none;html=1;rounded=0;entryX=0.5;entryY=0;entryDx=0;entryDy=0;exitX=0.5;exitY=1;exitDx=0;exitDy=0;dashed=1;" edge="1" parent="1" source="5s3269w3blTbIOFKcLB0-39" target="5s3269w3blTbIOFKcLB0-21">
          <mxGeometry width="50" height="50" relative="1" as="geometry">
            <mxPoint x="400" y="1810" as="sourcePoint" />
            <mxPoint x="450" y="1760" as="targetPoint" />
          </mxGeometry>
        </mxCell>
        <mxCell id="5s3269w3blTbIOFKcLB0-26" value="模型负责人" style="text;html=1;align=center;verticalAlign=middle;whiteSpace=wrap;rounded=0;fontStyle=1;fontSize=18;fillColor=#ffe6cc;strokeColor=#d79b00;" vertex="1" parent="1">
          <mxGeometry x="40" y="1640" width="380" height="60" as="geometry" />
        </mxCell>
        <mxCell id="5s3269w3blTbIOFKcLB0-27" value="评审团" style="text;html=1;strokeColor=#82b366;fillColor=#d5e8d4;align=center;verticalAlign=middle;whiteSpace=wrap;rounded=0;fontStyle=1;fontSize=18;" vertex="1" parent="1">
          <mxGeometry x="420" y="1640" width="380" height="60" as="geometry" />
        </mxCell>
        <mxCell id="5s3269w3blTbIOFKcLB0-42" style="edgeStyle=orthogonalEdgeStyle;rounded=0;orthogonalLoop=1;jettySize=auto;html=1;entryX=0.5;entryY=0;entryDx=0;entryDy=0;" edge="1" parent="1" source="5s3269w3blTbIOFKcLB0-29" target="5s3269w3blTbIOFKcLB0-31">
          <mxGeometry relative="1" as="geometry" />
        </mxCell>
        <mxCell id="5s3269w3blTbIOFKcLB0-29" value="start" style="strokeWidth=2;html=1;shape=mxgraph.flowchart.start_2;whiteSpace=wrap;" vertex="1" parent="1">
          <mxGeometry x="200" y="1714" width="40" height="40" as="geometry" />
        </mxCell>
        <mxCell id="5s3269w3blTbIOFKcLB0-43" style="rounded=0;orthogonalLoop=1;jettySize=auto;html=1;exitX=1;exitY=0.5;exitDx=0;exitDy=0;entryX=0;entryY=0.5;entryDx=0;entryDy=0;edgeStyle=orthogonalEdgeStyle;" edge="1" parent="1" source="5s3269w3blTbIOFKcLB0-31" target="5s3269w3blTbIOFKcLB0-32">
          <mxGeometry relative="1" as="geometry" />
        </mxCell>
        <mxCell id="5s3269w3blTbIOFKcLB0-69" value="发起申请" style="edgeLabel;html=1;align=center;verticalAlign=middle;resizable=0;points=[];" vertex="1" connectable="0" parent="5s3269w3blTbIOFKcLB0-43">
          <mxGeometry x="-0.0828" y="3" relative="1" as="geometry">
            <mxPoint y="1" as="offset" />
          </mxGeometry>
        </mxCell>
        <mxCell id="5s3269w3blTbIOFKcLB0-31" value="模型review" style="rounded=1;whiteSpace=wrap;html=1;absoluteArcSize=1;arcSize=14;strokeWidth=2;" vertex="1" parent="1">
          <mxGeometry x="170" y="1770" width="100" height="50" as="geometry" />
        </mxCell>
        <mxCell id="5s3269w3blTbIOFKcLB0-44" style="edgeStyle=orthogonalEdgeStyle;rounded=0;orthogonalLoop=1;jettySize=auto;html=1;entryX=0.5;entryY=0;entryDx=0;entryDy=0;" edge="1" parent="1" source="5s3269w3blTbIOFKcLB0-32" target="5s3269w3blTbIOFKcLB0-34">
          <mxGeometry relative="1" as="geometry" />
        </mxCell>
        <mxCell id="5s3269w3blTbIOFKcLB0-32" value="接受申请" style="rounded=1;whiteSpace=wrap;html=1;absoluteArcSize=1;arcSize=14;strokeWidth=2;" vertex="1" parent="1">
          <mxGeometry x="560" y="1770" width="100" height="50" as="geometry" />
        </mxCell>
        <mxCell id="5s3269w3blTbIOFKcLB0-46" style="edgeStyle=orthogonalEdgeStyle;rounded=0;orthogonalLoop=1;jettySize=auto;html=1;exitX=1;exitY=0.5;exitDx=0;exitDy=0;" edge="1" parent="1" source="5s3269w3blTbIOFKcLB0-33" target="5s3269w3blTbIOFKcLB0-36">
          <mxGeometry relative="1" as="geometry" />
        </mxCell>
        <mxCell id="5s3269w3blTbIOFKcLB0-33" value="组织review会议" style="rounded=1;whiteSpace=wrap;html=1;absoluteArcSize=1;arcSize=14;strokeWidth=2;" vertex="1" parent="1">
          <mxGeometry x="170" y="1921" width="100" height="50" as="geometry" />
        </mxCell>
        <mxCell id="5s3269w3blTbIOFKcLB0-45" style="edgeStyle=orthogonalEdgeStyle;rounded=0;orthogonalLoop=1;jettySize=auto;html=1;exitX=0;exitY=0.5;exitDx=0;exitDy=0;entryX=0.5;entryY=0;entryDx=0;entryDy=0;" edge="1" parent="1" source="5s3269w3blTbIOFKcLB0-34" target="5s3269w3blTbIOFKcLB0-33">
          <mxGeometry relative="1" as="geometry" />
        </mxCell>
        <mxCell id="5s3269w3blTbIOFKcLB0-34" value="确定参加人员" style="rounded=1;whiteSpace=wrap;html=1;absoluteArcSize=1;arcSize=14;strokeWidth=2;" vertex="1" parent="1">
          <mxGeometry x="560" y="1840" width="100" height="50" as="geometry" />
        </mxCell>
        <mxCell id="5s3269w3blTbIOFKcLB0-47" style="edgeStyle=orthogonalEdgeStyle;rounded=0;orthogonalLoop=1;jettySize=auto;html=1;entryX=0.5;entryY=0;entryDx=0;entryDy=0;entryPerimeter=0;" edge="1" parent="1" source="5s3269w3blTbIOFKcLB0-36" target="5s3269w3blTbIOFKcLB0-38">
          <mxGeometry relative="1" as="geometry" />
        </mxCell>
        <mxCell id="5s3269w3blTbIOFKcLB0-36" value="模型评审" style="rounded=1;whiteSpace=wrap;html=1;absoluteArcSize=1;arcSize=14;strokeWidth=2;" vertex="1" parent="1">
          <mxGeometry x="560" y="1921" width="100" height="50" as="geometry" />
        </mxCell>
        <mxCell id="5s3269w3blTbIOFKcLB0-48" style="edgeStyle=orthogonalEdgeStyle;rounded=0;orthogonalLoop=1;jettySize=auto;html=1;exitX=0.5;exitY=1;exitDx=0;exitDy=0;exitPerimeter=0;entryX=0.5;entryY=0;entryDx=0;entryDy=0;entryPerimeter=0;" edge="1" parent="1" source="5s3269w3blTbIOFKcLB0-38" target="5s3269w3blTbIOFKcLB0-41">
          <mxGeometry relative="1" as="geometry" />
        </mxCell>
        <mxCell id="5s3269w3blTbIOFKcLB0-50" value="是" style="edgeLabel;html=1;align=center;verticalAlign=middle;resizable=0;points=[];" vertex="1" connectable="0" parent="5s3269w3blTbIOFKcLB0-48">
          <mxGeometry x="-0.381" y="1" relative="1" as="geometry">
            <mxPoint as="offset" />
          </mxGeometry>
        </mxCell>
        <mxCell id="5s3269w3blTbIOFKcLB0-49" value="否" style="edgeStyle=orthogonalEdgeStyle;rounded=0;orthogonalLoop=1;jettySize=auto;html=1;exitX=0;exitY=0.5;exitDx=0;exitDy=0;exitPerimeter=0;entryX=1;entryY=0.5;entryDx=0;entryDy=0;" edge="1" parent="1" source="5s3269w3blTbIOFKcLB0-38" target="5s3269w3blTbIOFKcLB0-39">
          <mxGeometry relative="1" as="geometry" />
        </mxCell>
        <mxCell id="5s3269w3blTbIOFKcLB0-38" value="是否&lt;br&gt;存在缺陷" style="strokeWidth=2;html=1;shape=mxgraph.flowchart.decision;whiteSpace=wrap;" vertex="1" parent="1">
          <mxGeometry x="570" y="2006" width="80" height="60" as="geometry" />
        </mxCell>
        <mxCell id="5s3269w3blTbIOFKcLB0-40" value="" style="endArrow=none;html=1;rounded=0;entryX=0.5;entryY=0;entryDx=0;entryDy=0;exitX=0.5;exitY=1;exitDx=0;exitDy=0;dashed=1;" edge="1" parent="1" source="5s3269w3blTbIOFKcLB0-21" target="5s3269w3blTbIOFKcLB0-39">
          <mxGeometry width="50" height="50" relative="1" as="geometry">
            <mxPoint x="420" y="2330" as="sourcePoint" />
            <mxPoint x="420" y="1640" as="targetPoint" />
          </mxGeometry>
        </mxCell>
        <mxCell id="5s3269w3blTbIOFKcLB0-57" style="edgeStyle=orthogonalEdgeStyle;rounded=0;orthogonalLoop=1;jettySize=auto;html=1;exitX=0;exitY=0.5;exitDx=0;exitDy=0;entryX=1;entryY=0.5;entryDx=0;entryDy=0;" edge="1" parent="1" source="5s3269w3blTbIOFKcLB0-39" target="5s3269w3blTbIOFKcLB0-56">
          <mxGeometry relative="1" as="geometry" />
        </mxCell>
        <mxCell id="5s3269w3blTbIOFKcLB0-39" value="总结经验" style="rounded=1;whiteSpace=wrap;html=1;absoluteArcSize=1;arcSize=14;strokeWidth=2;" vertex="1" parent="1">
          <mxGeometry x="370" y="2011" width="100" height="50" as="geometry" />
        </mxCell>
        <mxCell id="5s3269w3blTbIOFKcLB0-52" style="edgeStyle=orthogonalEdgeStyle;rounded=0;orthogonalLoop=1;jettySize=auto;html=1;entryX=1;entryY=0.5;entryDx=0;entryDy=0;exitX=0.5;exitY=1;exitDx=0;exitDy=0;exitPerimeter=0;" edge="1" parent="1" source="5s3269w3blTbIOFKcLB0-41" target="5s3269w3blTbIOFKcLB0-37">
          <mxGeometry relative="1" as="geometry" />
        </mxCell>
        <mxCell id="5s3269w3blTbIOFKcLB0-53" value="是" style="edgeLabel;html=1;align=center;verticalAlign=middle;resizable=0;points=[];" vertex="1" connectable="0" parent="5s3269w3blTbIOFKcLB0-52">
          <mxGeometry x="0.0359" y="2" relative="1" as="geometry">
            <mxPoint as="offset" />
          </mxGeometry>
        </mxCell>
        <mxCell id="5s3269w3blTbIOFKcLB0-41" value="是否有价值" style="strokeWidth=2;html=1;shape=mxgraph.flowchart.decision;whiteSpace=wrap;" vertex="1" parent="1">
          <mxGeometry x="560" y="2108" width="100" height="70" as="geometry" />
        </mxCell>
        <mxCell id="5s3269w3blTbIOFKcLB0-54" value="模型资源池" style="strokeWidth=2;html=1;shape=mxgraph.flowchart.database;whiteSpace=wrap;" vertex="1" parent="1">
          <mxGeometry x="165" y="2113" width="110" height="60" as="geometry" />
        </mxCell>
        <mxCell id="5s3269w3blTbIOFKcLB0-59" style="edgeStyle=orthogonalEdgeStyle;rounded=0;orthogonalLoop=1;jettySize=auto;html=1;entryX=0.5;entryY=0;entryDx=0;entryDy=0;entryPerimeter=0;dashed=1;" edge="1" parent="1" source="5s3269w3blTbIOFKcLB0-56" target="5s3269w3blTbIOFKcLB0-54">
          <mxGeometry relative="1" as="geometry">
            <mxPoint x="220" y="2108" as="targetPoint" />
          </mxGeometry>
        </mxCell>
        <mxCell id="5s3269w3blTbIOFKcLB0-56" value="合并至资源池" style="rounded=1;whiteSpace=wrap;html=1;absoluteArcSize=1;arcSize=14;strokeWidth=2;" vertex="1" parent="1">
          <mxGeometry x="170" y="2011" width="100" height="50" as="geometry" />
        </mxCell>
        <mxCell id="5s3269w3blTbIOFKcLB0-60" value="制定研究计划" style="rounded=1;whiteSpace=wrap;html=1;absoluteArcSize=1;arcSize=14;strokeWidth=2;" vertex="1" parent="1">
          <mxGeometry x="370" y="2398" width="100" height="50" as="geometry" />
        </mxCell>
        <mxCell id="5s3269w3blTbIOFKcLB0-64" style="edgeStyle=orthogonalEdgeStyle;rounded=0;orthogonalLoop=1;jettySize=auto;html=1;entryX=0.5;entryY=0;entryDx=0;entryDy=0;entryPerimeter=0;exitX=0.5;exitY=1;exitDx=0;exitDy=0;" edge="1" parent="1" source="5s3269w3blTbIOFKcLB0-37" target="5s3269w3blTbIOFKcLB0-63">
          <mxGeometry relative="1" as="geometry" />
        </mxCell>
        <mxCell id="5s3269w3blTbIOFKcLB0-37" value="制定解决方案" style="rounded=1;whiteSpace=wrap;html=1;absoluteArcSize=1;arcSize=14;strokeWidth=2;" vertex="1" parent="1">
          <mxGeometry x="370" y="2176" width="100" height="50" as="geometry" />
        </mxCell>
        <mxCell id="5s3269w3blTbIOFKcLB0-66" style="edgeStyle=orthogonalEdgeStyle;rounded=0;orthogonalLoop=1;jettySize=auto;html=1;entryX=1;entryY=0.5;entryDx=0;entryDy=0;" edge="1" parent="1" source="5s3269w3blTbIOFKcLB0-63" target="5s3269w3blTbIOFKcLB0-65">
          <mxGeometry relative="1" as="geometry" />
        </mxCell>
        <mxCell id="5s3269w3blTbIOFKcLB0-70" value="否" style="edgeLabel;html=1;align=center;verticalAlign=middle;resizable=0;points=[];" vertex="1" connectable="0" parent="5s3269w3blTbIOFKcLB0-66">
          <mxGeometry x="-0.1724" y="2" relative="1" as="geometry">
            <mxPoint as="offset" />
          </mxGeometry>
        </mxCell>
        <mxCell id="5s3269w3blTbIOFKcLB0-71" style="edgeStyle=orthogonalEdgeStyle;rounded=0;orthogonalLoop=1;jettySize=auto;html=1;entryX=1;entryY=0.5;entryDx=0;entryDy=0;exitX=0.5;exitY=1;exitDx=0;exitDy=0;exitPerimeter=0;" edge="1" parent="1" source="5s3269w3blTbIOFKcLB0-63" target="5s3269w3blTbIOFKcLB0-60">
          <mxGeometry relative="1" as="geometry" />
        </mxCell>
        <mxCell id="5s3269w3blTbIOFKcLB0-72" value="是" style="edgeLabel;html=1;align=center;verticalAlign=middle;resizable=0;points=[];" vertex="1" connectable="0" parent="5s3269w3blTbIOFKcLB0-71">
          <mxGeometry x="0.0986" y="1" relative="1" as="geometry">
            <mxPoint as="offset" />
          </mxGeometry>
        </mxCell>
        <mxCell id="5s3269w3blTbIOFKcLB0-63" value="是否需要研究" style="strokeWidth=2;html=1;shape=mxgraph.flowchart.decision;whiteSpace=wrap;" vertex="1" parent="1">
          <mxGeometry x="560" y="2280" width="100" height="70" as="geometry" />
        </mxCell>
        <mxCell id="5s3269w3blTbIOFKcLB0-68" style="edgeStyle=orthogonalEdgeStyle;rounded=0;orthogonalLoop=1;jettySize=auto;html=1;entryX=0;entryY=0.5;entryDx=0;entryDy=0;exitX=0;exitY=0.5;exitDx=0;exitDy=0;" edge="1" parent="1" source="5s3269w3blTbIOFKcLB0-65" target="5s3269w3blTbIOFKcLB0-31">
          <mxGeometry relative="1" as="geometry">
            <Array as="points">
              <mxPoint x="80" y="2315" />
              <mxPoint x="80" y="1795" />
            </Array>
          </mxGeometry>
        </mxCell>
        <mxCell id="5s3269w3blTbIOFKcLB0-65" value="修复缺陷" style="rounded=1;whiteSpace=wrap;html=1;absoluteArcSize=1;arcSize=14;strokeWidth=2;" vertex="1" parent="1">
          <mxGeometry x="170" y="2290" width="100" height="50" as="geometry" />
        </mxCell>
      </root>
    </mxGraphModel>
  </diagram>
</mxfile>
